<svg xmlns="http://www.w3.org/2000/svg" viewBox="0 0 1603.81 400"><defs><style>.cls-1{fill:#04123f;}.cls-2{fill:#0075ff;}</style></defs><title>Asset 4</title><g id="Layer_2" data-name="Layer 2"><g id="Layer_1-2" data-name="Layer 1"><path class="cls-1" d="M1200,146.17q13.88,0,24.2,4.29t20.89,15.34l37.48-20.62a91.15,91.15,0,0,0-34.8-30.26q-21.29-10.64-48-10.64-28.86,0-52.2,12.53a92.39,92.39,0,0,0-49.4,82.47q0,37.6,26.8,65.64t74.14,28q52.61,0,81.48-37.54l-35.5-24.31q-16.86,20.63-47.07,20.62-24.43,0-39.47-14.49t-15-37.38q0-23.55,15.6-38.62T1200,146.17Z"/><rect class="cls-1" x="1490.82" y="39.62" width="45.03" height="248.72"/><rect class="cls-1" x="1558.78" y="39.62" width="45.03" height="248.72"/><path class="cls-1" d="M1463.27,111.26l-40.11,17.43A82.53,82.53,0,0,0,1397,110.38a76,76,0,0,0-30.31-6.1q-35.1,0-59.63,26.55T1282.48,199q0,40.08,25.36,67.05T1368,293a74.08,74.08,0,0,0,28.75-5.52q13.26-5.54,26.43-18.06v19h0v.34h45V114.56A3.57,3.57,0,0,0,1463.27,111.26ZM1411.17,237q-14,14.76-35.18,14.76a45.53,45.53,0,0,1-34.6-15q-14.06-15-14.05-38.26,0-23.1,13.8-37.85t34.69-14.77q21.38,0,35.34,14.52t14,37.93Q1425.14,222.22,1411.17,237Z"/><path class="cls-2" d="M887.68,203.07q0-44.52-26.55-71.66t-68.94-27.13q-39.93,0-66.39,27.13t-26.47,68.2q0,40.08,26.55,66.71T794.66,293q27.21,0,47-9.65t34-29.77l-37.93-17.81a60,60,0,0,1-43.38,17.65q-21.12,0-34.72-11.3t-16.74-30.43H887.52ZM744.85,176.19q7.59-16.66,16.52-23.26,14.21-10.55,33-10.55,17.34,0,30.48,9.4a45.23,45.23,0,0,1,17.6,24.41Z"/><path class="cls-2" d="M995.79,104.28c-18.46.37-47.75,3.42-63.93,14.86l-20.11-8.23a3.57,3.57,0,0,0-4.92,3.3V288.35h45v-72c0-3.85,0-7.35.09-10.65V170.64h0c0-14.44,21.63-26.15,40.83-26.15s40.81,11.71,40.83,26.15h0V288.35h44.5V169.76c0-20.67-5-36.55-15.65-46.84C1047.77,108.76,1017.79,103.83,995.79,104.28Z"/><polygon class="cls-2" points="669.85 100.53 600.29 170.09 530.72 100.53 500.74 130.51 570.3 200.07 500.74 269.64 530.72 299.62 600.29 230.06 669.85 299.62 699.83 269.64 630.27 200.07 699.83 130.51 669.85 100.53"/><path class="cls-1" d="M205.39,178.2l-61.83-61.86-29.45,29.41L225.28,257a83.09,83.09,0,0,0,60.61,26.15V241.46a41.67,41.67,0,0,1,0-83.33V116.46A83.37,83.37,0,0,0,205.39,178.2Z"/><polygon class="cls-2" points="114.11 254.2 143.51 283.66 183.59 243.6 154.17 214.16 114.11 254.2"/><path class="cls-1" d="M200,0C89.54,0,0,89.54,0,200S89.54,400,200,400s200-89.54,200-200S310.46,0,200,0ZM312,312A158.34,158.34,0,0,1,88,88,158.34,158.34,0,0,1,312,312Z"/></g></g></svg>