<?xml version="1.0" encoding="utf-8"?>
<svg viewBox="653.345 264.109 402.591 402.859" xmlns="http://www.w3.org/2000/svg">
  <defs>
    <style>.cls-1{fill:#04123f;}.cls-2{fill:#0075ff;}</style>
  </defs>
  <title>Asset 4</title>
  <g id="Layer_2" data-name="Layer 2" transform="matrix(1, 0, 0, 1, 654.812866, 265.458923)">
    <g>
      <path class="cls-1" d="M 205.39 178.2 L 143.56 116.34 L 114.11 145.75 L 225.28 257 C 241.006 273.712 262.942 283.177 285.89 283.15 L 285.89 241.46 C 253.816 240.963 234.308 205.932 250.775 178.403 C 258.181 166.023 271.465 158.353 285.89 158.13 L 285.89 116.46 C 248.182 116.467 215.173 141.783 205.39 178.2 Z"/>
      <polygon class="cls-2" points="114.11 254.2 143.51 283.66 183.59 243.6 154.17 214.16 114.11 254.2"/>
      <path class="cls-1" d="M 200 0 C 89.54 0 0 89.54 0 200 C 0 310.46 89.54 400 200 400 C 310.46 400 400 310.46 400 200 C 400 89.54 310.46 0 200 0 Z M 312 312 C 225.782 398.218 78.563 358.77 47.005 240.995 C 32.359 186.335 47.986 128.014 88 88 C 174.218 1.782 321.437 41.23 352.995 159.005 C 367.641 213.665 352.014 271.986 312 312 Z"/>
    </g>
  </g>
</svg>