<svg xmlns="http://www.w3.org/2000/svg" viewBox="0 0 76 48"><path d="M7.1,0.8C3.7,0.8,1,3.5,1,6.9v22.7l0.2,0.2h2l0.2-0.2V6.9c0-2,1.6-3.7,3.7-3.7h62.5c2,0,3.7,1.7,3.7,3.7V41		c0,2-1.6,3.7-3.7,3.7h-8.9l-0.2,0.2v2l0.2,0.2h8.9c3.3,0,6.1-2.7,6.1-6.1V6.9c0-3.4-2.7-6.1-6.1-6.1"></path><path d="M24,47.1h-2.4l-0.2-0.2l-0.2-0.4H21c0,0-0.9,0.9-2.4,0.9c-2.4,0-3.9-1.3-3.9-3.5c0-3.3,3-3.7,4.7-3.7		c0.9,0,1.5,0.2,1.5,0.2l0.2-0.2v-0.2c0-1.1-0.2-1.3-1.5-1.3c-0.6,0-1.3,0-1.5,0.7L18,39.5h-2.6l-0.2-0.2c0-1.3,1.1-3.3,4.5-3.3		c3.4,0,4.5,1.7,4.5,5v5.9L24,47.1z M21,42.5c0,0-0.4-0.2-1.3-0.2c-1.3,0-1.9,0.4-1.9,1.3c0,0.7,0.4,1.1,1.5,1.1		c1.1,0,1.9-0.7,1.9-1.5v-0.4L21,42.5z"></path><path d="M11.1,42.5l0.2-0.2h2.6l0.2,0.2c-0.4,3-2.8,4.8-6.2,4.8c-4.7,0-7.3-3.3-7.3-7.8c0-4.6,2.6-7.8,7.3-7.8		c3.4,0,5.8,1.7,6.2,4.6l-0.2,0.2h-2.6l-0.2-0.2c-0.4-1.3-1.5-2-3.2-2c-3,0-4.3,2.2-4.3,5.2c0,3,1.3,5.2,4.3,5.2		C9.6,44.7,10.7,44.1,11.1,42.5"></path><path d="M32.5,38.9H31c-1.7,0-2.4,0.9-2.4,2.8v5.2l-0.2,0.2h-2.6l-0.2-0.2V36.5l0.2-0.2h2.4l0.2,0.2l0.2,0.7h0.2		c0,0,0.4-0.9,2.4-0.9h1.3l0.2,0.2v2.2L32.5,38.9z"></path><path d="M37.5,36c1.9,0,2.8,1.1,2.8,1.1h0.2v-5l0.2-0.2h2.6l0.2,0.2v14.8l-0.2,0.2H41l-0.2-0.2l-0.2-0.7h-0.2		c0,0-0.9,1.1-2.8,1.1c-2.6,0-4.7-2.2-4.7-5.6S35,36,37.5,36 M38.2,44.7c1.7,0,2.4-1.3,2.4-3c0-1.7-0.6-3-2.4-3		c-1.7,0-2.4,1.3-2.4,3C35.8,43.4,36.5,44.7,38.2,44.7"></path><polygon points="57.3,47.1 55.8,47.1 55.4,46.9 51.3,41.5 51.1,41.5 47,46.9 46.6,47.1 45.1,47.1 44.9,46.9 44.9,44.7 		49.2,39.3 49.2,39.1 45.1,34.3 45.1,32.1 45.3,31.9 46.8,31.9 47.2,32.1 51.1,36.9 51.3,36.9 55.2,32.1 55.6,31.9 57.1,31.9 		57.3,32.1 57.3,34.3 53.3,39.1 53.3,39.3 57.6,44.7 57.6,46.9 	"></polygon></svg>
