<?xml version="1.0" encoding="utf-8"?>
<svg id="Layer_1" data-name="Layer 1" viewBox="0 0 360.01 188.99" xmlns="http://www.w3.org/2000/svg">
  <defs>
    <style>.cls-1{fill:#221f1f;}</style>
  </defs>
  <title>Five9_logo_black</title>
  <path class="cls-1" d="M234.69,314.52h43.8a72.39,72.39,0,0,1,4.68-17.47H216V398h18.69V356.69h40.57V339.22H234.69Z" transform="translate(-216 -211.5)" style="fill: rgb(255, 255, 255);"/>
  <path class="cls-1" d="M305.38,314.52a46.31,46.31,0,0,1,62-33.36,58.78,58.78,0,0,1,116.69.11,53.1,53.1,0,0,1,73.87,48.86c0,15.64-5.51,27.27-14,38.16h20.55A67.73,67.73,0,0,0,576,330.13a71,71,0,0,0-79.11-70.72,76.86,76.86,0,0,0-142.65.64c-1.17-.06-2.33-.1-3.51-.1A64.62,64.62,0,0,0,287,314.52Z" transform="translate(-216 -211.5)" style="fill: rgb(255, 255, 255);"/>
  <rect class="cls-1" x="70.85" y="110.79" width="18.15" height="75.74" style="fill: rgb(255, 255, 255);"/>
  <path class="cls-1" d="M312.78,322.29h19.65l18.29,50.23h.4l17.2-50.23h19.92L357.54,398h-14.2Z" transform="translate(-216 -211.5)" style="fill: rgb(255, 255, 255);"/>
  <path class="cls-1" d="M482.27,398l22.38-34.12a18.83,18.83,0,0,1-4.91.41c-14.33-.14-29.89-12.69-29.89-32.89,0-21.43,16.51-36.3,34.94-36.3,18.15,0,35.07,14.05,35.07,36.16a37.27,37.27,0,0,1-2.32,12.56,59.1,59.1,0,0,1-5.87,11.33L503.56,398Zm22.66-85.71c-11.06,0-16.93,9.55-16.93,17.47,0,10.24,7,17.74,16.93,17.74,10.91,0,16.78-9.55,16.78-17.05C521.71,320.52,514.48,312.33,504.93,312.33Z" transform="translate(-216 -211.5)" style="fill: rgb(255, 255, 255);"/>
  <path class="cls-1" d="M442.43,376.07c-3.54,5-9.08,7.78-16.26,7.78-13,0-20.06-10.65-20.88-15.56h58.82a41.77,41.77,0,0,0,1.09-9.15c0-19.1-15.15-39.85-39.17-39.85-23.33,0-39.84,19.65-39.84,41.08a39.81,39.81,0,0,0,40,40.13C443.08,400.5,457,389,462,376.07Zm-16.26-40.13c9,0,18.42,5.6,20.47,17.75h-41.9C408.16,339.62,419.48,335.94,426.17,335.94Z" transform="translate(-216 -211.5)" style="fill: rgb(255, 255, 255);"/>
  <path class="cls-1" d="M532.79,389.61h-3.13V398h-1.12v-8.43H525.4v-1.05h7.39Z" transform="translate(-216 -211.5)" style="fill: rgb(255, 255, 255);"/>
  <path class="cls-1" d="M534.11,388.56h1.68L539,396h0l3.24-7.43h1.63V398h-1.12v-8h0l-3.4,8h-.68l-3.39-8h0v8h-1.13Z" transform="translate(-216 -211.5)" style="fill: rgb(255, 255, 255);"/>
</svg>