<svg xmlns="http://www.w3.org/2000/svg" width="150" height="19" viewBox="0 0 150 19">
    <g fill="none" fill-rule="evenodd">
        <g fill="#3155A4" fill-rule="nonzero">
            <g>
                <path d="M19.035 11.82l3.735-.653v1.63c-.062.647.166 1.288.622 1.75.418.366.957.564 1.513.554.578.036 1.142-.193 1.53-.622.38-.46.574-1.043.549-1.637V.747h3.958v12.194c.002.785-.148 1.563-.442 2.29-.282.702-.705 1.338-1.244 1.868-1.155 1.15-2.728 1.782-4.358 1.75-.823.01-1.641-.13-2.415-.412-.7-.257-1.338-.662-1.867-1.188-.539-.531-.963-1.167-1.245-1.868-.3-.765-.449-1.58-.436-2.403l.1-1.157zM39.62 5.658c.89-.009 1.775.159 2.601.492.782.31 1.493.773 2.092 1.363.598.595 1.074 1.301 1.4 2.08.351.839.527 1.741.517 2.65.01.917-.166 1.825-.517 2.671-.316.79-.785 1.51-1.382 2.117-.598.59-1.31 1.053-2.091 1.363-1.676.647-3.534.647-5.21 0-.78-.311-1.492-.775-2.091-1.363-.6-.598-1.076-1.31-1.401-2.092-.349-.846-.522-1.755-.51-2.67-.012-.91.161-1.812.51-2.652.326-.778.802-1.484 1.4-2.079.6-.588 1.311-1.052 2.092-1.363.821-.34 1.7-.516 2.59-.517zm0 9.692c.358.001.715-.062 1.051-.187.334-.125.636-.323.884-.579.269-.275.48-.6.623-.958.315-.888.315-1.857 0-2.745-.138-.362-.35-.69-.623-.965-.252-.246-.553-.437-.884-.56-.674-.25-1.416-.25-2.091 0-.338.12-.646.31-.903.56-.272.274-.484.603-.622.965-.315.883-.315 1.849 0 2.732.14.363.35.694.622.971.254.26.562.457.903.58.333.122.685.186 1.04.186zM48.228 18.481V.349h3.735v6.847c.357-.456.827-.81 1.363-1.027.704-.317 1.47-.473 2.24-.455.836-.011 1.664.156 2.428.492.7.307 1.322.77 1.818 1.35.507.607.893 1.304 1.14 2.055.273.835.407 1.71.397 2.59.01.896-.137 1.787-.435 2.632-.278.763-.7 1.465-1.245 2.067-1.09 1.206-2.645 1.886-4.27 1.867-.75.02-1.493-.142-2.166-.473-.553-.263-1.018-.68-1.339-1.201v1.4l-3.666-.012zm9.337-6.225c.009-.464-.067-.926-.224-1.363-.132-.364-.345-.694-.623-.965-.257-.25-.565-.44-.902-.56-.688-.25-1.441-.25-2.129 0-.335.12-.641.312-.896.56-.275.273-.488.602-.623.965-.167.435-.248.898-.236 1.363-.012.464.068.925.236 1.357.14.359.352.685.623.959.249.271.555.484.896.622.34.132.7.2 1.064.2.363 0 .724-.063 1.065-.187.34-.122.65-.32.902-.579.277-.274.49-.606.623-.971.156-.454.225-.933.205-1.413l.019.012zM75.299 18.481L67.985 6.81 67.985 18.481 64.051 18.481 64.051.728 68.856.728 75.523 11.522 75.523.728 79.475.728 79.475 18.481zM82.264 2.229c-.001-.298.058-.592.174-.866.109-.265.27-.507.473-.71.203-.201.442-.364.704-.479.839-.35 1.807-.162 2.452.48.427.411.664.982.654 1.575.009.594-.228 1.166-.654 1.58-.427.416-1.004.641-1.6.623-.293.003-.584-.056-.852-.174-.262-.113-.5-.273-.704-.473-.202-.206-.363-.45-.473-.716-.113-.266-.172-.551-.174-.84zm.324 16.252V6.031h3.803v12.45h-3.803zM89.099 18.481V6.031h3.629v1.426c.16-.282.371-.533.622-.74.269-.229.566-.421.884-.573.328-.16.672-.282 1.027-.367.34-.08.69-.122 1.04-.125.79-.025 1.575.153 2.278.517.604.325 1.095.826 1.406 1.438.409-.637.978-1.154 1.65-1.5.69-.32 1.444-.476 2.203-.455.584-.001 1.163.09 1.718.268.547.167 1.05.452 1.476.834.446.413.796.919 1.027 1.481.276.692.408 1.434.386 2.179v8.06h-3.68V11.26c.016-.535-.15-1.06-.472-1.487-.373-.438-.933-.67-1.507-.623-.585-.048-1.16.183-1.55.623-.343.415-.53.937-.529 1.475v7.19h-3.734v-7.215c.012-.535-.154-1.058-.473-1.488-.38-.441-.95-.673-1.532-.622-.577-.04-1.14.19-1.525.622-.349.422-.536.954-.529 1.5V18.4l-3.815.081zM111.059 18.481V.349h3.735v6.847c.357-.456.827-.81 1.363-1.027.704-.316 1.47-.471 2.24-.455.838-.01 1.667.157 2.435.492.697.309 1.316.77 1.81 1.35.51.605.897 1.303 1.14 2.055.276.835.412 1.71.405 2.59.008.896-.142 1.787-.442 2.632-.275.764-.698 1.467-1.245 2.067-.524.573-1.16 1.032-1.868 1.35-.753.33-1.568.496-2.39.486-.75.02-1.493-.142-2.166-.473-.551-.265-1.016-.682-1.338-1.201v1.4l-3.68.019zm9.337-6.225c.009-.464-.067-.926-.224-1.363-.135-.363-.347-.692-.623-.965-.258-.247-.566-.438-.902-.56-.688-.25-1.442-.25-2.13 0-.336.122-.643.313-.902.56-.272.275-.484.604-.622.965-.164.436-.245.898-.237 1.363-.008.464.072.924.237 1.357.142.358.354.684.622.959.253.27.56.483.903.622.34.132.7.2 1.064.2.363 0 .724-.063 1.065-.187.34-.124.648-.322.902-.579.275-.276.487-.607.623-.971.154-.455.221-.934.199-1.413l.025.012zM134.246 18.481c-.042-.195-.067-.392-.075-.591v-.66c-.338.536-.844.945-1.438 1.164-.595.234-1.228.356-1.867.36-.692.012-1.379-.12-2.017-.385-.565-.241-1.072-.6-1.488-1.052-.405-.446-.717-.969-.915-1.537-.213-.6-.32-1.232-.317-1.868V6.05h3.81v7.06c-.018.548.153 1.086.485 1.524.376.44.941.672 1.518.623.565.029 1.115-.184 1.513-.585.388-.418.592-.975.566-1.544V6.044h3.804V16.26c0 .566 0 1.058.05 1.463.05.404.062.666.074.765l-3.703-.006zM142.985 14.373c.033.434.213.845.51 1.164.385.37.911.559 1.444.516.39.027.777-.088 1.09-.323.225-.186.357-.461.36-.753.004-.235-.09-.461-.26-.623-.28-.221-.613-.363-.966-.41l-1.425-.324c-.593-.133-1.167-.342-1.706-.623-.432-.222-.822-.52-1.151-.878-.28-.32-.493-.695-.623-1.101-.132-.402-.199-.822-.199-1.245-.002-.553.117-1.099.349-1.6.237-.502.573-.951.99-1.32.447-.386.962-.686 1.518-.883.619-.225 1.272-.337 1.93-.33.777-.022 1.55.107 2.278.38.559.212 1.072.53 1.513.933.365.341.66.752.865 1.208.17.376.28.778.324 1.189l-3.156.572c-.044-.401-.214-.778-.486-1.077-.347-.325-.815-.487-1.288-.448-.34-.01-.674.091-.953.286-.261.177-.414.476-.404.791-.013.24.092.472.28.622.202.16.442.266.697.305l1.656.324c1.096.16 2.11.673 2.888 1.463.61.665.946 1.537.94 2.44 0 .533-.101 1.061-.299 1.556-.207.509-.524.966-.927 1.338-.452.414-.978.737-1.55.953-.698.255-1.437.377-2.179.36-.849.03-1.695-.11-2.49-.41-.592-.231-1.133-.576-1.593-1.015-.375-.365-.677-.798-.89-1.276-.173-.38-.278-.786-.312-1.201l3.225-.56zM17.983.498H0v17.983c9.932 0 17.983-8.051 17.983-17.983z" transform="translate(-24.000000, -19.000000) translate(24.000000, 19.000000)"/>
            </g>
        </g>
    </g>
</svg>
