<?xml version="1.0" encoding="utf-8"?>
<svg version="1.1" id="Layer_1" x="0px" y="0px" viewBox="0 0 826 180" style="enable-background:new 0 0 826 180;" xmlns="http://www.w3.org/2000/svg">
  <defs/>
  <style type="text/css">
	.st0{fill:#FFFFFF;}
	.st1{fill:#00AECF;}
	.st2{fill:#66C4AB;}
</style>
  <g>
    <path class="st0" d="M267.04,75.28c0.8-11.55-2.68-17.32-10.44-17.32c-3.52-0.13-6.9,1.44-9.17,4.26&#10;&#9;&#9;c-2.32,2.84-3.99,7.53-5.01,14.06h24.54L267.04,75.28z M286.88,89.76h-45.61c0.2,6.35,1.57,10.8,4.13,13.35&#10;&#9;&#9;c2.56,2.55,6.28,3.83,11.18,3.83c2.98-0.01,5.94-0.56,8.73-1.63c3.31-1.33,6.47-3.01,9.44-5.04l7.95,12.49&#10;&#9;&#9;c-9.19,7-19.06,10.51-29.6,10.5c-11.92,0-20.76-3.6-26.53-10.79c-5.77-7.19-8.13-16.85-7.09-28.96c0.53-7.23,2.5-14.27,5.79-20.66&#10;&#9;&#9;c3.05-5.94,7.54-10.93,13.02-14.48c5.73-3.62,12.33-5.47,19.03-5.32c10.63,0,18.66,3.41,24.08,10.22&#10;&#9;&#9;c5.43,6.81,7.62,16.28,6.59,28.4C287.78,84.39,287.41,87.09,286.88,89.76z" style="fill: rgb(26, 19, 83);"/>
    <polygon class="st0" points="120.84,120.85 129.24,22.47 186.5,22.47 182.72,39.08 150.56,39.08 148.32,65.2 176.33,65.2 &#10;&#9;&#9;174.91,81.81 146.91,81.81 143.57,120.85 &#9;" style="fill: rgb(26, 19, 83);"/>
    <polygon class="st0" points="212.73,45.47 206.29,120.86 184.38,120.86 190.82,45.47 &#9;" style="fill: rgb(26, 19, 83);"/>
    <path class="st0" d="M212.56,17.92c2.04,2.2,3,5.26,2.62,8.29c-0.22,3.22-1.68,6.2-4.03,8.29c-2.42,2.19-5.55,3.36-8.75,3.28&#10;&#9;&#9;c-3.43,0-6.14-1.09-8.13-3.28c-2-2.22-2.94-5.27-2.55-8.29c0.22-3.2,1.65-6.18,3.97-8.29c2.4-2.2,5.5-3.37,8.69-3.28&#10;&#9;&#9;C207.42,14.49,210.4,15.68,212.56,17.92z"/>
    <path class="st0" d="M299.84,117.66c-3.24-3.74-4.56-9.06-3.97-15.97l6.5-77.16l22.97-8.73l-7.48,85.03&#10;&#9;&#9;c-0.27,3.12,0.85,4.69,3.34,4.68c1.25,0.01,2.5-0.23,3.66-0.71l2.94,15.9c-4.31,1.74-8.9,2.61-13.53,2.55&#10;&#9;&#9;C307.89,123.27,303.08,121.4,299.84,117.66z" style="fill: rgb(26, 19, 83);"/>
    <path class="st0" d="M379.98,98.28l2.78-32.51c-1.32-1.93-2.99-3.57-4.92-4.82c-1.84-1.07-3.92-1.61-6.03-1.56&#10;&#9;&#9;c-4.07,0-7.47,1.94-10.2,5.82c-2.73,3.88-4.44,9.84-5.13,17.89c-0.75,8.8-0.24,14.96,1.54,18.46c1.56,3.37,4.91,5.44,8.5,5.26&#10;&#9;&#9;C371.58,106.8,376.07,103.96,379.98,98.28L379.98,98.28z M409.89,1.09l-9.94,119.76h-19.41l-0.36-8.8&#10;&#9;&#9;c-5.82,7.48-13.11,11.22-21.89,11.22c-9.15,0-15.8-3.6-19.94-10.79c-4.14-7.19-5.68-17.03-4.62-29.53&#10;&#9;&#9;c0.52-7.17,2.39-14.17,5.5-20.59c2.72-5.7,6.79-10.59,11.83-14.2c4.77-3.38,10.41-5.16,16.17-5.11c7.03,0,12.65,2.37,16.86,7.1&#10;&#9;&#9;l3.13-40.41L409.89,1.09z" style="fill: rgb(26, 19, 83);"/>
    <path class="st1" d="M823.57,52.57h-1.6l-0.19-4.69c-0.01-0.34-0.02-0.75-0.02-1.22c0-0.41,0.02-0.85,0.06-1.31h-0.02l-1.92,6.31&#10;&#9;&#9;h-1.43l-2.11-6.27h-0.02c0.04,0.49,0.06,1.01,0.06,1.56l-0.02,0.93l-0.17,4.69h-1.53l0.34-8.69h2.24l1.94,6.07l1.77-6.07h2.3&#10;&#9;&#9;L823.57,52.57z M814.19,43.88l-0.26,1.42h-2.58v7.27h-1.64V45.3h-2.71v-1.42H814.19z"/>
    <path class="st1" d="M792.82,46.01c3.93,1.47,7.59,3.63,10.82,6.39l-6.11,8.24c-2.82-2.01-5.87-3.63-9.08-4.83&#10;&#9;&#9;c-3.02-1.06-6.18-1.59-9.36-1.56c-4.16,0-7.51,0.87-10.07,2.62c-2.43,1.54-4,4.21-4.22,7.17c-0.38,2.72,0.69,5.44,2.79,7.1&#10;&#9;&#9;c2.12,1.7,6.07,3.36,11.84,4.97c7.96,2.08,13.79,4.92,17.5,8.52c3.72,3.6,5.31,8.52,4.77,14.77c-0.4,6.98-4.08,13.3-9.83,16.89&#10;&#9;&#9;c-5.92,3.88-12.9,5.82-20.94,5.83c-11.09,0-20.01-3.27-26.75-9.8l7.47-7.95c5.62,4.77,12.66,7.33,19.9,7.24&#10;&#9;&#9;c4.8,0,8.7-1.02,11.7-3.05c2.84-1.77,4.68-4.87,4.94-8.31c0.3-2.12-0.05-4.28-1-6.18c-1.21-1.85-2.92-3.28-4.92-4.11&#10;&#9;&#9;c-3.44-1.56-6.99-2.82-10.63-3.77c-7.59-2.08-12.96-4.87-16.13-8.37c-3.17-3.5-4.52-7.95-4.06-13.34c0.34-3.91,1.84-7.61,4.3-10.58&#10;&#9;&#9;c2.71-3.3,6.17-5.84,10.06-7.38c4.38-1.79,9.04-2.68,13.74-2.63C784.06,43.8,788.54,44.52,792.82,46.01z"/>
    <path class="st1" d="M728.26,77.41c0.63-7.38-0.32-13.01-2.86-16.89c-2.54-3.88-6.67-5.82-12.4-5.82&#10;&#9;&#9;c-10.44,0-16.8,7.86-19.07,23.57h34.24L728.26,77.41z M739.7,87.91h-46.58c-0.15,8.23,1.37,14.29,4.55,18.17&#10;&#9;&#9;c3.18,3.88,7.55,5.82,13.09,5.82c3.34,0.03,6.66-0.5,9.84-1.56c3.42-1.23,6.68-2.9,9.71-4.97l4.88,7.81&#10;&#9;&#9;c-8.3,6.25-17.07,9.37-26.31,9.37c-10.17,0-17.8-3.41-22.9-10.22c-5.1-6.81-7.14-16.18-6.13-28.11c0.51-7.19,2.36-14.2,5.44-20.66&#10;&#9;&#9;c2.69-5.68,6.73-10.55,11.74-14.13c4.9-3.42,10.69-5.2,16.59-5.11c9.7,0,16.87,3.27,21.49,9.8c4.62,6.53,6.43,15.57,5.44,27.12&#10;&#9;&#9;C740.36,83.42,740.08,85.64,739.7,87.91z"/>
    <path class="st1" d="M676.13,117.44c-5,3.38-10.84,5.16-16.8,5.11c-6.19,0-10.87-1.82-14.02-5.47c-3.15-3.65-4.44-8.92-3.85-15.83&#10;&#9;&#9;l3.86-45.15h-12.75l0.86-10.08h12.75l1.95-22.81l13.2-5l-2.4,27.81h17.33l-2.25,10.08h-15.94l-3.81,44.58&#10;&#9;&#9;c-0.33,3.88,0.1,6.7,1.29,8.45c1.19,1.75,3.36,2.62,6.5,2.62c2.86,0,6.18-0.99,9.96-2.98L676.13,117.44z"/>
    <path class="st1" d="M617.83,120.85h-10.95l0.03-11.64c-2.69,4.17-6.26,7.65-10.44,10.15c-4.16,2.22-8.78,3.32-13.44,3.2&#10;&#9;&#9;c-6.37,0-11.19-1.99-14.46-5.97c-3.27-3.98-4.59-9.61-3.97-16.89l4.59-53.66h12.75l-4.46,52.24c-0.44,5.11,0.13,8.73,1.71,10.86&#10;&#9;&#9;c1.58,2.13,4.35,3.2,8.32,3.2c7.11,0,13.58-4.31,19.4-12.92l4.56-53.38h12.76L617.83,120.85z"/>
    <path class="st1" d="M505.24,83.51c-1.62,19.02,3.85,28.53,16.42,28.54c12.57,0,19.67-9.56,21.3-28.68&#10;&#9;&#9;c1.63-19.02-3.8-28.54-16.28-28.54C514.03,54.84,506.88,64.4,505.24,83.51z M550.6,54.84c5.09,7,7.12,16.52,6.09,28.54&#10;&#9;&#9;c-0.5,7.17-2.42,14.15-5.63,20.51c-5.83,11.76-17.6,19.02-30.29,18.67c-10.26,0-17.95-3.5-23.09-10.51&#10;&#9;&#9;c-5.13-7-7.19-16.52-6.16-28.54c0.5-7.17,2.42-14.16,5.63-20.52c5.86-11.81,17.69-19.07,30.43-18.67&#10;&#9;&#9;C537.85,44.33,545.52,47.83,550.6,54.84z"/>
    <path class="st1" d="M449.94,69.01c6.93,0,12.28-1.44,16.04-4.33c3.76-2.89,5.91-7.55,6.46-13.98c0.51-6.05-0.89-10.43-4.21-13.13&#10;&#9;&#9;c-3.32-2.7-8.92-4.05-16.77-4.04h-11.79l-3.03,35.49L449.94,69.01z M450.59,79.38h-14.84l-3.54,41.46h-13.17l8.35-97.82h25.09&#10;&#9;&#9;c11.92,0,20.76,2.32,26.51,6.96c5.75,4.64,8.23,11.55,7.45,20.72c-0.58,6.82-2.76,12.35-6.55,16.61&#10;&#9;&#9;c-3.78,4.26-9.23,7.48-16.35,9.66l22.04,43.87h-15.67L450.59,79.38z"/>
    <path class="st2" d="M88.56,27.05l12.88,36.9c5.94-28.97,2.5-55.96,2.5-56.02c-0.06,0.01-26.14,1.17-52.46,12.3L88.56,27.05z"/>
    <path class="st1" d="M77.93,33.68l-39.15-7.2c-4.05,2.3-7.99,4.88-11.74,7.78l12.53,47.11L77.93,33.68z"/>
    <path class="st1" d="M92.43,91.49c2.08-4.36,3.84-8.86,5.31-13.42l-13.6-38.96L73.91,51.82l0,0L45.77,86.8L92.43,91.49z"/>
    <path class="st0" d="M33.25,89.22L20.2,40.13c-2.38,2.28-4.65,4.7-6.75,7.3c-13.94,17.32-13.61,45.45,2.88,62.81L33.25,89.22z" style="fill: rgb(26, 19, 83);"/>
    <path class="st0" d="M39.46,94.66l-16.91,21.02c19.26,13.93,45.87,9.38,59.8-7.95c2.1-2.61,3.99-5.36,5.72-8.19L39.46,94.66z" style="fill: rgb(26, 19, 83);"/>
    <g>
      <path class="st0" d="M403.71,166.74l-2.24-6.6h-10.32l-2.2,6.6h-5.92l10.28-27.56h6l10.24,27.56H403.71z M392.8,155.3h7.04&#10;&#9;&#9;&#9;l-3.52-10.44L392.8,155.3z" style="fill: rgb(26, 19, 83);"/>
      <path class="st0" d="M419.72,158.74h5.56c0.04,1.96,1.96,3.6,4.52,3.6c2.48,0,4.12-1.36,4.12-3.32c0-1.52-1.12-2.6-3.48-3.32&#10;&#9;&#9;&#9;l-3.36-0.96c-6.04-1.6-7.12-5.24-7.12-7.72c0-4.92,4.24-8.32,9.52-8.32c5.2,0,9.2,3.16,9.2,8.4h-5.56c0-1.96-1.36-3.48-3.76-3.48&#10;&#9;&#9;&#9;c-2.16,0-3.8,1.44-3.8,3.28c0,0.68,0.2,2.08,3.08,2.92l3.08,0.88c4.16,1.24,7.8,3.36,7.8,8.04c0,5.48-4.68,8.48-9.88,8.48&#10;&#9;&#9;&#9;C423.76,167.22,419.72,163.58,419.72,158.74z" style="fill: rgb(26, 19, 83);"/>
      <path class="st0" d="M462.23,159.1H448.2c0.56,2.2,2.32,3.48,4.8,3.48c1.92,0,3.76-0.88,4.92-2.2l3.04,3.08&#10;&#9;&#9;&#9;c-1.76,2.36-5,3.76-8.28,3.76c-5.76,0-9.96-4.04-9.96-9.8c0-6.04,4.6-9.84,9.92-9.84c5.36,0,9.72,3.8,9.72,9.52&#10;&#9;&#9;&#9;C462.35,157.62,462.31,158.26,462.23,159.1z M457.07,155.7c-0.16-2.2-1.96-3.6-4.32-3.6c-2.16,0-4,1.08-4.56,3.6H457.07z" style="fill: rgb(26, 19, 83);"/>
      <path class="st0" d="M480.03,148.19l-1.2,5c-1.12-0.6-2.04-0.68-2.68-0.68c-2.68,0-4.52,2.52-4.52,7.84v6.4h-5.24v-18.68h5.2v4&#10;&#9;&#9;&#9;c1.04-3.12,3.16-4.48,5.48-4.48C478.07,147.58,479.19,147.75,480.03,148.19z" style="fill: rgb(26, 19, 83);"/>
      <path class="st0" d="M495.07,148.07h5.72l-7.88,18.68h-4.68l-7.88-18.68h5.68l4.56,11.92L495.07,148.07z" style="fill: rgb(26, 19, 83);"/>
      <path class="st0" d="M502.88,141.63c0-1.76,1.52-3.12,3.32-3.12c1.84,0,3.32,1.36,3.32,3.12s-1.48,3.16-3.32,3.16&#10;&#9;&#9;&#9;C504.39,144.79,502.88,143.39,502.88,141.63z M503.59,166.74v-18.68h5.24v18.68H503.59z" style="fill: rgb(26, 19, 83);"/>
      <path class="st0" d="M512.95,157.34c0-5.92,4.8-9.76,10.24-9.76c3.4,0,6.12,1.56,7.88,4l-3.96,2.76c-0.84-1.16-2.4-1.88-3.88-1.88&#10;&#9;&#9;&#9;c-2.96,0-4.96,2.16-4.96,4.88c0,2.76,2,5,4.96,5c1.48,0,3.04-0.72,3.88-1.88l3.96,2.76c-1.76,2.44-4.48,4-7.88,4&#10;&#9;&#9;&#9;C517.75,167.22,512.95,163.26,512.95,157.34z" style="fill: rgb(26, 19, 83);"/>
      <path class="st0" d="M552.91,159.1h-14.04c0.56,2.2,2.32,3.48,4.8,3.48c1.92,0,3.76-0.88,4.92-2.2l3.04,3.08&#10;&#9;&#9;&#9;c-1.76,2.36-5,3.76-8.28,3.76c-5.76,0-9.96-4.04-9.96-9.8c0-6.04,4.6-9.84,9.92-9.84c5.36,0,9.72,3.8,9.72,9.52&#10;&#9;&#9;&#9;C553.03,157.62,552.99,158.26,552.91,159.1z M547.75,155.7c-0.16-2.2-1.96-3.6-4.32-3.6c-2.16,0-4,1.08-4.56,3.6H547.75z" style="fill: rgb(26, 19, 83);"/>
      <path class="st0" d="M572.71,139.19v4.92h-7.6v22.64h-5.56v-22.64h-7.6v-4.92H572.71z" style="fill: rgb(26, 19, 83);"/>
      <path class="st0" d="M575.31,141.63c0-1.76,1.52-3.12,3.32-3.12c1.84,0,3.32,1.36,3.32,3.12s-1.48,3.16-3.32,3.16&#10;&#9;&#9;&#9;C576.83,144.79,575.31,143.39,575.31,141.63z M576.03,166.74v-18.68h5.24v18.68H576.03z" style="fill: rgb(26, 19, 83);"/>
      <path class="st0" d="M597.55,148.07v4.08h-3.96v14.6h-5.24v-14.6h-3.4v-4.08h3.4v-6.8h5.24v6.8H597.55z" style="fill: rgb(26, 19, 83);"/>
      <path class="st0" d="M614.55,148.07h5.24v18.68h-5.24v-2.68c-1.24,1.92-3.64,3.16-6.16,3.16c-5.16,0-9-4-9-9.8&#10;&#9;&#9;&#9;s3.76-9.84,9.12-9.84c2.4,0,4.8,1.04,6.04,2.96V148.07z M614.39,157.42c0-2.84-2.28-4.96-4.88-4.96c-2.72,0-4.76,2.24-4.76,4.96&#10;&#9;&#9;&#9;c0,2.6,2.04,4.92,4.8,4.92C612.19,162.34,614.39,160.1,614.39,157.42z" style="fill: rgb(26, 19, 83);"/>
      <path class="st0" d="M643.31,156.5v10.24h-5.24v-9.96c0-2.92-1.76-4.24-3.56-4.24c-1.88,0-4.2,1-4.2,4.4v9.8h-5.24v-18.68h5.24&#10;&#9;&#9;&#9;v3.04c0.88-2.44,3.8-3.52,5.6-3.52C640.79,147.58,643.35,150.91,643.31,156.5z" style="fill: rgb(26, 19, 83);"/>
      <path class="st0" d="M669.83,139.19c6.24,0,9,4.48,9,9c0,4.52-2.76,8.92-9,8.92h-5.68v9.64h-5.56v-27.56H669.83z M669.55,152.22&#10;&#9;&#9;&#9;c2.68,0,3.68-2.08,3.68-4.04c0-2-1-4.08-3.6-4.08h-5.48v8.12H669.55z" style="fill: rgb(26, 19, 83);"/>
      <path class="st0" d="M695.87,148.19l-1.2,5c-1.12-0.6-2.04-0.68-2.68-0.68c-2.68,0-4.52,2.52-4.52,7.84v6.4h-5.24v-18.68h5.2v4&#10;&#9;&#9;&#9;c1.04-3.12,3.16-4.48,5.48-4.48C693.91,147.58,695.03,147.75,695.87,148.19z" style="fill: rgb(26, 19, 83);"/>
      <path class="st0" d="M696.95,157.42c0-5.92,4.72-9.84,10.04-9.84c5.32,0,10.04,3.92,10.04,9.84c0,5.88-4.72,9.8-10.04,9.8&#10;&#9;&#9;&#9;C701.67,167.22,696.95,163.3,696.95,157.42z M711.71,157.42c0-2.92-2.12-4.96-4.72-4.96c-2.6,0-4.72,2.04-4.72,4.96&#10;&#9;&#9;&#9;c0,2.88,2.12,4.92,4.72,4.92C709.59,162.34,711.71,160.3,711.71,157.42z" style="fill: rgb(26, 19, 83);"/>
      <path class="st0" d="M735.19,137.91h5.24v28.83h-5.24v-2.32c-1.32,1.92-3.92,2.8-6,2.8c-4.8,0-9.16-3.84-9.16-9.84&#10;&#9;&#9;&#9;s4.36-9.8,9.16-9.8c2.16,0,4.68,0.84,6,2.76V137.91z M735.03,157.38c0-2.88-2.4-4.92-4.84-4.92c-2.64,0-4.84,2.16-4.84,4.92&#10;&#9;&#9;&#9;c0,2.72,2.2,4.96,4.84,4.96C732.75,162.34,735.03,160.22,735.03,157.38z" style="fill: rgb(26, 19, 83);"/>
      <path class="st0" d="M758.47,148.07h5.24v18.68h-5.24v-3.04c-0.8,2.44-3.76,3.52-5.6,3.52c-4.88,0-7.44-3.28-7.4-8.88v-10.28h5.24&#10;&#9;&#9;&#9;v10c0,2.92,1.76,4.28,3.56,4.28c1.88,0,4.2-1.04,4.2-4.4V148.07z" style="fill: rgb(26, 19, 83);"/>
      <path class="st0" d="M767.83,157.34c0-5.92,4.8-9.76,10.24-9.76c3.4,0,6.12,1.56,7.88,4l-3.96,2.76c-0.84-1.16-2.4-1.88-3.88-1.88&#10;&#9;&#9;&#9;c-2.96,0-4.96,2.16-4.96,4.88c0,2.76,2,5,4.96,5c1.48,0,3.04-0.72,3.88-1.88l3.96,2.76c-1.76,2.44-4.48,4-7.88,4&#10;&#9;&#9;&#9;C772.63,167.22,767.83,163.26,767.83,157.34z" style="fill: rgb(26, 19, 83);"/>
      <path class="st0" d="M800.71,148.07v4.08h-3.96v14.6h-5.24v-14.6h-3.4v-4.08h3.4v-6.8h5.24v6.8H800.71z" style="fill: rgb(26, 19, 83);"/>
    </g>
  </g>
</svg>