<?xml version="1.0" encoding="utf-8"?>
<svg viewBox="46.3 137.5 80.4 85.1" width="80.4" height="85.1" xmlns="http://www.w3.org/2000/svg">
  <defs>
    <style type="text/css">
	.st0{fill-rule:evenodd;clip-rule:evenodd;fill:#333333;}
	.st1{fill-rule:evenodd;clip-rule:evenodd;fill:#FF9100;}
</style>
  </defs>
  <path d="M 106.212 148.4 C 106.212 146.286 102.05 145.776 100.702 145.599 C 94.151 144.742 87.925 144.951 81.544 146.836 C 77.485 148.035 73.465 149.48 70.007 151.995 C 66.972 154.203 64.611 157.144 61.948 159.742 C 58.205 163.393 54.394 167.815 53.063 173.03 C 52.072 176.911 51.722 180.889 52.254 184.858 C 52.47 186.468 53.212 187.964 53.439 189.574 C 54.127 194.458 56.087 201.133 60.065 204.341 C 63.445 207.067 67.193 208.516 71.284 209.876 C 72.964 210.434 74.697 211.328 76.491 211.394 C 82.511 211.613 88.045 209.691 93.528 207.548 C 97.378 206.044 100.867 205.393 104.209 202.713 C 106.545 200.84 107.997 198.417 109.839 196.123 C 111.513 194.038 113.654 192.226 115.059 189.926 C 115.925 188.509 116.229 186.865 116.818 185.335 C 119.131 179.328 120.754 173.216 120.414 166.697 C 120.095 160.571 116.894 156.504 112.693 152.296 C 111.479 151.08 110.251 150.059 108.659 149.373 C 108.168 149.161 106.623 148.845 106.623 148.084" style="fill: rgb(255, 255, 255); stroke: rgb(255, 247, 247);"/>
  <path class="st1" d="M 86.5 137.5 C 108.7 137.5 126.7 155.5 126.7 177.7 C 126.7 199.9 108.7 217.9 86.5 217.9 C 80.6 217.9 75.1 216.6 70 214.4 L 57.1 222.6 L 48.4 190.6 L 48.4 190.6 C 47.1 186.6 46.3 182.3 46.3 177.8 C 46.3 155.5 64.3 137.5 86.5 137.5 L 86.5 137.5 Z M 64.3 162.7 C 59.2 167.8 56.6 174.6 56.6 181.3 C 56.6 188 59.2 194.8 64.3 199.9 C 69.4 205 76.2 207.6 82.9 207.6 C 89.6 207.6 96.4 205 101.5 199.9 C 105.7 195.7 108.2 190.4 108.9 185 C 109.7 179.6 108.7 173.9 106 168.9 L 114.3 164.1 C 114.6 163.9 114.9 163.6 115 163.3 C 115.1 163 115.2 162.6 115.1 162.3 C 115 161.9 114.8 161.6 114.6 161.4 C 114.3 161.2 114 161 113.6 161 L 103.7 160.5 L 103.2 150.6 C 103.2 150.2 103 149.9 102.8 149.6 C 102.6 149.3 102.3 149.1 101.9 149.1 C 101.5 149 101.2 149 100.9 149.2 C 100.6 149.3 100.3 149.6 100.1 149.9 L 95.3 158.2 C 90.3 155.5 84.7 154.6 79.2 155.3 C 73.8 156 68.5 158.5 64.3 162.7 L 64.3 162.7 Z M 90.8 165.2 C 86.3 165.2 82.6 168.9 82.6 173.4 C 82.6 177.9 86.3 181.6 90.8 181.6 C 95.3 181.6 99 177.9 99 173.4 C 98.9 168.9 95.3 165.2 90.8 165.2 Z"/>
</svg>