<?xml version="1.0" encoding="utf-8"?>
<svg viewBox="46.3 137.5 267.4 85.1" width="267.4" height="85.1" xmlns="http://www.w3.org/2000/svg">
  <defs>
    <style type="text/css">
	.st0{fill-rule:evenodd;clip-rule:evenodd;fill:#333333;}
	.st1{fill-rule:evenodd;clip-rule:evenodd;fill:#FF9100;}
</style>
  </defs>
  <path d="M 92.32717504917328 142.84351468169137 C 101.21648833041506 143.63430652350667 107.08201222950689 147.05389222817837 112.63805389404297 154.18203735351562 C 114.57374807088688 156.66544367836107 117.02297261196469 159.083988250776 117.83417510986328 162.21893310546875 C 119.65844922187999 169.2689591542432 118.36373164020095 177.19089336044186 116.72872161865234 184.11871337890625 C 115.94866255854416 187.42395842387756 116.33818977522587 191.48304839540705 114.50209045410156 194.46084594726562 C 110.85750788352472 200.37165313037846 102.67878500258324 204.15997646444782 96.58489227294922 207.1436004638672 C 86.08532709123962 212.28428082197027 68.18328142178095 212.54754317688787 59.44655227661133 204.37554931640625 C 55.79469758311772 200.95974763150448 55.05340298708484 196.65966334594887 53.69032669067383 192.19097900390625 C 49.889290312907214 179.7297310241832 52.02367569619384 165.45892778761325 60.90476608276367 155.6284637451172 C 66.40488303398281 149.54039352344188 72.37260420765098 150.12766630228808 79.32703399658203 147.80970764160156 C 81.74994405037383 147.00213527208967 83.76300840118462 145.52340986832172 86.09241485595703 144.56704711914062 C 88.16015744632966 143.7181132698005 91.97281480583861 144.045938151991 93.34124755859375 142.53594970703125" style="stroke: rgb(0, 0, 0); fill: rgb(255, 255, 255);"/>
  <g>
    <path class="st0" d="M155,197.2c5.6,0,10.7-2.4,14.4-6.1l-4-3.9c-2.6,2.8-6.3,4.7-10.3,4.7c-7.8,0-14.4-6.8-14.4-14.9 c0-8.1,6.6-14.9,14.4-14.9c4,0,7.7,1.9,10.3,4.7l4-3.9c-3.7-3.8-8.8-6.1-14.4-6.1c-11,0-20.3,9.2-20.3,20.2 C134.7,188,144.1,197.2,155,197.2L155,197.2z M202.3,157.5V174H181v-16.5h-5.7v39.1h5.7v-17.2h21.3v17.2h5.7v-39.1H202.3 L202.3,157.5z M216.6,196.6h5.7v-39.1h-5.7V196.6L216.6,196.6z M231,196.6h5.7v-39.1H231V196.6L231,196.6z M276.2,170.2 c0-7.4-6.3-12.7-14.5-12.7h-16.4v39.1h5.7V183h9l9.5,13.6h6.6l-9.9-14.2C272.1,180.9,276.2,176.3,276.2,170.2L276.2,170.2z M251,162.8h9.9c5.6,0,9.4,2.8,9.4,7.4c0,4.6-3.8,7.4-9.4,7.4H251V162.8L251,162.8z M282.8,196.6h5.7V183h10.7 c8.2,0,14.5-5.3,14.5-12.7c0-7.4-6.3-12.7-14.5-12.7h-16.4V196.6L282.8,196.6z M288.5,177.6v-14.8h9.9c5.6,0,9.4,2.8,9.4,7.4 c0,4.6-3.8,7.4-9.4,7.4H288.5z"/>
    <path class="st1" d="M86.5,137.5c22.2,0,40.2,18,40.2,40.2s-18,40.2-40.2,40.2c-5.9,0-11.4-1.3-16.5-3.5l-12.9,8.2l-8.7-32l0,0 c-1.3-4-2.1-8.3-2.1-12.8C46.3,155.5,64.3,137.5,86.5,137.5L86.5,137.5z M64.3,162.7c-5.1,5.1-7.7,11.9-7.7,18.6 c0,6.7,2.6,13.5,7.7,18.6c5.1,5.1,11.9,7.7,18.6,7.7s13.5-2.6,18.6-7.7c4.2-4.2,6.7-9.5,7.4-14.9c0.8-5.4-0.2-11.1-2.9-16.1 l8.3-4.8c0.3-0.2,0.6-0.5,0.7-0.8c0.1-0.3,0.2-0.7,0.1-1c-0.1-0.4-0.3-0.7-0.5-0.9c-0.3-0.2-0.6-0.4-1-0.4l-9.9-0.5l-0.5-9.9 c0-0.4-0.2-0.7-0.4-1c-0.2-0.3-0.5-0.5-0.9-0.5c-0.4-0.1-0.7-0.1-1,0.1c-0.3,0.1-0.6,0.4-0.8,0.7l-4.8,8.3 c-5-2.7-10.6-3.6-16.1-2.9C73.8,156,68.5,158.5,64.3,162.7L64.3,162.7z M90.8,165.2c-4.5,0-8.2,3.7-8.2,8.2c0,4.5,3.7,8.2,8.2,8.2 c4.5,0,8.2-3.7,8.2-8.2C98.9,168.9,95.3,165.2,90.8,165.2z"/>
  </g>
</svg>