<?xml version="1.0" encoding="utf-8"?>
<svg viewBox="46.3 137.5 267.4 85.1" width="267.4" height="85.1" xmlns="http://www.w3.org/2000/svg">
  <defs>
    <style type="text/css">
	.st0{fill-rule:evenodd;clip-rule:evenodd;fill:#333333;}
	.st1{fill-rule:evenodd;clip-rule:evenodd;fill:#FF9100;}
</style>
  </defs>
  <path class="st0" d="M 155 197.2 C 160.6 197.2 165.7 194.8 169.4 191.1 L 165.4 187.2 C 162.8 190 159.1 191.9 155.1 191.9 C 147.3 191.9 140.7 185.1 140.7 177 C 140.7 168.9 147.3 162.1 155.1 162.1 C 159.1 162.1 162.8 164 165.4 166.8 L 169.4 162.9 C 165.7 159.1 160.6 156.8 155 156.8 C 144 156.8 134.7 166 134.7 177 C 134.7 188 144.1 197.2 155 197.2 L 155 197.2 Z M 202.3 157.5 L 202.3 174 L 181 174 L 181 157.5 L 175.3 157.5 L 175.3 196.6 L 181 196.6 L 181 179.4 L 202.3 179.4 L 202.3 196.6 L 208 196.6 L 208 157.5 L 202.3 157.5 L 202.3 157.5 Z M 216.6 196.6 L 222.3 196.6 L 222.3 157.5 L 216.6 157.5 L 216.6 196.6 L 216.6 196.6 Z M 231 196.6 L 236.7 196.6 L 236.7 157.5 L 231 157.5 L 231 196.6 L 231 196.6 Z M 276.2 170.2 C 276.2 162.8 269.9 157.5 261.7 157.5 L 245.3 157.5 L 245.3 196.6 L 251 196.6 L 251 183 L 260 183 L 269.5 196.6 L 276.1 196.6 L 266.2 182.4 C 272.1 180.9 276.2 176.3 276.2 170.2 L 276.2 170.2 Z M 251 162.8 L 260.9 162.8 C 266.5 162.8 270.3 165.6 270.3 170.2 C 270.3 174.8 266.5 177.6 260.9 177.6 L 251 177.6 L 251 162.8 L 251 162.8 Z M 282.8 196.6 L 288.5 196.6 L 288.5 183 L 299.2 183 C 307.4 183 313.7 177.7 313.7 170.3 C 313.7 162.9 307.4 157.6 299.2 157.6 L 282.8 157.6 L 282.8 196.6 L 282.8 196.6 Z M 288.5 177.6 L 288.5 162.8 L 298.4 162.8 C 304 162.8 307.8 165.6 307.8 170.2 C 307.8 174.8 304 177.6 298.4 177.6 L 288.5 177.6 Z" style="fill: rgb(255, 255, 255);"/>
  <path d="M 98.52754386970805 210.0875462974847 C 94.35481951867533 211.5853945574557 89.73257965132908 211.8775383169351 85.3357925415039 211.86904907226562 C 80.12956028301666 211.85899696413657 74.03175487581419 212.53902316834763 68.95836639404297 210.84515380859375 C 67.41839950796306 210.33099985946512 66.03719160782168 208.2415616000856 64.80775451660156 207.21730041503906 C 62.79119249710489 205.53727447588372 60.14499941777216 203.58233117928017 58.73414611816406 201.33824157714844 C 55.8717903503299 196.78540619874113 55.6993455999958 190.97273540141433 54.379150390625 185.89234924316406 C 52.80940429521361 179.8516392947495 50.872595190057105 171.6526470168136 53.85835647583008 165.66598510742188 C 58.88237965621225 155.59246437781388 67.19300691594408 153.55419432827762 76.9913330078125 150.55613708496094 C 85.80298324569468 147.85997943787262 96.0794784644014 146.1456873746812 105.36662292480469 147.19163513183594 C 107.76485939469427 147.46173215331575 110.27364951835963 150.22563026061067 111.94235229492188 151.79327392578125 C 113.53176118883725 153.28642586326728 115.50100627356699 154.4709586461708 116.67762756347656 156.3536376953125 C 119.12412207629066 160.26820562181092 118.88005934734761 165.04656531309422 119.00054931640625 169.47463989257812 C 119.13960078394251 174.58486004988933 119.74323741597169 179.72138767487493 118.92390441894531 184.8006591796875 C 118.38667919905949 188.13106667082494 117.38336008158608 191.14614514741075 116.04481506347656 194.23385620117188 C 114.40820892240758 198.00912472338348 111.32678449876089 199.75249012578342 108.21918487548828 202.10272216796875 C 105.8236521377885 203.9144284624614 103.14194961781922 205.12079717348445 100.68538665771484 206.82325744628906 C 100.24405781761556 207.12910949637455 98.77078807067753 208.79342651367188 98.43026733398438 208.79342651367188" style="stroke: rgb(0, 0, 0); fill: rgb(255, 255, 255);"/>
  <path class="st1" d="M 86.5 137.5 C 108.7 137.5 126.7 155.5 126.7 177.7 C 126.7 199.9 108.7 217.9 86.5 217.9 C 80.6 217.9 75.1 216.6 70 214.4 L 57.1 222.6 L 48.4 190.6 L 48.4 190.6 C 47.1 186.6 46.3 182.3 46.3 177.8 C 46.3 155.5 64.3 137.5 86.5 137.5 L 86.5 137.5 Z M 64.3 162.7 C 59.2 167.8 56.6 174.6 56.6 181.3 C 56.6 188 59.2 194.8 64.3 199.9 C 69.4 205 76.2 207.6 82.9 207.6 C 89.6 207.6 96.4 205 101.5 199.9 C 105.7 195.7 108.2 190.4 108.9 185 C 109.7 179.6 108.7 173.9 106 168.9 L 114.3 164.1 C 114.6 163.9 114.9 163.6 115 163.3 C 115.1 163 115.2 162.6 115.1 162.3 C 115 161.9 114.8 161.6 114.6 161.4 C 114.3 161.2 114 161 113.6 161 L 103.7 160.5 L 103.2 150.6 C 103.2 150.2 103 149.9 102.8 149.6 C 102.6 149.3 102.3 149.1 101.9 149.1 C 101.5 149 101.2 149 100.9 149.2 C 100.6 149.3 100.3 149.6 100.1 149.9 L 95.3 158.2 C 90.3 155.5 84.7 154.6 79.2 155.3 C 73.8 156 68.5 158.5 64.3 162.7 L 64.3 162.7 Z M 90.8 165.2 C 86.3 165.2 82.6 168.9 82.6 173.4 C 82.6 177.9 86.3 181.6 90.8 181.6 C 95.3 181.6 99 177.9 99 173.4 C 98.9 168.9 95.3 165.2 90.8 165.2 Z"/>
</svg>