<?xml version="1.0" encoding="utf-8"?>
<svg xmlns="http://www.w3.org/2000/svg">
  <polygon points="39.2 19.2 52 19.2 52 6 56.5 6 56.5 35.9 52 35.9 52 23.4 39.2 23.4 39.2 35.9 34.6 35.9 34.6 6 39.2 6" style="fill: rgb(255, 255, 255);"/>
  <path d="M 64.9 26.5 C 64.9 28.4 65.4 29.9 66.4 31 C 67.4 32.1 68.8 32.7 70.5 32.7 C 72.2 32.7 73.6 32.2 74.6 31.1 C 75.6 30 76.1 28.5 76.1 26.7 C 76.1 24.9 75.6 23.4 74.6 22.3 C 73.6 21.2 72.2 20.6 70.5 20.6 C 68.8 20.6 67.5 21.2 66.5 22.3 C 65.4 23.3 64.9 24.7 64.9 26.5 L 64.9 26.5 Z M 60.4 26.4 C 60.4 23.7 61.4 21.4 63.3 19.5 C 65.2 17.6 67.6 16.6 70.4 16.6 C 73.2 16.6 75.6 17.6 77.6 19.5 C 79.5 21.4 80.5 23.8 80.5 26.6 C 80.5 29.4 79.5 31.8 77.6 33.7 C 75.6 35.6 73.2 36.5 70.4 36.5 C 67.6 36.5 65.2 35.5 63.3 33.6 C 61.4 31.7 60.4 29.3 60.4 26.4 L 60.4 26.4 Z" style="fill: rgb(255, 255, 255);"/>
  <path d="M 88.7 17.1 L 88.7 27.9 C 88.7 31 89.9 32.6 92.4 32.6 C 94.9 32.6 96.1 31 96.1 27.9 L 96.1 17.1 L 100.5 17.1 L 100.5 28 C 100.5 29.5 100.3 30.8 99.9 31.9 C 99.5 32.9 98.9 33.8 98 34.6 C 96.5 35.9 94.7 36.5 92.4 36.5 C 90.1 36.5 88.3 35.9 86.8 34.6 C 85.9 33.8 85.3 32.9 84.9 31.9 C 84.5 31 84.4 29.7 84.4 28 L 84.4 17.1 L 88.7 17.1 L 88.7 17.1 Z" style="fill: rgb(255, 255, 255);"/>
  <path d="M 116.6 20.3 L 113 22.2 C 112.4 21 111.7 20.5 110.9 20.5 C 110.5 20.5 110.2 20.6 109.9 20.9 C 109.6 21.2 109.5 21.5 109.5 21.9 C 109.5 22.6 110.3 23.3 112 24 C 114.3 25 115.9 25.9 116.7 26.7 C 117.5 27.5 117.9 28.7 117.9 30.1 C 117.9 31.9 117.2 33.4 115.9 34.7 C 114.6 35.9 113 36.4 111.2 36.4 C 108 36.4 105.8 34.9 104.5 31.8 L 108.2 30.1 C 108.7 31 109.1 31.6 109.4 31.8 C 109.9 32.3 110.6 32.5 111.3 32.5 C 112.8 32.5 113.5 31.8 113.5 30.5 C 113.5 29.7 112.9 29 111.8 28.3 C 111.4 28.1 110.9 27.9 110.5 27.7 C 110.1 27.5 109.6 27.3 109.2 27.1 C 107.9 26.5 107 25.9 106.5 25.2 C 105.8 24.4 105.5 23.4 105.5 22.2 C 105.5 20.6 106.1 19.2 107.2 18.1 C 108.3 17 109.7 16.5 111.4 16.5 C 113.6 16.6 115.4 17.8 116.6 20.3 L 116.6 20.3 Z" style="fill: rgb(255, 255, 255);"/>
  <path d="M 135.3 24 C 134.7 21.7 133.2 20.5 130.9 20.5 C 130.4 20.5 129.9 20.6 129.4 20.7 C 128.9 20.9 128.5 21.1 128.1 21.4 C 127.7 21.7 127.4 22.1 127.1 22.5 C 126.8 22.9 126.6 23.4 126.5 24 L 135.3 24 L 135.3 24 Z M 139.7 27.6 L 126.2 27.6 C 126.3 29.1 126.8 30.4 127.7 31.3 C 128.6 32.2 129.7 32.7 131.1 32.7 C 132.2 32.7 133.1 32.4 133.8 31.9 C 134.5 31.4 135.3 30.4 136.2 29 L 139.9 31.1 C 139.3 32.1 138.7 32.9 138.1 33.6 C 137.5 34.3 136.8 34.9 136.1 35.3 C 135.4 35.7 134.6 36.1 133.8 36.3 C 133 36.5 132.1 36.6 131.1 36.6 C 128.3 36.6 126 35.7 124.3 33.9 C 122.6 32.1 121.7 29.7 121.7 26.7 C 121.7 23.7 122.5 21.3 124.2 19.5 C 125.9 17.7 128.1 16.8 130.8 16.8 C 133.6 16.8 135.8 17.7 137.4 19.5 C 139 21.3 139.8 23.7 139.8 26.8 L 139.7 27.6 L 139.7 27.6 Z" style="fill: rgb(255, 255, 255);"/>
  <path d="M 166.9 26.5 C 166.9 28.3 167.4 29.8 168.4 30.9 C 169.4 32 170.6 32.6 172.2 32.6 C 173.8 32.6 175.1 32 176.1 30.9 C 177.1 29.8 177.6 28.3 177.6 26.5 C 177.6 24.7 177.1 23.3 176.1 22.1 C 175.1 21 173.8 20.4 172.2 20.4 C 170.7 20.4 169.5 21 168.4 22.1 C 167.4 23.4 166.9 24.8 166.9 26.5 L 166.9 26.5 Z M 177.3 17.1 L 181.7 17.1 L 181.7 35.9 L 177.3 35.9 L 177.3 33.9 C 175.5 35.6 173.6 36.4 171.5 36.4 C 168.9 36.4 166.7 35.5 165 33.6 C 163.3 31.7 162.5 29.3 162.5 26.4 C 162.5 23.6 163.3 21.2 165 19.3 C 166.7 17.4 168.8 16.5 171.3 16.5 C 173.5 16.5 175.5 17.4 177.2 19.2 L 177.2 17.1 L 177.3 17.1 Z" style="fill: rgb(255, 255, 255);"/>
  <polygon points="190.9 6 190.9 36 186.6 36 186.6 6" style="fill: rgb(255, 255, 255);"/>
  <polygon points="200.3 6 200.3 36 195.9 36 195.9 6" style="fill: rgb(255, 255, 255);"/>
  <path d="M 218.1 19.6 L 219.8 19.6 C 223.9 19.6 226 18 226 14.8 C 226 11.7 223.9 10.2 219.6 10.2 L 218.1 10.2 L 218.1 19.6 L 218.1 19.6 Z M 218.1 23.8 L 218.1 35.9 L 213.6 35.9 L 213.6 6 L 218.7 6 C 221.2 6 223.1 6.2 224.4 6.5 C 225.7 6.8 226.8 7.5 227.8 8.5 C 229.5 10.2 230.4 12.3 230.4 14.8 C 230.4 17.5 229.5 19.7 227.7 21.3 C 225.9 22.9 223.4 23.7 220.3 23.7 L 218.1 23.8 L 218.1 23.8 Z" style="fill: rgb(255, 255, 255);"/>
  <path d="M 234.1 17.1 L 238.5 17.1 L 238.5 18.8 C 239.3 18 240 17.4 240.6 17.1 C 241.2 16.8 242 16.6 242.8 16.6 C 243.9 16.6 245.1 17 246.4 17.7 L 244.4 21.7 C 243.6 21.1 242.8 20.8 242 20.8 C 239.6 20.8 238.4 22.6 238.4 26.2 L 238.4 36 L 234 36 L 234.1 17.1 L 234.1 17.1 Z" style="fill: rgb(255, 255, 255);"/>
  <path d="M 252.2 26.5 C 252.2 28.4 252.7 29.9 253.7 31 C 254.7 32.1 256.1 32.7 257.8 32.7 C 259.5 32.7 260.9 32.2 261.9 31.1 C 262.9 30 263.4 28.5 263.4 26.7 C 263.4 24.9 262.9 23.4 261.9 22.3 C 260.9 21.2 259.5 20.6 257.8 20.6 C 256.1 20.6 254.8 21.2 253.8 22.3 C 252.7 23.3 252.2 24.7 252.2 26.5 L 252.2 26.5 Z M 247.7 26.4 C 247.7 23.7 248.7 21.4 250.6 19.5 C 252.5 17.6 254.9 16.6 257.7 16.6 C 260.5 16.6 262.9 17.6 264.9 19.5 C 266.8 21.4 267.8 23.8 267.8 26.6 C 267.8 29.4 266.8 31.8 264.9 33.7 C 262.9 35.6 260.5 36.5 257.7 36.5 C 254.9 36.5 252.5 35.5 250.6 33.6 C 248.7 31.7 247.7 29.3 247.7 26.4 L 247.7 26.4 Z" style="fill: rgb(255, 255, 255);"/>
  <path d="M 154 20.5 C 154.2 20.5 154.4 20.5 154.6 20.5 C 154.3 20.5 154.2 20.5 154 20.5 L 154 20.5 Z" style="fill: rgb(255, 255, 255);"/>
  <path d="M 153.7 20.5 L 153.8 20.5 L 153.8 20.5 L 153.9 20.5 C 154.1 20.5 154.3 20.5 154.5 20.5 C 156.1 20.6 157.7 21 159.1 21.8 L 159.1 17.9 C 157.4 17 155.7 16.6 153.8 16.6 C 150.9 16.6 148.5 17.6 146.5 19.5 C 144.5 21.4 143.5 23.8 143.5 26.6 C 143.5 29.4 144.5 31.8 146.4 33.7 C 148.4 35.6 150.8 36.5 153.7 36.5 C 155.5 36.5 157.2 36 159 35.1 L 159 31.2 C 157.5 32 155.9 32.4 154.4 32.5 C 154.1 32.5 153.8 32.6 153.5 32.6 C 151.9 32.6 150.5 32 149.5 30.9 C 148.5 29.8 147.9 28.3 147.9 26.5 C 147.9 24.8 148.4 23.3 149.5 22.2 C 150.8 21.1 152.1 20.5 153.7 20.5 L 153.7 20.5 Z" style="fill: rgb(255, 255, 255);"/>
  <polygon points="1 8.9 1 33.1 12.8 39.4 12.8 36 12.8 32.3 12.8 9.9 12.8 6.2 12.8 2" style="fill: rgb(255, 255, 255);"/>
  <polygon points="21.1 35.9 16.2 35.9 16.2 33.1 18.3 33.1 18.4 8.8 16.2 8.8 16.2 6 21.2 6" style="fill: rgb(255, 255, 255);"/>
  <path d="M 153.9 20.5 L 153.9 20.5 L 153.9 20.5 L 153.9 20.5 L 153.9 20.5 Z"/>
</svg>
