<svg id="Layer_1" data-name="Layer 1" xmlns="http://www.w3.org/2000/svg" viewBox="0 0 204 203.99"><defs><style>.cls-1,.cls-2,.cls-3,.cls-6{fill:#ccc;}.cls-1,.cls-4{opacity:0.2;}.cls-2{opacity:0.4;}.cls-3{opacity:0.6;}.cls-5{fill:#fff;}</style></defs><title>jotform-logomark-transparent</title><path class="cls-1" d="M139-221.42a97.43,97.43,0,0,0-10.21.54l-9.46,34.93L111.77-64,137.31-183.4,148.17-221C145.15-221.26,142.1-221.42,139-221.42Z" transform="translate(-37 226.99)"/><path class="cls-2" d="M167.84-217A96,96,0,0,0,148.17-221L137.31-183.4,111.77-64l44.08-113Z" transform="translate(-37 226.99)"/><path class="cls-3" d="M184.29-210.12a95.8,95.8,0,0,0-16.45-6.9l-12,40L111.77-64l18.06-29.83,42.77-74.75Z" transform="translate(-37 226.99)"/><g class="cls-4"><path class="cls-5" d="M186.2-212.46h0Z" transform="translate(-37 226.99)"/></g><path class="cls-6" d="M186.2-214.46h0Z" transform="translate(-37 226.99)"/><path class="cls-6" d="M236.72-154.33a102.82,102.82,0,0,0-36.4-52.15,102.4,102.4,0,0,0-13.12-8.41c-5.68-3.46-12.42-5.87-18.76-7.78a100.56,100.56,0,0,0-19.52-3.84,102.62,102.62,0,0,0-35.51,2.75,102.61,102.61,0,0,0-50.53,30.91,102.19,102.19,0,0,0-24.95,53.91,102.32,102.32,0,0,0,9.89,59.67,103.11,103.11,0,0,0,39.8,42.36,102.22,102.22,0,0,0,58.18,13.68,102.09,102.09,0,0,0,55.37-21,102.84,102.84,0,0,0,34.15-47.2A102.43,102.43,0,0,0,236.72-154.33ZM125.94-99.9l-6-1.66-5.87-.28,5.06-81.3,17.5,2.48,18.11,6.22,16.44,8.24-40,69.88Zm2.43,8.42L111.77-64l2-32.22,5,.2,4.78,1.32Zm38-125.75-11.12,37-15.56-5.37,10.25-35A97.2,97.2,0,0,1,166.35-217.23ZM158-179.07l11.18-37.28A93.31,93.31,0,0,1,184.27-210l-10.9,38.6Zm-29.24-41.5a98.7,98.7,0,0,1,17.82-.25l-9.95,34.55-16.59-2.26,8.72-32ZM235.29-120.3A97.14,97.14,0,0,1,189.76-43,96.57,96.57,0,0,1,139-28.61,96.61,96.61,0,0,1,86.18-44.36,97.13,97.13,0,0,1,51.32-84.88a97,97,0,0,1-7.47-55.73A96.53,96.53,0,0,1,68.27-190.5a96.81,96.81,0,0,1,47.36-28q3.53-.88,7.12-1.49l-8.83,32.62a5.6,5.6,0,0,0-.18,1.12l-5.41,86.88-2.16,35c-.35,5.69,7.43,8.14,10.39,3.25L134.63-91l.07-.12,42.77-74.75a5.6,5.6,0,0,0,.53-1.26l11.31-40.14A97.23,97.23,0,0,1,235.29-120.3Z" transform="translate(-37 226.99)"/><g class="cls-4"><path class="cls-5" d="M186.18-212.47Z" transform="translate(-37 226.99)"/></g><path class="cls-6" d="M186.18-214.47Z" transform="translate(-37 226.99)"/></svg>