<?xml version="1.0" encoding="utf-8"?>
<svg version="1.1" id="Layer_1" x="0px" y="0px" viewBox="0 0 501.5 77" style="enable-background:new 0 0 501.5 77;" xmlns="http://www.w3.org/2000/svg">
  <style type="text/css">
	.st0{fill:#222C36;}
	.st1{fill:#3FA3DB;}
</style>
  <path class="st0" d="M29.6,22.2h11.7v36.2H29.6V54c-3.2,4.9-7.7,5.6-10.7,5.6c-5.2,0-9.6-1.3-13.6-5.5C1.5,50,0,45.3,0,40.5 c0-6.1,2.3-11.3,5.6-14.6c3.2-3.2,7.5-5,12.6-5c3.1,0,8,0.7,11.4,5.3L29.6,22.2L29.6,22.2z M14.7,33.6c-1.2,1.2-2.7,3.3-2.7,6.6 c0,3.2,1.4,5.4,2.4,6.5c1.6,1.7,4.1,2.8,6.9,2.8c2.4,0,4.5-1,6.1-2.5c1.5-1.5,2.8-3.7,2.8-6.8c0-2.6-1-5-2.7-6.7 C25.7,31.8,23.1,31,21,31C18.6,31.1,16.3,32.1,14.7,33.6z" style="fill: rgb(255, 255, 255);"/>
  <path class="st0" d="M93.3,31.6v26.8H81.6V10.5h11.7v11.7h7.2v9.4L93.3,31.6L93.3,31.6z" style="fill: rgb(255, 255, 255);"/>
  <path class="st0" d="M111.5,0c3.8,0,6.8,3,6.8,6.8s-3,6.8-6.8,6.8s-6.8-3-6.8-6.8S107.6,0,111.5,0z M117.3,22.2v36.2h-11.7V22.2 H117.3z" style="fill: rgb(255, 255, 255);"/>
  <path class="st0" d="M202.8,42.3h-27c0,1.9,0.7,4.5,2.2,6.2c1.8,1.9,4.2,2.3,6,2.3c1.7,0,3.5-0.3,4.7-1.1c0.2-0.1,1.5-1,2.5-3 l11,1.1c-1.6,5.1-4.9,7.8-7,9.1c-3.5,2.1-7.4,2.7-11.4,2.7c-5.4,0-10.2-1-14.5-5.2c-3.2-3.2-5.4-8-5.4-14c0-5.2,1.9-10.6,5.5-14.3 c4.4-4.4,9.8-5.2,13.9-5.2s9.9,0.7,14.4,5.4c4.3,4.5,5.1,10.2,5.1,14.7L202.8,42.3L202.8,42.3z M192,35.4c-0.1-0.3-0.6-2.6-2.4-4.2 c-1.3-1.2-3.2-2-5.5-2c-3,0-4.8,1.2-5.9,2.4c-0.9,1-1.7,2.3-2,3.9L192,35.4L192,35.4z" style="fill: rgb(255, 255, 255);"/>
  <path class="st0" d="M218.6,77h-11.7V22.2h11.7v4.3c3.8-5,8.5-5.5,11.3-5.5c6.5,0,10.6,2.8,12.8,5.1c3.2,3.2,5.4,8.2,5.4,14.1 c0,6.3-2.2,11-5.8,14.5c-3.6,3.6-7.5,4.9-12.3,4.9c-7.2,0-10.3-3.7-11.5-5.4V77H218.6z M220.6,33.7c-1.9,1.9-2.8,4.5-2.8,6.7 c0,2.3,0.9,4.6,2.6,6.4c1.7,1.7,4.1,2.8,6.7,2.8c2.2,0,4.5-0.9,6.3-2.5c1.9-1.8,2.8-4.5,2.8-6.9c0-2.7-1.1-5-2.8-6.6 c-1.7-1.6-4-2.5-6.3-2.5C223.8,31.1,221.7,32.6,220.6,33.7z" style="fill: rgb(255, 255, 255);"/>
  <path class="st0" d="M252.3,22.2H264v5.7c1.1-2,2.7-3.9,4.5-5c1.9-1.2,4-1.5,6.3-1.5c1.5,0,2.5,0.2,3.8,0.6L278,33 c-1.5-0.8-3.2-1.3-5.3-1.3c-2.5,0-4.4,0.9-5.8,2.4c-2.6,2.8-2.8,6.7-2.8,9.7v14.7h-11.7V22.2H252.3z" style="fill: rgb(255, 255, 255);"/>
  <path class="st0" d="M317.7,53.8c-3.2,3.2-8.8,5.8-15.8,5.8s-12.6-2.6-15.8-5.8c-3.7-3.7-5.4-8.8-5.4-13.5c0-4.6,1.8-9.8,5.4-13.5 c3.2-3.2,8.8-5.8,15.8-5.8s12.6,2.6,15.8,5.8c3.7,3.7,5.4,8.8,5.4,13.5C323.1,44.9,321.3,50.1,317.7,53.8z M295.3,33.5 c-1.7,1.7-2.7,3.9-2.7,6.8c0,3.3,1.3,5.4,2.7,6.8c1.5,1.5,3.6,2.6,6.7,2.6c2.6,0,4.8-0.9,6.5-2.6s2.7-3.9,2.7-6.8s-1-5.1-2.7-6.8 c-1.7-1.7-3.9-2.6-6.6-2.6C299.1,30.9,297,31.8,295.3,33.5z" style="fill: rgb(255, 255, 255);"/>
  <path class="st0" d="M347.8,31.5c-1.8-1.1-4.1-2-6.4-2c-1.2,0-2.6,0.3-3.3,1.1c-0.4,0.4-0.7,1.1-0.7,1.6c0,0.8,0.6,1.3,1.1,1.6 c0.8,0.5,2,0.7,3.5,1.2l3.1,1c2,0.6,4.1,1.5,6,3.2c2.1,1.9,2.8,4.1,2.8,6.9c0,4.8-2.1,7.9-3.7,9.5c-3.6,3.6-8,4.1-11.8,4.1 c-4.9,0-10.1-1.1-14.9-5.2l5-7.9c1.1,1,2.8,2.1,4,2.7c1.6,0.8,3.3,1.1,4.9,1.1c0.7,0,2.6,0,3.7-0.8c0.7-0.6,1.2-1.5,1.2-2.4 c0-0.6-0.2-1.5-1.3-2.1c-0.8-0.5-1.9-0.8-3.6-1.3l-2.9-0.9c-2.1-0.6-4.3-1.8-5.8-3.3c-1.7-1.8-2.6-3.8-2.6-6.6 c0-3.5,1.4-6.4,3.5-8.4c3.2-3,7.6-3.7,11-3.7c5.4,0,9.1,1.4,12,3.1L347.8,31.5z" style="fill: rgb(255, 255, 255);"/>
  <path class="st0" d="M369.3,77h-11.7V22.2h11.7v4.3c3.8-5,8.5-5.5,11.3-5.5c6.5,0,10.6,2.8,12.8,5.1c3.2,3.2,5.4,8.2,5.4,14.1 c0,6.3-2.2,11-5.8,14.5s-7.5,4.9-12.3,4.9c-7.2,0-10.3-3.7-11.5-5.4L369.3,77L369.3,77z M371.3,33.7c-1.9,1.9-2.8,4.5-2.8,6.7 c0,2.3,0.9,4.6,2.6,6.4c1.7,1.7,4.1,2.8,6.7,2.8c2.2,0,4.5-0.9,6.3-2.5c1.9-1.8,2.8-4.5,2.8-6.9c0-2.7-1.1-5-2.8-6.6s-4-2.5-6.3-2.5 C374.5,31.1,372.4,32.6,371.3,33.7z" style="fill: rgb(255, 255, 255);"/>
  <path class="st0" d="M441.7,42.3h-27c0,1.9,0.7,4.5,2.2,6.2c1.8,1.9,4.2,2.3,6,2.3c1.7,0,3.5-0.3,4.7-1.1c0.2-0.1,1.5-1,2.5-3 l11,1.1c-1.6,5.1-4.9,7.8-7,9.1c-3.5,2.1-7.4,2.7-11.4,2.7c-5.4,0-10.2-1-14.5-5.2c-3.2-3.2-5.4-8-5.4-14c0-5.2,1.9-10.6,5.5-14.3 c4.4-4.4,9.8-5.2,13.9-5.2c4.1,0,9.9,0.7,14.4,5.4c4.3,4.5,5.1,10.2,5.1,14.7V42.3z M430.9,35.4c-0.1-0.3-0.6-2.6-2.4-4.2 c-1.3-1.2-3.2-2-5.5-2c-3,0-4.8,1.2-5.9,2.4c-0.9,1-1.7,2.3-2,3.9L430.9,35.4L430.9,35.4z" style="fill: rgb(255, 255, 255);"/>
  <path class="st0" d="M494.3,31.6v26.8h-11.7V10.5h11.7v11.7h7.2v9.4L494.3,31.6L494.3,31.6z" style="fill: rgb(255, 255, 255);"/>
  <path class="st0" d="M44.7,40.3c0-10.8,8.1-19.1,19.1-19.1c6.1,0,11.1,2.5,14.2,6.6c-0.9,0.9-5.9,6.1-6.6,6.8c-2-2-4.2-3.1-7.2-3.1 c-5.8,0-8.9,3.4-8.9,8.8s3,9.1,9.1,9.1c2.8,0,5-1,7-3.1c1.2,1.2,5.7,5.9,6.6,6.8c-3.1,4-8.1,6.6-14,6.6 C52.9,59.6,44.7,51.3,44.7,40.3z" style="fill: rgb(255, 255, 255);"/>
  <path class="st0" d="M445.6,40.2c0-10.8,8.1-19.1,19.1-19.1c6.1,0,11.1,2.5,14.2,6.6c-0.9,0.9-5.9,6.1-6.6,6.8c-2-2-4.2-3.1-7.2-3.1 c-5.8,0-8.9,3.4-8.9,8.8s3,9.1,9.1,9.1c2.8,0,5-1,7-3.1c1.2,1.2,5.7,5.9,6.6,6.8c-3.1,4-8.1,6.6-14,6.6 C453.8,59.5,445.6,51.1,445.6,40.2z" style="fill: rgb(255, 255, 255);"/>
  <path class="st0" d="M 133.8 22.2 L 139.9 35.1 L 133.8 47 L 121 22.2 L 133.8 22.2 Z" style="fill: rgb(255, 255, 255);"/>
  <path class="st1" d="M 143.5 41.8 L 158.6 10.4 L 171.4 10.4 L 147.1 58.5 L 139.8 58.5 L 137.3 53.6 L 143.5 41.8 Z"/>
</svg>