<?xml version="1.0" encoding="utf-8"?>
<svg viewBox="0 0 394 26" xmlns="http://www.w3.org/2000/svg">
  <path fill="#d71920" d="M133.335 19.026l-.97.303-9.523.012c-2.31 0-2.128-1.806-1.973-2.408.703-2.728 1.654-6.756 2.199-8.836.204-.782 1.014-1.893 2.873-1.893l9.451.002.8.68 1.653-6.46h-17.18s-4.397 0-5.637 3.878c-1.24 3.877-3.684 15.284-3.684 15.284-.061.338-1.016 5.567 4.812 5.567h14.847l2.332-6.129M168.381.426h-10.196l.398 1.127-1.83 7.062h-8.66l1.769-6.957.825-1.232h-10.069l.389 1.083-5.428 21.045-1.619 2.6h10.64s-.565-1.232-.49-2.28l1.84-6.98h8.864l-1.493 6.524-1.317 2.737h10.35s-.76-1.915-.387-3.194c.373-1.28 5.563-20.353 5.563-20.353l.851-1.182M179.802 14.058l4.946-7.045 1.47 7.045zm18.921 11.097l-1.504-3.195L192.565.426h-16.387l.563 1.004-1.956 3.936h4.93l-14.438 19.789 6.743-.004 3.801-5.423h12.29l.427 2.917-.492 2.51h10.677zM255.213 7.806s-1.595 7.36-2.533 10.19c-.33.747-.861 1.129-1.593 1.14l-7.457.002 3.425-12.857h7.061c1.356.01 1.285.607 1.096 1.525zm4.204-7.38h-20.47l.743 1.016-5.648 20.976-1.504 2.737h22.065c4.7 0 6.317-4.426 6.393-4.883.075-.456 1.878-5.93 3.494-12.91 1.617-6.98-5.073-6.936-5.073-6.936zM224.1 7.928c-.713 2.802-3.64 2.645-3.64 2.645h-5.02l1.457-5.207h4.653c.475 0 3.26-.227 2.55 2.562zm2.8 7.917s4.763-1.046 6.267-7.206c1.768-7.3-1.693-8.213-4.398-8.213h-26.454l.72 1.03-1.098 3.91h6.082l-5 16.594-1.804 3.195h11.09l-.377-2.373 2.051-7.212h3.817l2.516 9.585h9.585l-1.503-3.195z" fill-rule="evenodd"/>
  <path d="M59.359 20.392h-2.673c-.394 0-.827.362-.905.816l-.826 3.085c-.119.454.079.862.471.862H58.1c.395 0 .867-.408.945-.862l.825-3.085c.12-.454-.117-.816-.51-.816" fill="#c4232a" fill-rule="evenodd"/>
  <path d="M18.908 11.922h-5.02l1.797-6.556h4.653c.476 0 2.965-.13 2.968 2.588.005 4.192-4.398 3.968-4.398 3.968zM26.126.426H2.768l.802.883-1.401 4.057h5.085L1.69 22.554 0 25.154h11.27l-.257-2.828 1.252-4.544h11.389c4.728 0 6.864-4.414 7.922-8.597 2.406-9.535-4.511-8.76-5.45-8.76zM26.991 20.392h-2.674c-.394 0-.826.362-.904.816l-.827 3.085c-.118.454.08.862.473.862h2.673c.394 0 .866-.408.984-.862l.826-3.085c.079-.454-.157-.816-.551-.816M88.306 7.928c-.705 2.902-3.641 2.645-3.641 2.645h-5.02l1.457-5.207h4.653s3.196-.093 2.55 2.562zm9.066.71c1.768-7.3-1.69-8.212-4.397-8.212h-26.56l.793.936-.93 4.004h5.947L67.226 21.96l-1.806 3.194h11.09l-.376-2.373 2.052-7.213h3.817l2.514 9.586h9.586l-1.504-3.194-1.493-6.117s4.763-1.047 6.266-7.205zM52.952 19.347l-9.687-.006c-2.311 0-2.119-1.804-1.973-2.408.523-2.137 1.655-6.756 2.199-8.836.204-.782 1.013-1.893 2.874-1.893l9.644.002.624.748L58.268.426H41.09s-4.398 0-5.638 3.878c-1.241 3.877-3.684 15.284-3.684 15.284-.046.317-1.016 5.567 4.811 5.567h15.739l1.778-6.408-1.143.6M107.22 21.96c.075 0 5.45-20.467 5.45-20.467l.934-1.067h-10.256l.677 1.004-5.376 20.53c-.563 2.19-1.39 3.195-1.39 3.195h10.15s-.678-1.598-.189-3.194M384.49.373c.147.564.217 1.43-.107 3.12-.24 1.258-2.68 10.198-2.68 10.198L377.74.376h-11.417l.776 1.067s-3.81 16.357-5.438 21.535a7.5 7.5 0 0 1-1.102 2.177h9.578c-.27-.385-.354-.845-.006-2.114.204-.738 2.936-11.86 2.936-11.86l4.397 13.975H387.6s-.038-1.41.09-1.975c.161-1.177 5.332-21.573 5.332-21.573l.854-1.235h-9.386M354.222 8.24c-.28 1.314-2.284 8.294-2.42 8.78-.137.484-.358 2.054-1.72 2.054h-5.887c-.424 0-1.325-.487-.832-1.933.42-1.521 2.262-8.264 2.41-8.994.313-1.078.972-1.36 1.46-1.391h6.23s1.006.07.759 1.483zm5.862-7.742h-17.35c-2.579 0-3.931 2.53-4.435 4.59-1.16 4.54-2.2 7.541-3.652 12.991-1.485 5.588 1.109 7.076 2.414 7.076h17.124c1.172 0 3.885-.69 5.177-5.28.121-.418 3.088-11.888 3.365-13.13.273-1.243 1.036-6.247-2.643-6.247zM278.106 18.888c-.179.682-.204 1.163-.079 1.436.128.268.52.402 1.187.402h1.88c.814 0 1.537-.28 2.177-.845l-3.806-6.221zm19.095-13.2c-.356-.418-.83-.731-1.414-.941a5.596 5.596 0 0 0-1.875-.313h-4.285c-.562 0-1.054.058-1.483.17-.421.11-.687.376-.797.797-.061.248-.061.46 0 .634.068.176.192.435.37.782l3.863 6.593 1.791-1.49c.656-.62 1.064-1.24 1.225-1.863l.262-1.007h3.934l-.541 2.087c-.147.573-.29 1.006-.43 1.302-.14.299-.403.622-.787.971l-3.528 3.05 1.796 3.167c.292.47.61.822.945 1.042.334.223.786.337 1.353.337.735 0 1.527-.211 2.372-.627l-1.976 4.776h-8.076c-1.355 0-2.37-.113-3.051-.333-.677-.22-1.216-.762-1.605-1.622-.943.786-1.811 1.308-2.604 1.567-.79.257-1.79.388-2.995.388h-5.898c-.886 0-1.622-.051-2.213-.152a3.057 3.057 0 0 1-1.57-.775c-.454-.412-.799-.98-1.028-1.695a3.93 3.93 0 0 1-.046-2.245l1.169-4.491c.562-2.161 1.46-3.604 2.692-4.335 1.234-.73 2.924-1.095 5.061-1.095l-1.974-3.18c-.34-.58-.58-1.084-.712-1.515-.132-.436-.127-.943.022-1.518.377-1.448 1.223-2.43 2.537-2.947 1.321-.518 2.81-.777 4.483-.777h15.499l-.486 5.258zM316.841.429s-2.274.047-3.76 1.49c-1.487 1.441-1.886 2.895-2.22 4.165l-.882 3.78s-.683 2.397.455 4.366c1.138 1.969 4.055 1.75 4.6 1.75h6.734c.478 0 .757.123.821.368.064.247.06.33-.02.737l-.067.3c-.15.574-.356.872-.603 1.066-.246.194-.634.291-1.162.291h-11.409l-.785-.747-2.144 7.16h19.044s1.915-.113 3.191-1.075c1.276-.963 1.829-1.87 2.29-3.36l1.982-7.075c.33-1.459.26-2.675-.767-3.934-1.183-1.45-3.38-1.385-3.38-1.385h-7.663c-1.369 0-1.118-.726-1.118-.726l.278-1.084c.074-.278.144-.749 1.22-.749h11.856l.767.73 1.703-6.068h-18.96M389.464 23.953h.099c.14 0 .227-.006.26-.016.035-.011.062-.03.081-.057a.156.156 0 0 0 0-.18.152.152 0 0 0-.081-.056 1.167 1.167 0 0 0-.26-.017h-.099zm-.242.679v-1.195h.242c.228 0 .355.001.383.003.08.007.143.023.187.048a.299.299 0 0 1 .112.115c.03.05.045.108.045.17 0 .087-.029.16-.085.222a.384.384 0 0 1-.237.113.3.3 0 0 1 .084.045c.02.017.046.047.08.092.01.012.039.06.089.146l.14.24h-.3l-.1-.194c-.066-.13-.122-.212-.166-.246a.271.271 0 0 0-.168-.05h-.064v.49zm.51-1.508a.92.92 0 0 0-.446.116.912.912 0 0 0-.339 1.24.903.903 0 0 0 1.69-.451.913.913 0 0 0-.459-.789.924.924 0 0 0-.446-.116zm-.002-.22c.193 0 .378.048.556.145.177.096.317.234.418.415a1.13 1.13 0 0 1-.413 1.542 1.133 1.133 0 0 1-1.122 0 1.13 1.13 0 0 1 .005-1.957c.178-.097.363-.145.556-.145z" fill="#d71920" fill-rule="evenodd"/>
</svg>