<?xml version="1.0" encoding="utf-8"?>
<svg viewBox="0 0 45 45" xmlns="http://www.w3.org/2000/svg">
  <path d="M30.494 17.708c0-1.154-.806-2.623-2.695-2.624h-5.168l-3.052 7.344h5.667c4.198 0 5.248-3.567 5.248-4.72z" fill="none" fill-rule="evenodd"/>
  <path fill="#d72027" d="M44.965 22.48C44.952 10.053 34.885-.01 22.478 0A22.469 22.469 0 0 0 3 11.247h3.016a19.918 19.918 0 0 1 22.333-7.82C36.701 6.005 42.401 13.73 42.41 22.482a19.7 19.7 0 0 1-1.67 7.992H27.293a.351.351 0 0 1-.218-.116l-.042-.046-1.416-5.75.287-.03c1.561-.16 3.199-.851 4.493-1.895 1.667-1.344 2.585-3.08 2.584-4.892 0-3.74-2.875-4.901-3.923-4.901L2.17 12.839c-.194.418-.366.845-.52 1.27a22.33 22.33 0 0 0 4.937 24.26 22.481 22.481 0 0 0 34.922-3.894h-3.108a19.892 19.892 0 0 1-15.917 7.928 19.94 19.94 0 0 1-16.386-8.61A20 20 0 0 1 3.828 15.4h16.186l-7.098 17.667h2.75l3.321-8.009h2.096c1.042 0 1.782.523 2.14 1.513l.003.01 1.364 5.205v.006c.268.882.997 1.277 1.6 1.277l16.121.007c.16-.294.308-.595.444-.896h.014a22.28 22.28 0 0 0 2.196-9.702zm-22.1-7.078h4.934c1.877 0 2.374 1.508 2.375 2.304 0 .524-.262 1.65-.984 2.602-.908 1.196-2.236 1.802-3.944 1.802H20.06z"/>
  <path fill="#184891" d="M35.035 9.927c-3.202-3.233-7.896-5.166-12.558-5.204-2.725-.022-5.314.63-7.77 1.792-2.089.987-4.663 3.089-6.085 4.859H29.2c2.045 0 3.627.926 4.573 2.68.68 1.256.92 2.765.92 3.758 0 .36-.063 2.251-1.356 4.197-1.294 1.945-3.287 3.21-5.948 3.782l.903 3.385h10.639c.903-2.12 1.244-4.374 1.308-6.699.123-4.591-1.936-9.248-5.204-12.55z"/>
  <path fill="#184891" d="M28.314 18.099c0-.313-.254-1.038-1.39-1.038H24.02l-1.487 3.614h2.818c2.235 0 2.962-1.99 2.962-2.576zM23.482 33.23v-.007l-1.712-6.289c-.098-.279-.406-.586-.682-.586h-.75l-3.36 8.009h-6.153L17.75 17.01H5.668a17.112 17.112 0 0 0-.877 5.465c0 4.57 1.95 9.274 5.184 12.508 3.234 3.233 7.936 5.182 12.51 5.183 4.67 0 9.845-2.468 13.064-5.806H24.793c-.614 0-1.089-.413-1.311-1.13z"/>
</svg>