<svg width="650" height="148" viewBox="0 0 650 148" fill="none" xmlns="http://www.w3.org/2000/svg">
<path d="M198.892 39.2479C204.819 39.2479 209.518 40.9482 212.988 44.3488C216.53 47.7494 218.301 52.5247 218.301 58.6747C218.301 60.99 218.12 63.0882 217.759 64.9694L211.47 100.241H196.398L202.253 67.0315C202.47 65.7291 202.578 64.4629 202.578 63.2329C202.578 59.6153 201.602 56.8659 199.651 54.9847C197.771 53.1035 195.06 52.1629 191.518 52.1629C187.47 52.1629 184.037 53.3929 181.217 55.8529C178.398 58.2406 176.519 61.6773 175.579 66.1632L169.507 100.241H154.218L168.422 19.9297H183.711L178.832 47.4962C181.29 44.9638 184.253 42.9741 187.723 41.527C191.265 40.0076 194.988 39.2479 198.892 39.2479Z" fill="black"/>
<path d="M248.459 101.218C243.327 101.218 238.773 100.169 234.797 98.0711C230.893 95.9729 227.857 93.0064 225.688 89.1717C223.52 85.337 222.436 80.9235 222.436 75.9311C222.436 69.1299 224.026 62.9438 227.207 57.3726C230.459 51.7291 234.869 47.2794 240.435 44.0235C246.074 40.7676 252.327 39.1396 259.194 39.1396C264.326 39.1396 268.88 40.2249 272.856 42.3955C276.904 44.4938 280.013 47.4602 282.181 51.2949C284.422 55.1297 285.543 59.5432 285.543 64.5355C285.543 71.4091 283.916 77.6314 280.663 83.2026C277.41 88.7738 272.929 93.1873 267.218 96.4432C261.579 99.6267 255.326 101.218 248.459 101.218ZM250.519 88.1949C254.134 88.1949 257.423 87.1458 260.387 85.0476C263.35 82.9494 265.664 80.1638 267.326 76.6908C268.989 73.2179 269.82 69.5641 269.82 65.7294C269.82 61.3882 268.591 58.0599 266.134 55.7446C263.748 53.357 260.712 52.1632 257.025 52.1632C253.339 52.1632 250.049 53.2123 247.158 55.3105C244.339 57.4088 242.134 60.2305 240.544 63.7758C238.953 67.2488 238.158 70.9388 238.158 74.8458C238.158 79.1146 239.279 82.4067 241.52 84.722C243.833 87.0373 246.833 88.1949 250.519 88.1949Z" fill="black"/>
<path d="M330.4 39.248C336.617 39.248 341.496 40.9483 345.039 44.3489C348.653 47.6772 350.46 52.4525 350.46 58.6748C350.46 60.9901 350.279 63.0883 349.918 64.9695L343.629 100.242H328.557L334.412 67.0316C334.629 65.7292 334.737 64.463 334.737 63.233C334.737 59.6154 333.762 56.866 331.81 54.9848C329.93 53.1036 327.22 52.163 323.677 52.163C319.629 52.163 316.16 53.393 313.268 55.853C310.449 58.2407 308.569 61.7136 307.63 66.2719L301.666 100.242H286.377L297.003 40.1163H312.292L310.991 47.4963C313.449 44.9639 316.376 42.9742 319.774 41.5272C323.171 40.0078 326.714 39.248 330.4 39.248Z" fill="black"/>
<path d="M390.81 39.1396C398.472 39.1396 404.545 41.2741 409.026 45.5429C413.508 49.7394 415.749 55.4191 415.749 62.582C415.749 64.8973 415.569 66.9594 415.207 68.7682C414.773 70.9388 414.303 72.8199 413.797 74.4117H369.883C369.81 74.9182 369.774 75.6417 369.774 76.5823C369.774 80.3447 370.859 83.3111 373.027 85.4817C375.268 87.5799 378.196 88.6291 381.81 88.6291C384.846 88.6291 387.449 87.9779 389.617 86.6755C391.858 85.3008 393.665 83.5282 395.039 81.3576H411.412C408.737 87.1458 404.581 91.9211 398.942 95.6835C393.376 99.3735 387.051 101.218 379.967 101.218C372.304 101.218 366.16 99.0479 361.533 94.7067C356.907 90.3655 354.594 84.4688 354.594 77.0164C354.594 74.8458 354.811 72.5667 355.244 70.1791C356.329 63.9567 358.533 58.4941 361.859 53.7911C365.256 49.0882 369.449 45.4705 374.437 42.9382C379.425 40.4058 384.882 39.1396 390.81 39.1396ZM400.135 65.1867C400.28 64.0291 400.352 63.197 400.352 62.6905C400.352 59.2176 399.231 56.5044 396.991 54.5508C394.75 52.5973 391.822 51.6205 388.208 51.6205C384.376 51.6205 380.943 52.8505 377.907 55.3105C374.87 57.6982 372.738 60.9902 371.509 65.1867H400.135Z" fill="black"/>
<path d="M439.844 101.218C435.434 101.218 431.422 100.495 427.808 99.0479C424.266 97.5285 421.446 95.4664 419.35 92.8617C417.326 90.1847 416.314 87.1458 416.314 83.7452C416.314 83.2388 416.386 82.4067 416.531 81.2491H431.278C431.061 83.7814 431.82 85.8435 433.555 87.4352C435.29 88.9547 437.747 89.7144 440.928 89.7144C443.819 89.7144 446.205 89.2079 448.084 88.1949C450.036 87.1096 451.012 85.5541 451.012 83.5282C451.012 81.7193 450.109 80.2723 448.301 79.187C446.566 78.1017 443.783 76.8717 439.952 75.497C436.121 74.1223 432.94 72.7838 430.41 71.4814C427.88 70.1791 425.711 68.3702 423.904 66.0549C422.097 63.7396 421.193 60.8094 421.193 57.2641C421.193 53.7188 422.205 50.5714 424.229 47.822C426.326 45.0726 429.217 42.9382 432.904 41.4188C436.591 39.8994 440.82 39.1396 445.591 39.1396C450.145 39.1396 454.157 39.8994 457.626 41.4188C461.096 42.9382 463.771 45.0726 465.65 47.822C467.602 50.4991 468.578 53.5741 468.578 57.047C468.578 57.9152 468.542 58.5664 468.47 59.0005H454.374C454.59 56.4682 453.867 54.4423 452.205 52.9229C450.542 51.4035 448.121 50.6438 444.94 50.6438C442.338 50.6438 440.205 51.2226 438.542 52.3802C436.88 53.4655 436.049 54.9488 436.049 56.8299C436.049 58.7111 436.988 60.2667 438.868 61.4967C440.747 62.6544 443.639 63.9567 447.542 65.4038C451.446 66.9232 454.554 68.3341 456.867 69.6364C459.253 70.8664 461.313 72.6029 463.048 74.8458C464.783 77.0164 465.65 79.7658 465.65 83.0941C465.65 86.7841 464.53 90.0038 462.289 92.7532C460.048 95.5026 456.976 97.6008 453.072 99.0479C449.169 100.495 444.759 101.218 439.844 101.218Z" fill="black"/>
<path d="M490.689 32.9521C488.303 32.9521 486.388 32.2648 484.942 30.8901C483.496 29.5154 482.773 27.7789 482.773 25.6807C482.773 22.7866 483.857 20.3266 486.026 18.3007C488.267 16.2024 490.869 15.1533 493.833 15.1533C496.146 15.1533 498.026 15.8407 499.472 17.2154C500.917 18.5901 501.64 20.3266 501.64 22.4248C501.64 25.3189 500.556 27.8151 498.387 29.9133C496.219 31.9392 493.652 32.9521 490.689 32.9521ZM496.978 40.1151L486.351 100.24H471.062L481.689 40.1151H496.978Z" fill="black"/>
<path d="M517.941 81.6814C517.869 82.1155 517.832 82.6943 517.832 83.4179C517.832 84.8649 518.23 85.914 519.025 86.5652C519.893 87.144 521.302 87.4335 523.254 87.4335H530.411L528.133 100.24H518.483C507.64 100.24 502.218 95.7179 502.218 86.6737C502.218 84.9373 502.363 83.237 502.652 81.5729L507.748 52.5955H500.592L502.76 40.1146H510.025L512.628 25.2461H527.917L525.314 40.1146H538.651L536.483 52.5955H523.037L517.941 81.6814Z" fill="black"/>
<path d="M571.69 39.1396C579.352 39.1396 585.424 41.2741 589.906 45.5429C594.388 49.7394 596.629 55.4191 596.629 62.582C596.629 64.8973 596.448 66.9594 596.087 68.7682C595.653 70.9388 595.183 72.8199 594.677 74.4117H550.763C550.69 74.9182 550.654 75.6417 550.654 76.5823C550.654 80.3447 551.738 83.3111 553.907 85.4817C556.148 87.5799 559.076 88.6291 562.69 88.6291C565.726 88.6291 568.328 87.9779 570.497 86.6755C572.738 85.3008 574.545 83.5282 575.919 81.3576H592.292C589.617 87.1458 585.461 91.9211 579.822 95.6835C574.256 99.3735 567.931 101.218 560.847 101.218C553.184 101.218 547.04 99.0479 542.413 94.7067C537.787 90.3655 535.474 84.4688 535.474 77.0164C535.474 74.8458 535.69 72.5667 536.124 70.1791C537.209 63.9567 539.413 58.4941 542.739 53.7911C546.136 49.0882 550.329 45.4705 555.317 42.9382C560.304 40.4058 565.762 39.1396 571.69 39.1396ZM581.015 65.1867C581.16 64.0291 581.232 63.197 581.232 62.6905C581.232 59.2176 580.111 56.5044 577.87 54.5508C575.63 52.5973 572.702 51.6205 569.087 51.6205C565.256 51.6205 561.823 52.8505 558.786 55.3105C555.75 57.6982 553.618 60.9902 552.389 65.1867H581.015Z" fill="black"/>
<path d="M620.72 101.218C616.31 101.218 612.298 100.495 608.684 99.0479C605.142 97.5285 602.322 95.4664 600.226 92.8617C598.202 90.1847 597.19 87.1458 597.19 83.7452C597.19 83.2388 597.262 82.4067 597.407 81.2491H612.154C611.937 83.7814 612.696 85.8435 614.431 87.4352C616.165 88.9547 618.623 89.7144 621.804 89.7144C624.695 89.7144 627.081 89.2079 628.96 88.1949C630.912 87.1096 631.888 85.5541 631.888 83.5282C631.888 81.7193 630.984 80.2723 629.177 79.187C627.442 78.1017 624.659 76.8717 620.828 75.497C616.997 74.1223 613.816 72.7838 611.286 71.4814C608.756 70.1791 606.587 68.3702 604.78 66.0549C602.973 63.7396 602.069 60.8094 602.069 57.2641C602.069 53.7188 603.081 50.5714 605.105 47.822C607.202 45.0726 610.093 42.9382 613.78 41.4188C617.467 39.8994 621.696 39.1396 626.467 39.1396C631.021 39.1396 635.033 39.8994 638.502 41.4188C641.972 42.9382 644.647 45.0726 646.526 47.822C648.478 50.4991 649.454 53.5741 649.454 57.047C649.454 57.9152 649.418 58.5664 649.346 59.0005H635.249C635.466 56.4682 634.743 54.4423 633.081 52.9229C631.418 51.4035 628.997 50.6438 625.816 50.6438C623.214 50.6438 621.081 51.2226 619.418 52.3802C617.756 53.4655 616.925 54.9488 616.925 56.8299C616.925 58.7111 617.864 60.2667 619.744 61.4967C621.623 62.6544 624.515 63.9567 628.418 65.4038C632.322 66.9232 635.43 68.3341 637.743 69.6364C640.129 70.8664 642.189 72.6029 643.924 74.8458C645.659 77.0164 646.526 79.7658 646.526 83.0941C646.526 86.7841 645.406 90.0038 643.165 92.7532C640.924 95.5026 637.852 97.6008 633.948 99.0479C630.045 100.495 625.635 101.218 620.72 101.218Z" fill="black"/>
<path d="M80.1354 19.5026C82.9199 5.23995 97.5811 -3.33678 111.363 1.23437L141.761 11.3163C153.113 15.0813 159.988 26.61 157.912 38.3977L142.587 125.388C140.67 136.265 131.616 144.45 120.61 145.253L86.0943 147.774C70.2527 148.931 57.6459 134.699 60.6921 119.095L80.1354 19.5026Z" fill="#3979FF"/>
<path opacity="0.7" d="M74.366 21.9833C75.2689 17.467 71.782 13.267 67.1806 13.3288L44.0213 13.64C40.645 13.6853 37.7496 16.0643 37.0477 19.3703L20.1354 99.0076C19.5164 101.922 20.746 104.919 23.233 106.556L44.5165 120.572C48.799 123.392 54.5719 120.978 55.5779 115.947L74.366 21.9833Z" fill="#3979FF"/>
<path opacity="0.5" d="M28.1303 36.8153C29.0071 32.387 25.6628 28.2453 21.153 28.1742L14.4215 28.0683C10.9661 28.014 7.95557 30.4152 7.23708 33.7984L0.158416 67.1309C-0.486071 70.1656 0.874326 73.2739 3.54008 74.8572L10.0095 78.6999C14.3002 81.2487 19.8194 78.7831 20.7894 73.8846L28.1303 36.8153Z" fill="#3979FF"/>
<path d="M100.901 47.2744C103.359 44.5249 106.431 42.2458 110.118 40.437C113.877 38.5558 117.961 37.6152 122.371 37.6152C126.852 37.6152 130.792 38.592 134.19 40.5455C137.659 42.4267 140.334 45.1761 142.214 48.7938C144.093 52.4114 145.033 56.6441 145.033 61.4917C145.033 63.7346 144.816 66.0499 144.382 68.4376C143.298 74.5876 141.129 80.0502 137.876 84.8255C134.623 89.5285 130.684 93.1823 126.057 95.787C121.431 98.3917 116.588 99.6941 111.527 99.6941C107.118 99.6941 103.359 98.7896 100.251 96.9808C97.2144 95.172 94.9012 92.8929 93.3109 90.1435L86.805 127.369H71.5161L87.1303 38.592H102.419L100.901 47.2744ZM128.877 68.4376C129.093 66.9905 129.202 65.6882 129.202 64.5305C129.202 60.2617 127.973 56.9335 125.515 54.5458C123.057 52.1582 119.913 50.9644 116.082 50.9644C113.335 50.9644 110.624 51.6879 107.949 53.1349C105.275 54.5096 102.961 56.5355 101.01 59.2126C99.0578 61.8896 97.7566 65.037 97.106 68.6546C96.8169 70.5358 96.6723 71.9105 96.6723 72.7788C96.6723 77.0476 97.9012 80.3758 100.359 82.7635C102.889 85.1511 106.034 86.3449 109.793 86.3449C112.612 86.3449 115.359 85.6214 118.033 84.1743C120.708 82.7273 123.021 80.6652 124.973 77.9882C126.925 75.3111 128.226 72.1276 128.877 68.4376Z" fill="white"/>
</svg>
