<?xml version="1.0" encoding="utf-8"?>
<!-- Generator: Adobe Illustrator 24.0.1, SVG Export Plug-In . SVG Version: 6.00 Build 0)  -->
<svg version="1.1" id="Layer_1" xmlns="http://www.w3.org/2000/svg" xmlns:xlink="http://www.w3.org/1999/xlink" x="0px" y="0px"
	 viewBox="0 0 1476 507" style="enable-background:new 0 0 1476 507;" xml:space="preserve">
<style type="text/css">
	.st0{fill:#009BDF;}
	.st1{fill:url(#SVGID_1_);}
	.st2{fill:url(#SVGID_2_);}
	.st3{fill:url(#SVGID_3_);}
	.st4{fill:url(#SVGID_4_);}
	.st5{fill:#FFFFFF;}
	.st6{fill:#90D9E5;}
	.st7{enable-background:new    ;}
	.st8{fill:#8E8E8E;}
	.st9{fill:url(#SVGID_5_);}
	.st10{fill:url(#SVGID_6_);}
	.st11{fill:url(#SVGID_7_);}
	.st12{fill:url(#SVGID_8_);}
	.st13{fill:url(#SVGID_9_);}
	.st14{fill:url(#SVGID_10_);}
	.st15{fill:url(#SVGID_11_);}
	.st16{fill:url(#SVGID_12_);}
	.st17{fill:url(#SVGID_13_);}
	.st18{fill:url(#SVGID_14_);}
	.st19{fill:url(#SVGID_15_);}
	.st20{fill:url(#SVGID_16_);}
	.st21{fill:url(#SVGID_17_);}
	.st22{fill:url(#SVGID_18_);}
	.st23{fill:url(#SVGID_19_);}
	.st24{fill:url(#SVGID_20_);}
</style>
<title>FieldControlProLogo_forweb</title>
<path class="st0" d="M494.6,264.2v-33.8c0-5.1-3.7-9.5-8.7-10.4l-11.2-2c-4.4-0.8-7.8-4.2-8.6-8.6c-2.3-13.2-5.7-26.1-10.3-38.6
	c-1.6-4.2-0.3-8.9,3.1-11.8l8.6-7.3c3.9-3.3,4.9-8.9,2.3-13.4L453,109c-2.6-4.4-7.9-6.4-12.8-4.6l-10.7,3.9
	c-4.2,1.5-8.9,0.2-11.7-3.2c-8.6-10.3-18-19.7-28.3-28.3c-3.4-2.8-4.7-7.5-3.2-11.7l3.9-10.7c1.7-4.8-0.2-10.2-4.6-12.8l-29.2-16.9
	c-4.4-2.6-10.1-1.6-13.4,2.3l-7.3,8.6c-2.9,3.4-7.6,4.6-11.8,3.1c-12.5-4.6-25.5-8.1-38.7-10.3c-4.4-0.7-7.9-4.2-8.6-8.6l-2-11.1
	c-0.9-5-5.3-8.7-10.4-8.7h-33.8c-5.1,0-9.5,3.7-10.4,8.7l-2,11.1c-0.8,4.4-4.2,7.8-8.6,8.6c-13.2,2.3-26.1,5.7-38.6,10.3
	c-4.2,1.5-8.9,0.3-11.8-3.1l-7.3-8.6c-3.3-3.9-8.9-4.9-13.3-2.3L109,41.6c-4.5,2.5-6.5,7.9-4.7,12.8l3.9,10.7
	c1.5,4.2,0.2,8.9-3.2,11.7c-10.3,8.6-19.7,18-28.3,28.3c-2.8,3.4-7.5,4.7-11.7,3.2l-10.7-3.9c-4.8-1.7-10.2,0.2-12.8,4.6l-16.9,29.3
	c-2.6,4.4-1.6,10.1,2.3,13.4l8.6,7.3c3.4,2.9,4.6,7.6,3.1,11.8c-4.6,12.5-8.1,25.5-10.3,38.6c-0.7,4.4-4.2,7.9-8.6,8.6l-11.2,2
	c-5,0.9-8.7,5.3-8.7,10.4v33.8c0,5.1,3.7,9.5,8.7,10.4l11.2,2c4.4,0.8,7.8,4.2,8.6,8.6c2.3,13.2,5.7,26.1,10.3,38.7
	c1.6,4.2,0.3,8.9-3.1,11.8l-8.6,7.3c-3.9,3.3-4.9,8.9-2.3,13.4l16.9,29.3c2.6,4.4,7.9,6.4,12.8,4.6l10.7-3.9
	c4.2-1.5,8.9-0.2,11.7,3.2c8.6,10.3,18,19.7,28.3,28.3c3.4,2.8,4.7,7.5,3.2,11.7l-3.9,10.7c-1.7,4.8,0.2,10.2,4.6,12.8l29.4,16.9
	c4.4,2.6,10.1,1.6,13.4-2.3l7.3-8.6c2.9-3.4,7.6-4.7,11.8-3.1c12.5,4.6,25.4,8.1,38.6,10.3c4.4,0.7,7.9,4.2,8.6,8.6l2,11.2
	c0.9,5,5.3,8.7,10.4,8.7h33.8c5.1,0,9.5-3.7,10.4-8.7l2-11.2c0.8-4.4,4.2-7.8,8.6-8.6c13.2-2.3,26.1-5.7,38.7-10.3
	c4.2-1.5,8.9-0.3,11.8,3.1l7.3,8.6c3.3,3.9,9,4.9,13.4,2.4l29.3-16.9c4.4-2.6,6.4-7.9,4.6-12.8l-3.9-10.7c-1.5-4.2-0.2-8.9,3.2-11.7
	c10.3-8.6,19.7-18,28.3-28.3c2.8-3.4,7.5-4.7,11.7-3.2l10.7,3.9c4.8,1.7,10.2-0.2,12.8-4.7l16.9-29.3c2.6-4.4,1.6-10.1-2.3-13.4
	l-8.6-7.3c-3.4-2.9-4.6-7.6-3.1-11.8c4.6-12.5,8.1-25.5,10.3-38.7c0.7-4.4,4.2-7.9,8.6-8.6l11.2-2
	C490.9,273.7,494.6,269.3,494.6,264.2z"/>
<linearGradient id="SVGID_1_" gradientUnits="userSpaceOnUse" x1="152.4226" y1="12.31" x2="152.4226" y2="317.36" gradientTransform="matrix(1 0 0 -1 -95.68 409.14)">
	<stop  offset="0.15" style="stop-color:#00B6F1"/>
	<stop  offset="0.83" style="stop-color:#0072BC"/>
</linearGradient>
<path class="st1" d="M88.8,91.8c-4.2,4.3-8.2,8.7-12.1,13.2c-2.8,3.4-7.5,4.7-11.7,3.2l-10.7-3.9c-4.8-1.7-10.2,0.2-12.8,4.6
	l-16.9,29.3c-2.6,4.4-1.6,10.1,2.3,13.4l8.6,7.3c3.4,2.9,4.6,7.6,3.1,11.8c-4.6,12.5-8.1,25.5-10.3,38.6c-0.7,4.4-4.2,7.9-8.6,8.6
	l-11.2,2c-5,0.9-8.7,5.3-8.7,10.4v33.8c0,5.1,3.7,9.5,8.7,10.4l11.2,2c4.4,0.8,7.8,4.2,8.6,8.6c2.3,13.2,5.7,26.1,10.3,38.7
	c1.6,4.2,0.3,8.9-3.1,11.8l-8.6,7.3c-3.9,3.3-4.9,8.9-2.3,13.4l16.9,29.3c2.6,4.4,7.9,6.4,12.8,4.6l10.7-3.9
	c4.2-1.5,8.9-0.2,11.7,3.2c2.1,2.5,4.2,4.9,6.4,7.3C106.4,333.5,135.1,215.4,88.8,91.8z"/>
<linearGradient id="SVGID_2_" gradientUnits="userSpaceOnUse" x1="204.7671" y1="-51.4002" x2="613.1567" y2="97.246" gradientTransform="matrix(1 0 0 -1 -95.68 409.14)">
	<stop  offset="0.15" style="stop-color:#00B6F1"/>
	<stop  offset="0.83" style="stop-color:#0054A6"/>
</linearGradient>
<path class="st2" d="M108.2,429.6l-3.9,10.7c-1.7,4.8,0.2,10.2,4.6,12.8l29.4,16.9c4.4,2.6,10.1,1.6,13.4-2.3l7.3-8.6
	c2.9-3.4,7.6-4.7,11.8-3.1c12.5,4.6,25.4,8.1,38.6,10.3c4.4,0.7,7.9,4.2,8.6,8.6l2,11.2c0.9,5,5.3,8.7,10.4,8.7h33.8
	c5.1,0,9.5-3.7,10.4-8.7l2-11.2c0.8-4.4,4.2-7.8,8.6-8.6c13.2-2.3,26.1-5.7,38.7-10.3c4.2-1.5,8.9-0.3,11.8,3.1l7.3,8.6
	c3.3,3.9,9,4.9,13.4,2.4l29.3-16.9c4.4-2.6,6.4-7.9,4.6-12.8l-3.9-10.7c-1.5-4.2-0.2-8.9,3.2-11.7c10.3-8.6,19.7-18,28.3-28.3
	c2.8-3.4,7.5-4.7,11.7-3.2l10.7,3.9c4.8,1.7,10.2-0.2,12.8-4.7l16.9-29.3c2.6-4.4,1.6-10.1-2.3-13.4l-8.6-7.3
	c-3.4-2.9-4.6-7.6-3.1-11.8c4.6-12.5,8.1-25.5,10.3-38.7c0.7-4.4,4.2-7.9,8.6-8.6l11.2-2c5-0.9,8.7-5.3,8.7-10.4v-15.3
	C303,253.8,163.5,367.4,107.7,421.3C109,423.9,109.2,426.9,108.2,429.6z"/>
<linearGradient id="SVGID_3_" gradientUnits="userSpaceOnUse" x1="218.3265" y1="392.9128" x2="575.5574" y2="262.8925" gradientTransform="matrix(1 0 0 -1 -95.68 409.14)">
	<stop  offset="0.15" style="stop-color:#00B6F1"/>
	<stop  offset="0.83" style="stop-color:#0072BC"/>
</linearGradient>
<path class="st3" d="M455.8,170.7c-1.6-4.2-0.3-8.9,3.1-11.8l8.6-7.3c3.9-3.3,4.9-8.9,2.3-13.4L453,109c-2.6-4.4-7.9-6.4-12.8-4.6
	l-10.7,3.9c-4.2,1.5-8.9,0.2-11.7-3.2c-8.6-10.3-18-19.7-28.3-28.3c-3.4-2.8-4.7-7.5-3.2-11.7l3.9-10.7c1.7-4.8-0.2-10.2-4.6-12.8
	l-29.2-16.9c-4.4-2.6-10.1-1.6-13.4,2.3l-7.3,8.6c-2.9,3.4-7.6,4.6-11.8,3.1c-12.5-4.6-25.5-8.1-38.7-10.3c-4.4-0.7-7.9-4.2-8.6-8.6
	l-2-11.1c-0.9-5-5.3-8.7-10.4-8.7h-33.8c-5.1,0-9.5,3.7-10.4,8.7l-2,11.1c-0.8,4.4-4.2,7.8-8.6,8.6c-13.2,2.3-26.1,5.7-38.6,10.3
	c-4.2,1.5-8.9,0.3-11.8-3.1l-7.3-8.6c-3.3-3.9-8.9-4.9-13.3-2.3l-23.7,13.7c119.7,124,279.5,149.7,348.2,154.9
	C460.9,185.6,458.5,178.1,455.8,170.7z"/>
<linearGradient id="SVGID_4_" gradientUnits="userSpaceOnUse" x1="64.72" y1="260.72" x2="429.84" y2="260.72" gradientTransform="matrix(1 0 0 -1 0 508)">
	<stop  offset="0.15" style="stop-color:#00B6F1"/>
	<stop  offset="0.83" style="stop-color:#0054A6"/>
</linearGradient>
<circle class="st4" cx="247.3" cy="247.3" r="182.6"/>
<circle class="st5" cx="247.3" cy="247.3" r="167.1"/>
<path class="st6" d="M253.4,399.2V273.9h42v117.7C281.8,396.1,267.7,398.7,253.4,399.2z"/>
<path class="st6" d="M363.5,345.4V209.9h-42V380C337.5,371.1,351.7,359.3,363.5,345.4z"/>
<path class="st6" d="M117.2,326.1c10.8,17.7,25.1,33.1,42,45.1v-82.9h-42V326.1z"/>
<path class="st6" d="M185.3,386.2c13.3,6,27.5,10,42,11.9V244.1h-42V386.2z"/>
<g>
	<g class="st7">
		<path class="st8" d="M602.7,57.2v25.5h85.5v26.8h-85.5v49.3h-33.6V30.4h119.1v26.8H602.7z"/>
		<path class="st8" d="M708.7,158.8V30.4h33.6v128.4H708.7z"/>
		<path class="st8" d="M800.9,57.2v25.5h72.9v26.8h-72.9v16.3c0,3.5,2.8,6.3,6.3,6.3h79.2v26.8H799c-17.5,0-31.6-14.2-31.6-31.6
			V30.4h119.1v26.8H800.9z"/>
		<path class="st8" d="M993.3,132v26.8h-85.5V30.4h33.6V132H993.3z"/>
		<path class="st8" d="M1127.7,94.7c0,31.7-7.1,64.2-59.8,64.2v-0.1h-59.3V30.4h59.3v0.1C1120.6,30.5,1127.7,62.9,1127.7,94.7z
			 M1094.2,94.7c0-28-4.6-37.5-26.3-37.5h-25.7V132h25.7C1089.6,132,1094.2,122.7,1094.2,94.7z"/>
	</g>
	<g class="st7">
		<path class="st8" d="M682.9,268.6c-4.3,24.2-18.1,44-58,44c-52.7,0-59.8-34.5-59.8-68.2c0-33.7,7.1-68.2,59.8-68.2
			c39.8,0,53.6,19.7,58,43.8l-33,4.8c-2.7-15.4-10-18-25-18c-20,0-26.3,4.4-26.3,37.5c0,33.1,6.3,37.3,26.3,37.3
			c15.1,0,22.4-2.5,25.1-18L682.9,268.6z"/>
		<path class="st8" d="M818.2,244.5c0,33.7-7.1,68.2-59.8,68.2c-52.7,0-59.8-34.5-59.8-68.2c0-33.7,7.1-68.2,59.8-68.2
			C811.1,176.3,818.2,210.7,818.2,244.5z M784.7,244.5c0-33.1-6.3-41.4-26.3-41.4c-20,0-26.3,8.4-26.3,41.4
			c0,33.1,6.3,41.4,26.3,41.4C778.4,285.9,784.7,277.5,784.7,244.5z"/>
		<path class="st8" d="M965.5,180.2v128.4h-36.7l-55.1-77.4v77.4h-33.6V180.2h38.2l53.7,75.3v-75.3H965.5z"/>
		<path class="st8" d="M1100.1,180.2V207h-42.8v101.6h-33.6V207H981v-26.8H1100.1z"/>
	</g>
	<g class="st7">
		<path class="st8" d="M1212.1,255.1L1212.1,255.1l22.6,53.4h-33.6l-18.9-44.5l-33.1,9.9v34.6h-33.6V180.2h87.5
			c17.5,0,31.6,14.2,31.6,31.6v13C1234.7,238.8,1225.5,251.2,1212.1,255.1z M1201.1,225.8v-15.7c0-1.7-1.4-3.2-3.2-3.2h-48.8v39
			l47.5-14.1C1199.3,231,1201.1,228.6,1201.1,225.8L1201.1,225.8z"/>
	</g>
	<g class="st7">
		<path class="st8" d="M1368,244.5c0,33.7-7.1,68.2-59.8,68.2c-52.7,0-59.8-34.5-59.8-68.2c0-33.7,7.1-68.2,59.8-68.2
			C1360.9,176.3,1368,210.7,1368,244.5z M1334.4,244.5c0-33.1-6.3-41.4-26.3-41.4c-20,0-26.3,8.4-26.3,41.4
			c0,33.1,6.3,41.4,26.3,41.4C1328.1,285.9,1334.4,277.5,1334.4,244.5z"/>
		<path class="st8" d="M1475.4,281.8v26.8h-85.5V180.2h33.6v101.6H1475.4z"/>
	</g>
	<g class="st7">
		<path class="st8" d="M688.2,361.6v13c0,14-9.2,26.3-22.6,30.3l-62.9,18.8v34.6h-33.6V330h87.5C674.1,330,688.2,344.1,688.2,361.6z
			 M654.7,375.5v-15.7c0-1.7-1.4-3.2-3.2-3.2h-48.8v39l47.5-14.1C652.8,380.8,654.7,378.3,654.7,375.5L654.7,375.5z"/>
	</g>
	<g class="st7">
		<path class="st8" d="M803.2,404.9L803.2,404.9l22.6,53.4h-33.6l-18.9-44.5l-33.1,9.9v34.6h-33.6V330h87.5
			c17.5,0,31.6,14.2,31.6,31.6v13C825.8,388.6,816.6,400.9,803.2,404.9z M792.2,375.5v-15.7c0-1.7-1.4-3.2-3.2-3.2h-48.8v39
			l47.5-14.1C790.4,380.8,792.2,378.3,792.2,375.5L792.2,375.5z"/>
	</g>
	<g class="st7">
		<path class="st8" d="M959.1,394.2c0,33.7-7.1,68.2-59.8,68.2c-52.7,0-59.8-34.5-59.8-68.2c0-33.7,7.1-68.2,59.8-68.2
			C952,326.1,959.1,360.5,959.1,394.2z M925.5,394.2c0-33.1-6.3-41.4-26.3-41.4c-20,0-26.3,8.4-26.3,41.4c0,33.1,6.3,41.4,26.3,41.4
			C919.2,435.6,925.5,427.3,925.5,394.2z"/>
	</g>
	
		<linearGradient id="SVGID_5_" gradientUnits="userSpaceOnUse" x1="689.7192" y1="397.5251" x2="892.1616" y2="-87.4026" gradientTransform="matrix(1 0 0 -1 -95.68 409.14)">
		<stop  offset="0" style="stop-color:#BCBEC0"/>
		<stop  offset="0.21" style="stop-color:#939598"/>
		<stop  offset="0.54" style="stop-color:#CCCCCC"/>
		<stop  offset="0.72" style="stop-color:#939598"/>
		<stop  offset="1" style="stop-color:#414042"/>
	</linearGradient>
	<path class="st9" d="M602.7,57.2v25.5h85.5v26.8h-85.5v49.4h-33.6V30.4h119.1v26.8L602.7,57.2z"/>
	
		<linearGradient id="SVGID_6_" gradientUnits="userSpaceOnUse" x1="772.1398" y1="431.9332" x2="974.5823" y2="-52.9945" gradientTransform="matrix(1 0 0 -1 -95.68 409.14)">
		<stop  offset="0" style="stop-color:#BCBEC0"/>
		<stop  offset="0.21" style="stop-color:#939598"/>
		<stop  offset="0.54" style="stop-color:#CCCCCC"/>
		<stop  offset="0.72" style="stop-color:#939598"/>
		<stop  offset="1" style="stop-color:#414042"/>
	</linearGradient>
	<path class="st10" d="M708.7,158.8V30.4h33.6v128.4H708.7z"/>
	
		<linearGradient id="SVGID_7_" gradientUnits="userSpaceOnUse" x1="862.9827" y1="469.8573" x2="1065.3927" y2="-14.9927" gradientTransform="matrix(1 0 0 -1 -95.68 409.14)">
		<stop  offset="0" style="stop-color:#BCBEC0"/>
		<stop  offset="0.21" style="stop-color:#939598"/>
		<stop  offset="0.54" style="stop-color:#CCCCCC"/>
		<stop  offset="0.72" style="stop-color:#939598"/>
		<stop  offset="1" style="stop-color:#414042"/>
	</linearGradient>
	<path class="st11" d="M800.9,57.2v25.5h72.9v26.8h-72.9v16.3c0,3.5,2.8,6.3,6.3,6.3h79.2v26.8H799c-17.5,0-31.6-14.2-31.6-31.6
		c0,0,0,0,0,0V30.4h119.1v26.8L800.9,57.2z"/>
	
		<linearGradient id="SVGID_8_" gradientUnits="userSpaceOnUse" x1="945.7547" y1="504.412" x2="1148.1648" y2="19.562" gradientTransform="matrix(1 0 0 -1 -95.68 409.14)">
		<stop  offset="0" style="stop-color:#BCBEC0"/>
		<stop  offset="0.21" style="stop-color:#939598"/>
		<stop  offset="0.54" style="stop-color:#CCCCCC"/>
		<stop  offset="0.72" style="stop-color:#939598"/>
		<stop  offset="1" style="stop-color:#414042"/>
	</linearGradient>
	<path class="st12" d="M993.3,132v26.8h-85.5V30.4h33.5V132L993.3,132z"/>
	
		<linearGradient id="SVGID_9_" gradientUnits="userSpaceOnUse" x1="1056.5253" y1="550.6554" x2="1258.9353" y2="65.8054" gradientTransform="matrix(1 0 0 -1 -95.68 409.14)">
		<stop  offset="0" style="stop-color:#BCBEC0"/>
		<stop  offset="0.21" style="stop-color:#939598"/>
		<stop  offset="0.54" style="stop-color:#CCCCCC"/>
		<stop  offset="0.72" style="stop-color:#939598"/>
		<stop  offset="1" style="stop-color:#414042"/>
	</linearGradient>
	<path class="st13" d="M1127.7,94.7c0,31.7-7.1,64.2-59.8,64.2v0h-59.3V30.4h59.3v0.1C1120.6,30.5,1127.7,62.9,1127.7,94.7z
		 M1094.2,94.7c0-28-4.6-37.5-26.3-37.5h-25.7V132h25.7C1089.6,132,1094.2,122.7,1094.2,94.7z"/>
	
		<linearGradient id="SVGID_10_" gradientUnits="userSpaceOnUse" x1="633.258" y1="373.9543" x2="835.668" y2="-110.8958" gradientTransform="matrix(1 0 0 -1 -95.68 409.14)">
		<stop  offset="0" style="stop-color:#BCBEC0"/>
		<stop  offset="0.21" style="stop-color:#939598"/>
		<stop  offset="0.54" style="stop-color:#CCCCCC"/>
		<stop  offset="0.72" style="stop-color:#939598"/>
		<stop  offset="1" style="stop-color:#414042"/>
	</linearGradient>
	<path class="st14" d="M682.9,268.6c-4.3,24.2-18.1,44-58,44c-52.7,0-59.8-34.5-59.8-68.2s7.1-68.2,59.8-68.2
		c39.8,0,53.6,19.7,58,43.8l-33,4.8c-2.7-15.4-10-18-25-18c-20,0-26.3,4.4-26.3,37.5s6.3,37.3,26.3,37.3c15.1,0,22.4-2.5,25.1-18
		L682.9,268.6z"/>
	
		<linearGradient id="SVGID_11_" gradientUnits="userSpaceOnUse" x1="746.8998" y1="421.3962" x2="949.3098" y2="-63.4538" gradientTransform="matrix(1 0 0 -1 -95.68 409.14)">
		<stop  offset="0" style="stop-color:#BCBEC0"/>
		<stop  offset="0.21" style="stop-color:#939598"/>
		<stop  offset="0.54" style="stop-color:#CCCCCC"/>
		<stop  offset="0.72" style="stop-color:#939598"/>
		<stop  offset="1" style="stop-color:#414042"/>
	</linearGradient>
	<path class="st15" d="M818.2,244.5c0,33.7-7.1,68.2-59.8,68.2s-59.8-34.5-59.8-68.2s7.1-68.2,59.8-68.2S818.2,210.7,818.2,244.5z
		 M784.7,244.5c0-33.1-6.3-41.4-26.3-41.4s-26.3,8.4-26.3,41.4s6.3,41.4,26.3,41.4S784.7,277.5,784.7,244.5L784.7,244.5z"/>
	
		<linearGradient id="SVGID_12_" gradientUnits="userSpaceOnUse" x1="869.9304" y1="472.7577" x2="1072.3405" y2="-12.0923" gradientTransform="matrix(1 0 0 -1 -95.68 409.14)">
		<stop  offset="0" style="stop-color:#BCBEC0"/>
		<stop  offset="0.21" style="stop-color:#939598"/>
		<stop  offset="0.54" style="stop-color:#CCCCCC"/>
		<stop  offset="0.72" style="stop-color:#939598"/>
		<stop  offset="1" style="stop-color:#414042"/>
	</linearGradient>
	<path class="st16" d="M965.5,180.2v128.4h-36.7l-55.1-77.4v77.4h-33.5V180.2h38.2l53.7,75.4v-75.4H965.5z"/>
	
		<linearGradient id="SVGID_13_" gradientUnits="userSpaceOnUse" x1="1005.2578" y1="529.2528" x2="1207.6678" y2="44.4028" gradientTransform="matrix(1 0 0 -1 -95.68 409.14)">
		<stop  offset="0" style="stop-color:#BCBEC0"/>
		<stop  offset="0.21" style="stop-color:#939598"/>
		<stop  offset="0.54" style="stop-color:#CCCCCC"/>
		<stop  offset="0.72" style="stop-color:#939598"/>
		<stop  offset="1" style="stop-color:#414042"/>
	</linearGradient>
	<path class="st17" d="M1100.1,180.2V207h-42.8v101.6h-33.6V207H981v-26.8H1100.1z"/>
	
		<linearGradient id="SVGID_14_" gradientUnits="userSpaceOnUse" x1="1097.3136" y1="567.6832" x2="1299.7236" y2="82.8332" gradientTransform="matrix(1 0 0 -1 -95.68 409.14)">
		<stop  offset="0" style="stop-color:#BCBEC0"/>
		<stop  offset="0.21" style="stop-color:#939598"/>
		<stop  offset="0.54" style="stop-color:#CCCCCC"/>
		<stop  offset="0.72" style="stop-color:#939598"/>
		<stop  offset="1" style="stop-color:#414042"/>
	</linearGradient>
	<path class="st18" d="M1212.1,255.1L1212.1,255.1l22.6,53.4h-33.6l-18.9-44.5l-33.1,9.9v34.6h-33.6V180.2h87.5
		c17.5,0,31.6,14.2,31.6,31.6v0v13C1234.7,238.8,1225.5,251.2,1212.1,255.1z M1201.1,225.8v-15.6c0-1.7-1.4-3.2-3.2-3.2c0,0,0,0,0,0
		h-48.8v39l47.5-14.1C1199.3,231,1201.1,228.5,1201.1,225.8L1201.1,225.8z"/>
	
		<linearGradient id="SVGID_15_" gradientUnits="userSpaceOnUse" x1="1215.0673" y1="616.8418" x2="1417.4773" y2="131.9918" gradientTransform="matrix(1 0 0 -1 -95.68 409.14)">
		<stop  offset="0" style="stop-color:#BCBEC0"/>
		<stop  offset="0.21" style="stop-color:#939598"/>
		<stop  offset="0.54" style="stop-color:#CCCCCC"/>
		<stop  offset="0.72" style="stop-color:#939598"/>
		<stop  offset="1" style="stop-color:#414042"/>
	</linearGradient>
	<path class="st19" d="M1368,244.5c0,33.7-7.1,68.2-59.8,68.2s-59.8-34.5-59.8-68.2s7.1-68.2,59.8-68.2S1368,210.7,1368,244.5z
		 M1334.4,244.5c0-33.1-6.3-41.4-26.3-41.4s-26.3,8.4-26.3,41.4s6.3,41.4,26.3,41.4S1334.4,277.5,1334.4,244.5z"/>
	
		<linearGradient id="SVGID_16_" gradientUnits="userSpaceOnUse" x1="1303.0658" y1="653.5785" x2="1505.4758" y2="168.7285" gradientTransform="matrix(1 0 0 -1 -95.68 409.14)">
		<stop  offset="0" style="stop-color:#BCBEC0"/>
		<stop  offset="0.21" style="stop-color:#939598"/>
		<stop  offset="0.54" style="stop-color:#CCCCCC"/>
		<stop  offset="0.72" style="stop-color:#939598"/>
		<stop  offset="1" style="stop-color:#414042"/>
	</linearGradient>
	<path class="st20" d="M1475.4,281.8v26.8h-85.5V180.2h33.6v101.6H1475.4z"/>
	
		<linearGradient id="SVGID_17_" gradientUnits="userSpaceOnUse" x1="578.7292" y1="351.1902" x2="781.1562" y2="-133.7005" gradientTransform="matrix(1 0 0 -1 -95.68 409.14)">
		<stop  offset="0" style="stop-color:#BCBEC0"/>
		<stop  offset="0.21" style="stop-color:#939598"/>
		<stop  offset="0.54" style="stop-color:#CCCCCC"/>
		<stop  offset="0.72" style="stop-color:#939598"/>
		<stop  offset="1" style="stop-color:#414042"/>
	</linearGradient>
	<path class="st21" d="M688.2,361.6v13c0,14-9.2,26.3-22.6,30.3l-63,18.8v34.6h-33.5V330h87.5C674.1,330,688.2,344.1,688.2,361.6z
		 M654.7,375.6v-15.7c0-1.7-1.4-3.2-3.2-3.2h-48.8v39l47.5-14.1C652.8,380.8,654.7,378.3,654.7,375.6L654.7,375.6z"/>
	
		<linearGradient id="SVGID_18_" gradientUnits="userSpaceOnUse" x1="695.8481" y1="400.0837" x2="898.2581" y2="-84.7663" gradientTransform="matrix(1 0 0 -1 -95.68 409.14)">
		<stop  offset="0" style="stop-color:#BCBEC0"/>
		<stop  offset="0.21" style="stop-color:#939598"/>
		<stop  offset="0.54" style="stop-color:#CCCCCC"/>
		<stop  offset="0.72" style="stop-color:#939598"/>
		<stop  offset="1" style="stop-color:#414042"/>
	</linearGradient>
	<path class="st22" d="M803.2,404.9L803.2,404.9l22.6,53.4h-33.5l-18.9-44.5l-33.1,9.9v34.6h-33.6V330h87.5
		c17.5,0,31.6,14.2,31.6,31.6c0,0,0,0,0,0v13C825.8,388.6,816.6,400.9,803.2,404.9z M792.2,375.6v-15.7c0-1.7-1.4-3.2-3.2-3.2h-48.8
		v39l47.5-14.1C790.4,380.8,792.2,378.3,792.2,375.6L792.2,375.6z"/>
	
		<linearGradient id="SVGID_19_" gradientUnits="userSpaceOnUse" x1="813.5984" y1="449.2408" x2="1016.0084" y2="-35.6092" gradientTransform="matrix(1 0 0 -1 -95.68 409.14)">
		<stop  offset="0" style="stop-color:#BCBEC0"/>
		<stop  offset="0.21" style="stop-color:#939598"/>
		<stop  offset="0.54" style="stop-color:#CCCCCC"/>
		<stop  offset="0.72" style="stop-color:#939598"/>
		<stop  offset="1" style="stop-color:#414042"/>
	</linearGradient>
	<path class="st23" d="M959.1,394.2c0,33.7-7.1,68.2-59.8,68.2s-59.8-34.5-59.8-68.2s7.1-68.2,59.8-68.2S959.1,360.5,959.1,394.2z
		 M925.5,394.2c0-33-6.3-41.4-26.3-41.4s-26.3,8.4-26.3,41.4c0,33.1,6.3,41.4,26.3,41.4S925.5,427.3,925.5,394.2z"/>
</g>
<linearGradient id="SVGID_20_" gradientUnits="userSpaceOnUse" x1="210.2" y1="206.3264" x2="461.6629" y2="206.3264" gradientTransform="matrix(1 0 0 -1 -95.68 409.14)">
	<stop  offset="0" style="stop-color:#BCBEC0"/>
	<stop  offset="0.21" style="stop-color:#939598"/>
	<stop  offset="0.54" style="stop-color:#CCCCCC"/>
	<stop  offset="0.72" style="stop-color:#939598"/>
	<stop  offset="1" style="stop-color:#414042"/>
</linearGradient>
<path class="st24" d="M202.8,177.7c-9.4,1.5-17,8.3-19.4,17.5c-1.2,4.5-1.1,9.3,0.4,13.8l-28.8,18.2c-9.7-9-24.8-8.4-33.7,1.2
	c-9,9.7-8.4,24.8,1.2,33.7c9.7,9,24.8,8.4,33.7-1.2c5.8-6.3,7.8-15.2,5.3-23.3l29-18.3c9.8,8.9,24.9,8.1,33.7-1.6
	c0.4-0.4,0.8-0.9,1.1-1.3l25.3,10.5c-0.2,1.2-0.3,2.5-0.3,3.7c-0.1,13.3,10.6,24.1,23.9,24.1c13.3,0.1,24.1-10.6,24.1-23.9
	c0-4.2-1.1-8.3-3.1-11.9l35.3-36.7c11.5,6.5,26.2,2.4,32.7-9.1s2.4-26.2-9.1-32.7c-4.5-2.5-9.7-3.5-14.8-2.9
	c-10.8,1.3-19.3,9.7-20.9,20.5c-0.8,5.4,0.4,11,3.2,15.7l-35.1,36.4c-10.3-6.2-23.6-3.9-31.1,5.6L230.2,205c0.2-1.2,0.3-2.4,0.3-3.6
	c0-13.3-10.7-24-24-24C205.2,177.4,204,177.5,202.8,177.7z M150.7,244.6c0,6.7-5.5,12.2-12.2,12.2c-6.7,0-12.2-5.5-12.2-12.2
	c0-6.7,5.5-12.2,12.2-12.2C145.3,232.4,150.7,237.9,150.7,244.6z M218.6,201.4c0,6.7-5.5,12.2-12.2,12.2c-6.7,0-12.2-5.5-12.2-12.2
	c0-6.7,5.5-12.2,12.2-12.2c0,0,0,0,0,0C213.2,189.2,218.6,194.7,218.6,201.4L218.6,201.4z M330,161.1c0-6.7,5.5-12.2,12.2-12.2
	c6.7,0,12.2,5.5,12.2,12.2c0,6.7-5.5,12.2-12.2,12.2c0,0,0,0,0,0C335.4,173.3,330,167.9,330,161.1z M262,230.4
	c0-6.7,5.5-12.2,12.2-12.2c6.7,0,12.2,5.5,12.2,12.2c0,6.7-5.5,12.2-12.2,12.2c0,0,0,0,0,0C267.5,242.6,262,237.1,262,230.4
	L262,230.4z"/>
</svg>
