<?xml version="1.0" encoding="utf-8"?>
<svg viewBox="0 0 1476 507" style="enable-background:new 0 0 1476 507;" xmlns="http://www.w3.org/2000/svg">
  <defs>
    <style type="text/css">
	.st0{fill:#009BDF;}
	.st1{fill:url(#SVGID_1_);}
	.st2{fill:url(#SVGID_2_);}
	.st3{fill:url(#SVGID_3_);}
	.st4{fill:url(#SVGID_4_);}
	.st5{fill:#FFFFFF;}
	.st6{fill:#90D9E5;}
	.st7{enable-background:new    ;}
	.st8{fill:#8E8E8E;}
	.st9{fill:url(#SVGID_5_);}
	.st10{fill:url(#SVGID_6_);}
	.st11{fill:url(#SVGID_7_);}
	.st12{fill:url(#SVGID_8_);}
	.st13{fill:url(#SVGID_9_);}
	.st14{fill:url(#SVGID_10_);}
	.st15{fill:url(#SVGID_11_);}
	.st16{fill:url(#SVGID_12_);}
	.st17{fill:url(#SVGID_13_);}
	.st18{fill:url(#SVGID_14_);}
	.st19{fill:url(#SVGID_15_);}
	.st20{fill:url(#SVGID_16_);}
	.st21{fill:url(#SVGID_17_);}
	.st22{fill:url(#SVGID_18_);}
	.st23{fill:url(#SVGID_19_);}
	.st24{fill:url(#SVGID_20_);}
</style>
  </defs>
  <linearGradient id="SVGID_1_" gradientUnits="userSpaceOnUse" x1="152.4226" y1="12.31" x2="152.4226" y2="317.36" gradientTransform="matrix(1 0 0 -1 -95.68 409.14)">
    <stop offset="0.15" style="stop-color:#00B6F1"/>
    <stop offset="0.83" style="stop-color:#0072BC"/>
  </linearGradient>
  <linearGradient id="SVGID_2_" gradientUnits="userSpaceOnUse" x1="204.7671" y1="-51.4002" x2="613.1567" y2="97.246" gradientTransform="matrix(1 0 0 -1 -95.68 409.14)">
    <stop offset="0.15" style="stop-color:#00B6F1"/>
    <stop offset="0.83" style="stop-color:#0054A6"/>
  </linearGradient>
  <linearGradient id="SVGID_3_" gradientUnits="userSpaceOnUse" x1="218.3265" y1="392.9128" x2="575.5574" y2="262.8925" gradientTransform="matrix(1 0 0 -1 -95.68 409.14)">
    <stop offset="0.15" style="stop-color:#00B6F1"/>
    <stop offset="0.83" style="stop-color:#0072BC"/>
  </linearGradient>
  <linearGradient id="SVGID_4_" gradientUnits="userSpaceOnUse" x1="64.72" y1="260.72" x2="429.84" y2="260.72" gradientTransform="matrix(1 0 0 -1 0 508)">
    <stop offset="0.15" style="stop-color:#00B6F1"/>
    <stop offset="0.83" style="stop-color:#0054A6"/>
  </linearGradient>
  <linearGradient id="SVGID_20_" gradientUnits="userSpaceOnUse" x1="210.2" y1="206.3264" x2="461.6629" y2="206.3264" gradientTransform="matrix(1 0 0 -1 -95.68 409.14)">
    <stop offset="0" style="stop-color:#BCBEC0"/>
    <stop offset="0.21" style="stop-color:#939598"/>
    <stop offset="0.54" style="stop-color:#CCCCCC"/>
    <stop offset="0.72" style="stop-color:#939598"/>
    <stop offset="1" style="stop-color:#414042"/>
  </linearGradient>
  <path class="st0" d="M494.6,264.2v-33.8c0-5.1-3.7-9.5-8.7-10.4l-11.2-2c-4.4-0.8-7.8-4.2-8.6-8.6c-2.3-13.2-5.7-26.1-10.3-38.6 c-1.6-4.2-0.3-8.9,3.1-11.8l8.6-7.3c3.9-3.3,4.9-8.9,2.3-13.4L453,109c-2.6-4.4-7.9-6.4-12.8-4.6l-10.7,3.9 c-4.2,1.5-8.9,0.2-11.7-3.2c-8.6-10.3-18-19.7-28.3-28.3c-3.4-2.8-4.7-7.5-3.2-11.7l3.9-10.7c1.7-4.8-0.2-10.2-4.6-12.8l-29.2-16.9 c-4.4-2.6-10.1-1.6-13.4,2.3l-7.3,8.6c-2.9,3.4-7.6,4.6-11.8,3.1c-12.5-4.6-25.5-8.1-38.7-10.3c-4.4-0.7-7.9-4.2-8.6-8.6l-2-11.1 c-0.9-5-5.3-8.7-10.4-8.7h-33.8c-5.1,0-9.5,3.7-10.4,8.7l-2,11.1c-0.8,4.4-4.2,7.8-8.6,8.6c-13.2,2.3-26.1,5.7-38.6,10.3 c-4.2,1.5-8.9,0.3-11.8-3.1l-7.3-8.6c-3.3-3.9-8.9-4.9-13.3-2.3L109,41.6c-4.5,2.5-6.5,7.9-4.7,12.8l3.9,10.7 c1.5,4.2,0.2,8.9-3.2,11.7c-10.3,8.6-19.7,18-28.3,28.3c-2.8,3.4-7.5,4.7-11.7,3.2l-10.7-3.9c-4.8-1.7-10.2,0.2-12.8,4.6l-16.9,29.3 c-2.6,4.4-1.6,10.1,2.3,13.4l8.6,7.3c3.4,2.9,4.6,7.6,3.1,11.8c-4.6,12.5-8.1,25.5-10.3,38.6c-0.7,4.4-4.2,7.9-8.6,8.6l-11.2,2 c-5,0.9-8.7,5.3-8.7,10.4v33.8c0,5.1,3.7,9.5,8.7,10.4l11.2,2c4.4,0.8,7.8,4.2,8.6,8.6c2.3,13.2,5.7,26.1,10.3,38.7 c1.6,4.2,0.3,8.9-3.1,11.8l-8.6,7.3c-3.9,3.3-4.9,8.9-2.3,13.4l16.9,29.3c2.6,4.4,7.9,6.4,12.8,4.6l10.7-3.9 c4.2-1.5,8.9-0.2,11.7,3.2c8.6,10.3,18,19.7,28.3,28.3c3.4,2.8,4.7,7.5,3.2,11.7l-3.9,10.7c-1.7,4.8,0.2,10.2,4.6,12.8l29.4,16.9 c4.4,2.6,10.1,1.6,13.4-2.3l7.3-8.6c2.9-3.4,7.6-4.7,11.8-3.1c12.5,4.6,25.4,8.1,38.6,10.3c4.4,0.7,7.9,4.2,8.6,8.6l2,11.2 c0.9,5,5.3,8.7,10.4,8.7h33.8c5.1,0,9.5-3.7,10.4-8.7l2-11.2c0.8-4.4,4.2-7.8,8.6-8.6c13.2-2.3,26.1-5.7,38.7-10.3 c4.2-1.5,8.9-0.3,11.8,3.1l7.3,8.6c3.3,3.9,9,4.9,13.4,2.4l29.3-16.9c4.4-2.6,6.4-7.9,4.6-12.8l-3.9-10.7c-1.5-4.2-0.2-8.9,3.2-11.7 c10.3-8.6,19.7-18,28.3-28.3c2.8-3.4,7.5-4.7,11.7-3.2l10.7,3.9c4.8,1.7,10.2-0.2,12.8-4.7l16.9-29.3c2.6-4.4,1.6-10.1-2.3-13.4 l-8.6-7.3c-3.4-2.9-4.6-7.6-3.1-11.8c4.6-12.5,8.1-25.5,10.3-38.7c0.7-4.4,4.2-7.9,8.6-8.6l11.2-2 C490.9,273.7,494.6,269.3,494.6,264.2z"/>
  <path class="st1" d="M88.8,91.8c-4.2,4.3-8.2,8.7-12.1,13.2c-2.8,3.4-7.5,4.7-11.7,3.2l-10.7-3.9c-4.8-1.7-10.2,0.2-12.8,4.6 l-16.9,29.3c-2.6,4.4-1.6,10.1,2.3,13.4l8.6,7.3c3.4,2.9,4.6,7.6,3.1,11.8c-4.6,12.5-8.1,25.5-10.3,38.6c-0.7,4.4-4.2,7.9-8.6,8.6 l-11.2,2c-5,0.9-8.7,5.3-8.7,10.4v33.8c0,5.1,3.7,9.5,8.7,10.4l11.2,2c4.4,0.8,7.8,4.2,8.6,8.6c2.3,13.2,5.7,26.1,10.3,38.7 c1.6,4.2,0.3,8.9-3.1,11.8l-8.6,7.3c-3.9,3.3-4.9,8.9-2.3,13.4l16.9,29.3c2.6,4.4,7.9,6.4,12.8,4.6l10.7-3.9 c4.2-1.5,8.9-0.2,11.7,3.2c2.1,2.5,4.2,4.9,6.4,7.3C106.4,333.5,135.1,215.4,88.8,91.8z"/>
  <path class="st2" d="M108.2,429.6l-3.9,10.7c-1.7,4.8,0.2,10.2,4.6,12.8l29.4,16.9c4.4,2.6,10.1,1.6,13.4-2.3l7.3-8.6 c2.9-3.4,7.6-4.7,11.8-3.1c12.5,4.6,25.4,8.1,38.6,10.3c4.4,0.7,7.9,4.2,8.6,8.6l2,11.2c0.9,5,5.3,8.7,10.4,8.7h33.8 c5.1,0,9.5-3.7,10.4-8.7l2-11.2c0.8-4.4,4.2-7.8,8.6-8.6c13.2-2.3,26.1-5.7,38.7-10.3c4.2-1.5,8.9-0.3,11.8,3.1l7.3,8.6 c3.3,3.9,9,4.9,13.4,2.4l29.3-16.9c4.4-2.6,6.4-7.9,4.6-12.8l-3.9-10.7c-1.5-4.2-0.2-8.9,3.2-11.7c10.3-8.6,19.7-18,28.3-28.3 c2.8-3.4,7.5-4.7,11.7-3.2l10.7,3.9c4.8,1.7,10.2-0.2,12.8-4.7l16.9-29.3c2.6-4.4,1.6-10.1-2.3-13.4l-8.6-7.3 c-3.4-2.9-4.6-7.6-3.1-11.8c4.6-12.5,8.1-25.5,10.3-38.7c0.7-4.4,4.2-7.9,8.6-8.6l11.2-2c5-0.9,8.7-5.3,8.7-10.4v-15.3 C303,253.8,163.5,367.4,107.7,421.3C109,423.9,109.2,426.9,108.2,429.6z"/>
  <path class="st3" d="M455.8,170.7c-1.6-4.2-0.3-8.9,3.1-11.8l8.6-7.3c3.9-3.3,4.9-8.9,2.3-13.4L453,109c-2.6-4.4-7.9-6.4-12.8-4.6 l-10.7,3.9c-4.2,1.5-8.9,0.2-11.7-3.2c-8.6-10.3-18-19.7-28.3-28.3c-3.4-2.8-4.7-7.5-3.2-11.7l3.9-10.7c1.7-4.8-0.2-10.2-4.6-12.8 l-29.2-16.9c-4.4-2.6-10.1-1.6-13.4,2.3l-7.3,8.6c-2.9,3.4-7.6,4.6-11.8,3.1c-12.5-4.6-25.5-8.1-38.7-10.3c-4.4-0.7-7.9-4.2-8.6-8.6 l-2-11.1c-0.9-5-5.3-8.7-10.4-8.7h-33.8c-5.1,0-9.5,3.7-10.4,8.7l-2,11.1c-0.8,4.4-4.2,7.8-8.6,8.6c-13.2,2.3-26.1,5.7-38.6,10.3 c-4.2,1.5-8.9,0.3-11.8-3.1l-7.3-8.6c-3.3-3.9-8.9-4.9-13.3-2.3l-23.7,13.7c119.7,124,279.5,149.7,348.2,154.9 C460.9,185.6,458.5,178.1,455.8,170.7z"/>
  <circle class="st4" cx="247.3" cy="247.3" r="182.6"/>
  <circle class="st5" cx="247.3" cy="247.3" r="167.1"/>
  <path class="st6" d="M253.4,399.2V273.9h42v117.7C281.8,396.1,267.7,398.7,253.4,399.2z"/>
  <path class="st6" d="M363.5,345.4V209.9h-42V380C337.5,371.1,351.7,359.3,363.5,345.4z"/>
  <path class="st6" d="M117.2,326.1c10.8,17.7,25.1,33.1,42,45.1v-82.9h-42V326.1z"/>
  <path class="st6" d="M185.3,386.2c13.3,6,27.5,10,42,11.9V244.1h-42V386.2z"/>
  <g class="st7">
    <path class="st8" d="M602.7,57.2v25.5h85.5v26.8h-85.5v49.3h-33.6V30.4h119.1v26.8H602.7z" style="fill: rgb(255, 255, 255);"/>
    <path class="st8" d="M708.7,158.8V30.4h33.6v128.4H708.7z" style="fill: rgb(255, 255, 255);"/>
    <path class="st8" d="M800.9,57.2v25.5h72.9v26.8h-72.9v16.3c0,3.5,2.8,6.3,6.3,6.3h79.2v26.8H799c-17.5,0-31.6-14.2-31.6-31.6 V30.4h119.1v26.8H800.9z" style="fill: rgb(255, 255, 255);"/>
    <path class="st8" d="M993.3,132v26.8h-85.5V30.4h33.6V132H993.3z" style="fill: rgb(255, 255, 255);"/>
    <path class="st8" d="M1127.7,94.7c0,31.7-7.1,64.2-59.8,64.2v-0.1h-59.3V30.4h59.3v0.1C1120.6,30.5,1127.7,62.9,1127.7,94.7z M1094.2,94.7c0-28-4.6-37.5-26.3-37.5h-25.7V132h25.7C1089.6,132,1094.2,122.7,1094.2,94.7z" style="fill: rgb(255, 255, 255);"/>
  </g>
  <g class="st7">
    <path class="st8" d="M682.9,268.6c-4.3,24.2-18.1,44-58,44c-52.7,0-59.8-34.5-59.8-68.2c0-33.7,7.1-68.2,59.8-68.2 c39.8,0,53.6,19.7,58,43.8l-33,4.8c-2.7-15.4-10-18-25-18c-20,0-26.3,4.4-26.3,37.5c0,33.1,6.3,37.3,26.3,37.3 c15.1,0,22.4-2.5,25.1-18L682.9,268.6z" style="fill: rgb(255, 255, 255);"/>
    <path class="st8" d="M818.2,244.5c0,33.7-7.1,68.2-59.8,68.2c-52.7,0-59.8-34.5-59.8-68.2c0-33.7,7.1-68.2,59.8-68.2 C811.1,176.3,818.2,210.7,818.2,244.5z M784.7,244.5c0-33.1-6.3-41.4-26.3-41.4c-20,0-26.3,8.4-26.3,41.4 c0,33.1,6.3,41.4,26.3,41.4C778.4,285.9,784.7,277.5,784.7,244.5z" style="fill: rgb(255, 255, 255);"/>
    <path class="st8" d="M965.5,180.2v128.4h-36.7l-55.1-77.4v77.4h-33.6V180.2h38.2l53.7,75.3v-75.3H965.5z" style="fill: rgb(255, 255, 255);"/>
    <path class="st8" d="M1100.1,180.2V207h-42.8v101.6h-33.6V207H981v-26.8H1100.1z" style="fill: rgb(255, 255, 255);"/>
  </g>
  <g class="st7">
    <path class="st8" d="M1212.1,255.1L1212.1,255.1l22.6,53.4h-33.6l-18.9-44.5l-33.1,9.9v34.6h-33.6V180.2h87.5 c17.5,0,31.6,14.2,31.6,31.6v13C1234.7,238.8,1225.5,251.2,1212.1,255.1z M1201.1,225.8v-15.7c0-1.7-1.4-3.2-3.2-3.2h-48.8v39 l47.5-14.1C1199.3,231,1201.1,228.6,1201.1,225.8L1201.1,225.8z" style="fill: rgb(255, 255, 255);"/>
  </g>
  <g class="st7">
    <path class="st8" d="M1368,244.5c0,33.7-7.1,68.2-59.8,68.2c-52.7,0-59.8-34.5-59.8-68.2c0-33.7,7.1-68.2,59.8-68.2 C1360.9,176.3,1368,210.7,1368,244.5z M1334.4,244.5c0-33.1-6.3-41.4-26.3-41.4c-20,0-26.3,8.4-26.3,41.4 c0,33.1,6.3,41.4,26.3,41.4C1328.1,285.9,1334.4,277.5,1334.4,244.5z" style="fill: rgb(255, 255, 255);"/>
    <path class="st8" d="M1475.4,281.8v26.8h-85.5V180.2h33.6v101.6H1475.4z" style="fill: rgb(255, 255, 255);"/>
  </g>
  <g class="st7">
    <path class="st8" d="M688.2,361.6v13c0,14-9.2,26.3-22.6,30.3l-62.9,18.8v34.6h-33.6V330h87.5C674.1,330,688.2,344.1,688.2,361.6z M654.7,375.5v-15.7c0-1.7-1.4-3.2-3.2-3.2h-48.8v39l47.5-14.1C652.8,380.8,654.7,378.3,654.7,375.5L654.7,375.5z" style="fill: rgb(255, 255, 255);"/>
  </g>
  <g class="st7">
    <path class="st8" d="M803.2,404.9L803.2,404.9l22.6,53.4h-33.6l-18.9-44.5l-33.1,9.9v34.6h-33.6V330h87.5 c17.5,0,31.6,14.2,31.6,31.6v13C825.8,388.6,816.6,400.9,803.2,404.9z M792.2,375.5v-15.7c0-1.7-1.4-3.2-3.2-3.2h-48.8v39 l47.5-14.1C790.4,380.8,792.2,378.3,792.2,375.5L792.2,375.5z" style="fill: rgb(255, 255, 255);"/>
  </g>
  <g class="st7">
    <path class="st8" d="M959.1,394.2c0,33.7-7.1,68.2-59.8,68.2c-52.7,0-59.8-34.5-59.8-68.2c0-33.7,7.1-68.2,59.8-68.2 C952,326.1,959.1,360.5,959.1,394.2z M925.5,394.2c0-33.1-6.3-41.4-26.3-41.4c-20,0-26.3,8.4-26.3,41.4c0,33.1,6.3,41.4,26.3,41.4 C919.2,435.6,925.5,427.3,925.5,394.2z" style="fill: rgb(255, 255, 255);"/>
  </g>
  <path class="st9" d="M 602.7 57.2 L 602.7 82.7 L 688.2 82.7 L 688.2 109.5 L 602.7 109.5 L 602.7 158.9 L 569.1 158.9 L 569.1 30.4 L 688.2 30.4 L 688.2 57.2 L 602.7 57.2 Z" style="fill: rgb(255, 255, 255);"/>
  <path class="st10" d="M 708.7 158.8 L 708.7 30.4 L 742.3 30.4 L 742.3 158.8 L 708.7 158.8 Z" style="fill: rgb(255, 255, 255);"/>
  <path class="st11" d="M 800.9 57.2 L 800.9 82.7 L 873.8 82.7 L 873.8 109.5 L 800.9 109.5 L 800.9 125.8 C 800.9 129.3 803.7 132.1 807.2 132.1 L 886.4 132.1 L 886.4 158.9 L 799 158.9 C 781.5 158.9 767.4 144.7 767.4 127.3 C 767.4 127.3 767.4 127.3 767.4 127.3 L 767.4 30.4 L 886.5 30.4 L 886.5 57.2 L 800.9 57.2 Z" style="fill: rgb(255, 255, 255);"/>
  <path class="st12" d="M 993.3 132 L 993.3 158.8 L 907.8 158.8 L 907.8 30.4 L 941.3 30.4 L 941.3 132 L 993.3 132 Z" style="fill: rgb(255, 255, 255);"/>
  <path class="st13" d="M 1127.7 94.7 C 1127.7 126.4 1120.6 158.9 1067.9 158.9 L 1067.9 158.9 L 1008.6 158.9 L 1008.6 30.4 L 1067.9 30.4 L 1067.9 30.5 C 1120.6 30.5 1127.7 62.9 1127.7 94.7 Z M 1094.2 94.7 C 1094.2 66.7 1089.6 57.2 1067.9 57.2 L 1042.2 57.2 L 1042.2 132 L 1067.9 132 C 1089.6 132 1094.2 122.7 1094.2 94.7 Z" style="fill: rgb(255, 255, 255);"/>
  <path class="st14" d="M 682.9 268.6 C 678.6 292.8 664.8 312.6 624.9 312.6 C 572.2 312.6 565.1 278.1 565.1 244.4 C 565.1 210.7 572.2 176.2 624.9 176.2 C 664.7 176.2 678.5 195.9 682.9 220 L 649.9 224.8 C 647.2 209.4 639.9 206.8 624.9 206.8 C 604.9 206.8 598.6 211.2 598.6 244.3 C 598.6 277.4 604.9 281.6 624.9 281.6 C 640 281.6 647.3 279.1 650 263.6 L 682.9 268.6 Z" style="fill: rgb(255, 255, 255);"/>
  <path class="st15" d="M 818.2 244.5 C 818.2 278.2 811.1 312.7 758.4 312.7 C 705.7 312.7 698.6 278.2 698.6 244.5 C 698.6 210.8 705.7 176.3 758.4 176.3 C 811.1 176.3 818.2 210.7 818.2 244.5 Z M 784.7 244.5 C 784.7 211.4 778.4 203.1 758.4 203.1 C 738.4 203.1 732.1 211.5 732.1 244.5 C 732.1 277.5 738.4 285.9 758.4 285.9 C 778.4 285.9 784.7 277.5 784.7 244.5 L 784.7 244.5 Z" style="fill: rgb(255, 255, 255);"/>
  <path class="st16" d="M 965.5 180.2 L 965.5 308.6 L 928.8 308.6 L 873.7 231.2 L 873.7 308.6 L 840.2 308.6 L 840.2 180.2 L 878.4 180.2 L 932.1 255.6 L 932.1 180.2 L 965.5 180.2 Z" style="fill: rgb(255, 255, 255);"/>
  <path class="st17" d="M 1100.1 180.2 L 1100.1 207 L 1057.3 207 L 1057.3 308.6 L 1023.7 308.6 L 1023.7 207 L 981 207 L 981 180.2 L 1100.1 180.2 Z" style="fill: rgb(255, 255, 255);"/>
  <path class="st18" d="M 1212.1 255.1 L 1212.1 255.1 L 1234.7 308.5 L 1201.1 308.5 L 1182.2 264 L 1149.1 273.9 L 1149.1 308.5 L 1115.5 308.5 L 1115.5 180.2 L 1203 180.2 C 1220.5 180.2 1234.6 194.4 1234.6 211.8 L 1234.6 211.8 L 1234.6 224.8 C 1234.7 238.8 1225.5 251.2 1212.1 255.1 Z M 1201.1 225.8 L 1201.1 210.2 C 1201.1 208.5 1199.7 207 1197.9 207 C 1197.9 207 1197.9 207 1197.9 207 L 1149.1 207 L 1149.1 246 L 1196.6 231.9 C 1199.3 231 1201.1 228.5 1201.1 225.8 L 1201.1 225.8 Z" style="fill: rgb(255, 255, 255);"/>
  <path class="st19" d="M 1368 244.5 C 1368 278.2 1360.9 312.7 1308.2 312.7 C 1255.5 312.7 1248.4 278.2 1248.4 244.5 C 1248.4 210.8 1255.5 176.3 1308.2 176.3 C 1360.9 176.3 1368 210.7 1368 244.5 Z M 1334.4 244.5 C 1334.4 211.4 1328.1 203.1 1308.1 203.1 C 1288.1 203.1 1281.8 211.5 1281.8 244.5 C 1281.8 277.5 1288.1 285.9 1308.1 285.9 C 1328.1 285.9 1334.4 277.5 1334.4 244.5 Z" style="fill: rgb(255, 255, 255);"/>
  <path class="st20" d="M 1475.4 281.8 L 1475.4 308.6 L 1389.9 308.6 L 1389.9 180.2 L 1423.5 180.2 L 1423.5 281.8 L 1475.4 281.8 Z" style="fill: rgb(255, 255, 255);"/>
  <path class="st21" d="M 688.2 361.6 L 688.2 374.6 C 688.2 388.6 679 400.9 665.6 404.9 L 602.6 423.7 L 602.6 458.3 L 569.1 458.3 L 569.1 330 L 656.6 330 C 674.1 330 688.2 344.1 688.2 361.6 Z M 654.7 375.6 L 654.7 359.9 C 654.7 358.2 653.3 356.7 651.5 356.7 L 602.7 356.7 L 602.7 395.7 L 650.2 381.6 C 652.8 380.8 654.7 378.3 654.7 375.6 L 654.7 375.6 Z" style="fill: rgb(255, 255, 255);"/>
  <path class="st22" d="M 803.2 404.9 L 803.2 404.9 L 825.8 458.3 L 792.3 458.3 L 773.4 413.8 L 740.3 423.7 L 740.3 458.3 L 706.7 458.3 L 706.7 330 L 794.2 330 C 811.7 330 825.8 344.2 825.8 361.6 C 825.8 361.6 825.8 361.6 825.8 361.6 L 825.8 374.6 C 825.8 388.6 816.6 400.9 803.2 404.9 Z M 792.2 375.6 L 792.2 359.9 C 792.2 358.2 790.8 356.7 789 356.7 L 740.2 356.7 L 740.2 395.7 L 787.7 381.6 C 790.4 380.8 792.2 378.3 792.2 375.6 L 792.2 375.6 Z" style="fill: rgb(255, 255, 255);"/>
  <path class="st23" d="M 959.1 394.2 C 959.1 427.9 952 462.4 899.3 462.4 C 846.6 462.4 839.5 427.9 839.5 394.2 C 839.5 360.5 846.6 326 899.3 326 C 952 326 959.1 360.5 959.1 394.2 Z M 925.5 394.2 C 925.5 361.2 919.2 352.8 899.2 352.8 C 879.2 352.8 872.9 361.2 872.9 394.2 C 872.9 427.3 879.2 435.6 899.2 435.6 C 919.2 435.6 925.5 427.3 925.5 394.2 Z" style="fill: rgb(255, 255, 255);"/>
  <path class="st24" d="M202.8,177.7c-9.4,1.5-17,8.3-19.4,17.5c-1.2,4.5-1.1,9.3,0.4,13.8l-28.8,18.2c-9.7-9-24.8-8.4-33.7,1.2 c-9,9.7-8.4,24.8,1.2,33.7c9.7,9,24.8,8.4,33.7-1.2c5.8-6.3,7.8-15.2,5.3-23.3l29-18.3c9.8,8.9,24.9,8.1,33.7-1.6 c0.4-0.4,0.8-0.9,1.1-1.3l25.3,10.5c-0.2,1.2-0.3,2.5-0.3,3.7c-0.1,13.3,10.6,24.1,23.9,24.1c13.3,0.1,24.1-10.6,24.1-23.9 c0-4.2-1.1-8.3-3.1-11.9l35.3-36.7c11.5,6.5,26.2,2.4,32.7-9.1s2.4-26.2-9.1-32.7c-4.5-2.5-9.7-3.5-14.8-2.9 c-10.8,1.3-19.3,9.7-20.9,20.5c-0.8,5.4,0.4,11,3.2,15.7l-35.1,36.4c-10.3-6.2-23.6-3.9-31.1,5.6L230.2,205c0.2-1.2,0.3-2.4,0.3-3.6 c0-13.3-10.7-24-24-24C205.2,177.4,204,177.5,202.8,177.7z M150.7,244.6c0,6.7-5.5,12.2-12.2,12.2c-6.7,0-12.2-5.5-12.2-12.2 c0-6.7,5.5-12.2,12.2-12.2C145.3,232.4,150.7,237.9,150.7,244.6z M218.6,201.4c0,6.7-5.5,12.2-12.2,12.2c-6.7,0-12.2-5.5-12.2-12.2 c0-6.7,5.5-12.2,12.2-12.2c0,0,0,0,0,0C213.2,189.2,218.6,194.7,218.6,201.4L218.6,201.4z M330,161.1c0-6.7,5.5-12.2,12.2-12.2 c6.7,0,12.2,5.5,12.2,12.2c0,6.7-5.5,12.2-12.2,12.2c0,0,0,0,0,0C335.4,173.3,330,167.9,330,161.1z M262,230.4 c0-6.7,5.5-12.2,12.2-12.2c6.7,0,12.2,5.5,12.2,12.2c0,6.7-5.5,12.2-12.2,12.2c0,0,0,0,0,0C267.5,242.6,262,237.1,262,230.4 L262,230.4z"/>
</svg>