<svg id="Layer_1" data-name="Layer 1" xmlns="http://www.w3.org/2000/svg" viewBox="0 0 176 38.83062"><title>inverted-logo-darkcolors</title><path d="M3.19592,20.11693v-.104c0-10.3443,7.65862-18.81731,18.55553-18.81731A18.7347,18.7347,0,0,1,34.08752,5.30208a3.20745,3.20745,0,0,1,1.23353,2.54726,3.15434,3.15434,0,0,1-5.03717,2.495A12.96615,12.96615,0,0,0,21.7,7.06944c-6.83622,0-11.87347,5.71818-11.87347,12.8396V20.013c0,7.12142,4.98592,12.89157,11.87347,12.89157a12.815,12.815,0,0,0,8.99512-3.48275,2.859,2.859,0,0,1,1.90178-.72761,3.02331,3.02331,0,0,1,2.98124,2.96272,3.08554,3.08554,0,0,1-1.028,2.28708,18.2675,18.2675,0,0,1-13.05575,4.88663C11.00869,38.83062,3.19592,30.56518,3.19592,20.11693Z" style="fill:#fff"/><path d="M37.89317,30.30532v-.10394c0-5.92607,4.57456-8.83681,11.20521-8.83681a22.43533,22.43533,0,0,1,7.29883,1.1437v-.676c0-3.89853-2.36439-5.97772-6.73339-5.97772A15.96025,15.96025,0,0,0,43.65,16.946a3.45815,3.45815,0,0,1-.97664.15591A2.60276,2.60276,0,0,1,40.05193,14.503a2.74516,2.74516,0,0,1,1.69622-2.49528,23.03136,23.03136,0,0,1,8.73807-1.61145c4.06062,0,7.09319,1.09173,8.995,3.067,2.0046,1.97557,2.92983,4.88631,2.92983,8.473V35.45181a2.97908,2.97908,0,0,1-3.03265,3.01468,2.82286,2.82286,0,0,1-3.03257-2.65088V34.77585a10.981,10.981,0,0,1-8.8409,4.00279C42.41632,38.77864,37.89317,35.81561,37.89317,30.30532ZM56.5,28.33007v-1.8713a17.07335,17.07335,0,0,0-6.168-1.09141c-4.0092,0-6.37368,1.71507-6.37368,4.57416v.10394c0,2.6512,2.31307,4.15838,5.29431,4.15838C53.36464,34.20384,56.5,31.81282,56.5,28.33007Z" style="fill:#fff"/><path d="M68.1693,3.119A3.07805,3.07805,0,0,1,71.25336,0a3.12156,3.12156,0,0,1,3.13539,3.119V35.34786a3.10974,3.10974,0,1,1-6.21945,0Z" style="fill:#fff"/><path d="M80.81448,3.119A3.078,3.078,0,0,1,83.89846,0a3.12163,3.12163,0,0,1,3.13547,3.119V35.34786a3.10974,3.10974,0,1,1-6.21945,0Z" style="fill:#fff"/><path d="M96.33816,3.17092a1.36869,1.36869,0,0,1,1.33643-1.35159h13.77525c4.4204,0,7.96708,1.40356,10.12591,3.587a9.6491,9.6491,0,0,1,2.72419,6.75761v.104c0,6.08166-4.47182,9.56441-10.53712,10.39628l10.22874,13.41128a1.5157,1.5157,0,0,1,.4112.93549,1.461,1.461,0,0,1-1.38784,1.40356,1.47636,1.47636,0,0,1-1.1822-.72793L110.78166,23.13193H99.011v13.931a1.33652,1.33652,0,1,1-2.67286,0Zm14.8033,17.5177c6.0138,0,10.48562-3.067,10.48562-8.31677v-.10394c0-4.88663-3.80356-7.95361-10.33147-7.95361H99.011V20.68862Z" style="fill:#fff"/><path d="M127.6943,30.51321v-.104c0-5.51,4.67738-8.62892,11.46227-8.62892a31.21273,31.21273,0,0,1,8.68658,1.1437v-1.1437c0-5.354-3.23813-8.1092-8.63517-8.1092a16.78923,16.78923,0,0,0-7.45306,1.76769,1.32879,1.32879,0,0,1-.56543.15591,1.23892,1.23892,0,0,1-1.1822-1.196,1.29361,1.29361,0,0,1,.71958-1.14338,20.12835,20.12835,0,0,1,8.63526-1.97525c3.54659,0,6.37368.98779,8.27546,2.91074a10.1309,10.1309,0,0,1,2.67278,7.48554V37.11491a1.23529,1.23529,0,1,1-2.46722,0V33.78807a11.88333,11.88333,0,0,1-10.023,5.04255C132.93712,38.83062,127.6943,36.0235,127.6943,30.51321Zm20.20034-2.23511v-3.015a34.39322,34.39322,0,0,0-8.8923-1.19567c-5.5512,0-8.63526,2.49529-8.63526,6.18593v.10394c0,3.84655,3.598,6.082,7.60721,6.082C143.32,36.43927,147.89464,33.11244,147.89464,28.2781Z" style="fill:#fff"/><path d="M157.35367,2.59923a1.52329,1.52329,0,0,1,1.542-1.55979,1.56649,1.56649,0,0,1,1.5934,1.55979v.88352a1.56642,1.56642,0,0,1-1.5934,1.55947,1.52321,1.52321,0,0,1-1.542-1.55947Zm.30838,10.18839a1.25994,1.25994,0,1,1,2.51862,0V37.11491a1.20874,1.20874,0,0,1-1.2336,1.29961,1.24879,1.24879,0,0,1-1.285-1.29961Z" style="fill:#fff"/><path d="M168.40505,1.35159A1.23786,1.23786,0,0,1,169.63874.052a1.27975,1.27975,0,0,1,1.285,1.29962V37.11491a1.2088,1.2088,0,0,1-1.23368,1.29961,1.24883,1.24883,0,0,1-1.285-1.29961Z" style="fill:#fff"/></svg>