<?xml version="1.0" encoding="utf-8"?>
<svg viewBox="3.196 1.185 32.382 37.655" xmlns="http://www.w3.org/2000/svg">
  <path d="M3.19592,20.11693v-.104c0-10.3443,7.65862-18.81731,18.55553-18.81731A18.7347,18.7347,0,0,1,34.08752,5.30208a3.20745,3.20745,0,0,1,1.23353,2.54726,3.15434,3.15434,0,0,1-5.03717,2.495A12.96615,12.96615,0,0,0,21.7,7.06944c-6.83622,0-11.87347,5.71818-11.87347,12.8396V20.013c0,7.12142,4.98592,12.89157,11.87347,12.89157a12.815,12.815,0,0,0,8.99512-3.48275,2.859,2.859,0,0,1,1.90178-.72761,3.02331,3.02331,0,0,1,2.98124,2.96272,3.08554,3.08554,0,0,1-1.028,2.28708,18.2675,18.2675,0,0,1-13.05575,4.88663C11.00869,38.83062,3.19592,30.56518,3.19592,20.11693Z" style="fill:#388aed"/>
</svg>