<svg width="177" height="39" viewBox="0 0 177 39" fill="none" xmlns="http://www.w3.org/2000/svg">
<g id="FieldPulse logo">
<g id="Mask group">
<mask id="mask0_2612_18665" style="mask-type:luminance" maskUnits="userSpaceOnUse" x="18" y="12" width="7" height="6">
<g id="Group">
<path id="Vector" d="M18.2681 12.6523H24.1323V17.982H18.2681V12.6523Z" fill="white"/>
</g>
</mask>
<g mask="url(#mask0_2612_18665)">
<g id="Group_2">
<g id="Mask group_2">
<mask id="mask1_2612_18665" style="mask-type:luminance" maskUnits="userSpaceOnUse" x="18" y="12" width="6" height="6">
<g id="Group_3">
<path id="Vector_2" d="M21.2411 17.7993C22.6155 17.7535 23.7088 16.6126 23.663 15.2156C23.6151 13.8208 22.4739 12.7486 21.0786 12.7965C19.6813 12.8423 18.6109 13.9831 18.6567 15.3801C18.7025 16.775 19.8437 17.8472 21.2411 17.7993Z" fill="white"/>
</g>
</mask>
<g mask="url(#mask1_2612_18665)">
<g id="Group_4">
<path id="Vector_3" d="M-11.584 -10.875H188.633V49.6393H-11.584V-10.875Z" fill="#00034D"/>
</g>
</g>
</g>
</g>
</g>
</g>
<g id="Mask group_3">
<mask id="mask2_2612_18665" style="mask-type:luminance" maskUnits="userSpaceOnUse" x="0" y="12" width="18" height="27">
<g id="Group_5">
<path id="Vector_4" d="M0.0556641 12.6523H17.736V38.7676H0.0556641V12.6523Z" fill="white"/>
</g>
</mask>
<g mask="url(#mask2_2612_18665)">
<g id="Group_6">
<g id="Mask group_4">
<mask id="mask3_2612_18665" style="mask-type:luminance" maskUnits="userSpaceOnUse" x="0" y="12" width="18" height="27">
<g id="Group_7">
<path id="Vector_5" d="M14.7685 12.7021H0.0556641V16.7285H2.4068V38.4905H7.17989V28.0623H15.4203V24.0359H7.17989V16.7285H12.1612C12.6735 16.7285 12.9525 17.0074 12.9525 17.5196V19.0789H17.2362V15.1691C17.2362 13.4703 16.5157 12.7021 14.7685 12.7021Z" fill="white"/>
</g>
</mask>
<g mask="url(#mask3_2612_18665)">
<g id="Group_8">
<path id="Vector_6" d="M-11.585 -10.875H188.632V49.6393H-11.585V-10.875Z" fill="#00034D"/>
</g>
</g>
</g>
</g>
</g>
</g>
<g id="Mask group_5">
<mask id="mask4_2612_18665" style="mask-type:luminance" maskUnits="userSpaceOnUse" x="17" y="19" width="10" height="20">
<g id="Group_9">
<path id="Vector_7" d="M17.2036 19.5811H26.2666V38.7677H17.2036V19.5811Z" fill="white"/>
</g>
</mask>
<g mask="url(#mask4_2612_18665)">
<g id="Group_10">
<g id="Mask group_6">
<mask id="mask5_2612_18665" style="mask-type:luminance" maskUnits="userSpaceOnUse" x="17" y="19" width="10" height="20">
<g id="Group_11">
<path id="Vector_8" d="M23.9611 33.8126V22.4309C23.9611 20.7321 23.2384 19.9639 21.5162 19.9639H17.2554V23.8737H18.5841C19.0943 23.8737 19.3754 24.1298 19.3754 24.6648V35.9986C19.3754 37.7453 20.0959 38.4677 21.7952 38.4677H26.1955V34.6038H24.7524C24.2401 34.6038 23.9611 34.3248 23.9611 33.8126Z" fill="white"/>
</g>
</mask>
<g mask="url(#mask5_2612_18665)">
<g id="Group_12">
<path id="Vector_9" d="M-11.5879 -10.875H188.629V49.6393H-11.5879V-10.875Z" fill="#00034D"/>
</g>
</g>
</g>
</g>
</g>
</g>
<g id="Mask group_7">
<mask id="mask6_2612_18665" style="mask-type:luminance" maskUnits="userSpaceOnUse" x="26" y="19" width="19" height="21">
<g id="Group_13">
<path id="Vector_10" d="M26.2661 19.3809H44.2901V39.3004H26.2661V19.3809Z" fill="white"/>
</g>
</mask>
<g mask="url(#mask6_2612_18665)">
<g id="Group_14">
<g id="Mask group_8">
<mask id="mask7_2612_18665" style="mask-type:luminance" maskUnits="userSpaceOnUse" x="26" y="19" width="19" height="20">
<g id="Group_15">
<path id="Vector_11" d="M35.9534 19.5449C30.3889 19.5449 26.5488 23.5484 26.5488 29.2486C26.5488 34.5095 30.3661 38.9544 36.5136 38.9544C41.1222 38.9544 43.9627 36.1625 43.9627 36.1625L42.0301 32.9731C42.0301 32.9731 39.8185 35.0445 36.8384 35.0445C34.0458 35.0445 31.6468 33.3458 31.274 30.0647H44.0564C44.0564 30.0647 44.173 28.9009 44.173 28.3659C44.173 23.4547 41.2617 19.5678 35.9534 19.5678M31.4136 26.8294C31.9258 24.5019 33.6023 23.082 35.9534 23.082C37.8401 23.082 39.377 24.6184 39.4457 26.8294H31.4136Z" fill="white"/>
</g>
</mask>
<g mask="url(#mask7_2612_18665)">
<g id="Group_16">
<path id="Vector_12" d="M-11.5859 -10.876H188.631V49.6383H-11.5859V-10.876Z" fill="#00034D"/>
</g>
</g>
</g>
</g>
</g>
</g>
<g id="Mask group_9">
<mask id="mask8_2612_18665" style="mask-type:luminance" maskUnits="userSpaceOnUse" x="43" y="12" width="11" height="27">
<g id="Group_17">
<path id="Vector_13" d="M43.8589 12.6523H53.455V38.7676H43.8589V12.6523Z" fill="white"/>
</g>
</mask>
<g mask="url(#mask8_2612_18665)">
<g id="Group_18">
<g id="Mask group_10">
<mask id="mask9_2612_18665" style="mask-type:luminance" maskUnits="userSpaceOnUse" x="44" y="12" width="10" height="27">
<g id="Group_19">
<path id="Vector_14" d="M51.038 33.8125V15.1691C51.038 13.4704 50.2695 12.7021 48.5702 12.7021H44.1699V16.6348H45.6131C46.1254 16.6348 46.4044 16.8909 46.4044 17.426V36.0235C46.4044 37.7681 47.125 38.4905 48.8722 38.4905H53.2246V34.6036H51.8064C51.2941 34.6036 51.013 34.3246 51.013 33.8125" fill="white"/>
</g>
</mask>
<g mask="url(#mask9_2612_18665)">
<g id="Group_20">
<path id="Vector_15" d="M-11.5869 -10.875H188.63V49.6393H-11.5869V-10.875Z" fill="#00034D"/>
</g>
</g>
</g>
</g>
</g>
</g>
<g id="Mask group_11">
<mask id="mask10_2612_18665" style="mask-type:luminance" maskUnits="userSpaceOnUse" x="53" y="12" width="22" height="28">
<g id="Group_21">
<path id="Vector_16" d="M53.6016 12.6523H74.7805V39.3005H53.6016V12.6523Z" fill="white"/>
</g>
</mask>
<g mask="url(#mask10_2612_18665)">
<g id="Group_22">
<g id="Mask group_12">
<mask id="mask11_2612_18665" style="mask-type:luminance" maskUnits="userSpaceOnUse" x="53" y="12" width="22" height="27">
<g id="Group_23">
<path id="Vector_17" d="M72.3673 33.8125V15.1691C72.3673 13.4704 71.599 12.7021 69.8998 12.7021H65.4996V16.6348H66.9426C67.4552 16.6348 67.7338 16.8909 67.7338 17.426V20.7091C67.7338 21.3128 67.7817 21.802 67.7817 21.802H67.7109C67.7109 21.802 66.4076 19.5453 62.38 19.5453C57.4674 19.5453 53.9521 23.3614 53.9521 29.249C53.9521 34.9991 57.1883 38.9547 62.1946 38.9547C66.4535 38.9547 67.9672 35.9298 67.9672 35.9298H68.038V36.6272C68.038 37.7223 68.6418 38.5134 70.3187 38.5134H74.5791V34.6036H73.1592C72.6466 34.6036 72.3673 34.3246 72.3673 33.8125ZM63.2171 35.045C60.4932 35.045 58.6315 32.7653 58.6315 29.2261C58.6315 25.5495 60.7494 23.478 63.2879 23.478C66.3847 23.478 67.8735 26.3177 67.8735 29.1803C67.8735 33.2774 65.6164 35.0221 63.2171 35.0221" fill="white"/>
</g>
</mask>
<g mask="url(#mask11_2612_18665)">
<g id="Group_24">
<path id="Vector_18" d="M-11.583 -10.875H188.634V49.6393H-11.583V-10.875Z" fill="#00034D"/>
</g>
</g>
</g>
</g>
</g>
</g>
<g id="Mask group_13">
<mask id="mask12_2612_18665" style="mask-type:luminance" maskUnits="userSpaceOnUse" x="74" y="12" width="43" height="28">
<g id="Group_25">
<path id="Vector_19" d="M74.7793 12.6523H116.461V39.3005H74.7793V12.6523Z" fill="white"/>
</g>
</mask>
<g mask="url(#mask12_2612_18665)">
<g id="Group_26">
<g id="Mask group_14">
<mask id="mask13_2612_18665" style="mask-type:luminance" maskUnits="userSpaceOnUse" x="74" y="12" width="43" height="27">
<g id="Group_27">
<path id="Vector_20" d="M114.132 33.8125V19.9638H109.522V28.4579C109.522 31.7639 107.66 34.6952 104.33 34.6952C102.05 34.6952 101.467 33.1838 101.467 30.9249V22.4079C101.467 20.732 100.746 19.9638 99.0465 19.9638H94.8548C94.39 15.5877 91.1772 12.7021 86.7056 12.7021H74.9023V16.7285H77.2558V38.4905H82.0033V29.5988H86.6827C90.5478 29.5988 93.4821 27.3649 94.5067 23.8965H96.067C96.579 23.8965 96.8582 24.1526 96.8582 24.6876V31.8805C96.8582 36.9312 99.3028 38.9319 103.26 38.9319C106.45 38.9319 108.778 36.9999 109.661 35.0679H109.732C109.732 35.0679 109.686 35.4635 109.686 35.9069V36.4191C109.686 37.7223 110.523 38.4905 112.129 38.4905H116.39V34.6036H114.946C114.434 34.6036 114.155 34.3247 114.155 33.8125M85.8455 25.5266H82.0263V16.7285H85.9144C88.5215 16.7285 90.0588 18.4274 90.0588 21.0818C90.0588 23.7799 88.5471 25.5037 85.8455 25.5037" fill="white"/>
</g>
</mask>
<g mask="url(#mask13_2612_18665)">
<g id="Group_28">
<path id="Vector_21" d="M-11.5859 -10.875H188.631V49.6393H-11.5859V-10.875Z" fill="#00034D"/>
</g>
</g>
</g>
</g>
</g>
</g>
<g id="Mask group_15">
<mask id="mask14_2612_18665" style="mask-type:luminance" maskUnits="userSpaceOnUse" x="114" y="12" width="11" height="27">
<g id="Group_29">
<path id="Vector_22" d="M114.763 12.6523H124.359V38.7676H114.763V12.6523Z" fill="white"/>
</g>
</mask>
<g mask="url(#mask14_2612_18665)">
<g id="Group_30">
<g id="Mask group_16">
<mask id="mask15_2612_18665" style="mask-type:luminance" maskUnits="userSpaceOnUse" x="115" y="12" width="10" height="27">
<g id="Group_31">
<path id="Vector_23" d="M122.072 33.8125V15.1692C122.072 13.4704 121.303 12.7021 119.604 12.7021H115.204V16.6349H116.647C117.16 16.6349 117.438 16.8909 117.438 17.426V36.0235C117.438 37.7681 118.161 38.4905 119.906 38.4905H124.261V34.6036H122.841C122.328 34.6036 122.049 34.3247 122.049 33.8125" fill="white"/>
</g>
</mask>
<g mask="url(#mask15_2612_18665)">
<g id="Group_32">
<path id="Vector_24" d="M-11.585 -10.875H188.632V49.6393H-11.585V-10.875Z" fill="#00034D"/>
</g>
</g>
</g>
</g>
</g>
</g>
<g id="Mask group_17">
<mask id="mask16_2612_18665" style="mask-type:luminance" maskUnits="userSpaceOnUse" x="124" y="19" width="17" height="21">
<g id="Group_33">
<path id="Vector_25" d="M124.893 19.3809H140.353V39.3004H124.893V19.3809Z" fill="white"/>
</g>
</mask>
<g mask="url(#mask16_2612_18665)">
<g id="Group_34">
<g id="Mask group_18">
<mask id="mask17_2612_18665" style="mask-type:luminance" maskUnits="userSpaceOnUse" x="125" y="19" width="16" height="20">
<g id="Group_35">
<path id="Vector_26" d="M130.145 24.7575C130.145 23.6625 131.262 23.0816 132.916 23.0816C133.938 23.0816 135.244 23.523 135.244 24.3849V25.2926H139.318V23.3606C139.318 20.3356 135.313 19.5195 132.823 19.5195C128.98 19.5195 125.627 21.2204 125.627 24.9199C125.627 30.9241 135.407 30.8783 135.407 33.4849C135.407 34.7194 134.311 35.3002 132.891 35.3002C129.726 35.3002 127.375 32.5771 127.375 32.5771L125.186 35.6021C125.186 35.6021 127.793 38.9081 132.891 38.9081C136.919 38.9081 140.015 36.7201 140.015 33.2517C140.015 27.0851 130.167 27.6659 130.167 24.7575" fill="white"/>
</g>
</mask>
<g mask="url(#mask17_2612_18665)">
<g id="Group_36">
<path id="Vector_27" d="M-11.5889 -10.876H188.628V49.6383H-11.5889V-10.876Z" fill="#00034D"/>
</g>
</g>
</g>
</g>
</g>
</g>
<g id="Mask group_19">
<mask id="mask18_2612_18665" style="mask-type:luminance" maskUnits="userSpaceOnUse" x="140" y="19" width="19" height="21">
<g id="Group_37">
<path id="Vector_28" d="M140.353 19.3809H158.367V39.3004H140.353V19.3809Z" fill="white"/>
</g>
</mask>
<g mask="url(#mask18_2612_18665)">
<g id="Group_38">
<g id="Mask group_20">
<mask id="mask19_2612_18665" style="mask-type:luminance" maskUnits="userSpaceOnUse" x="140" y="19" width="19" height="20">
<g id="Group_39">
<path id="Vector_29" d="M158.344 28.3176C158.344 23.4064 155.435 19.5195 150.126 19.5195C144.562 19.5195 140.722 23.523 140.722 29.2253C140.722 34.4862 144.539 38.9311 150.685 38.9311C155.295 38.9311 158.136 36.1392 158.136 36.1392L156.203 32.9498C156.203 32.9498 153.991 35.0213 151.012 35.0213C148.216 35.0213 145.82 33.3225 145.447 30.0414H158.229C158.229 30.0414 158.344 28.8776 158.344 28.3405M145.586 26.852C146.099 24.5244 147.775 23.1045 150.126 23.1045C152.013 23.1045 153.55 24.6181 153.619 26.852H145.586Z" fill="white"/>
</g>
</mask>
<g mask="url(#mask19_2612_18665)">
<g id="Group_40">
<path id="Vector_30" d="M-11.583 -10.876H188.634V49.6383H-11.583V-10.876Z" fill="#00034D"/>
</g>
</g>
</g>
</g>
</g>
</g>
<g id="Mask group_21">
<mask id="mask20_2612_18665" style="mask-type:luminance" maskUnits="userSpaceOnUse" x="156" y="14" width="8" height="7">
<g id="Group_41">
<path id="Vector_31" d="M156.88 14.251H163.277V20.6466H156.88V14.251Z" fill="white"/>
</g>
</mask>
<g mask="url(#mask20_2612_18665)">
<g id="Group_42">
<g id="Mask group_22">
<mask id="mask21_2612_18665" style="mask-type:luminance" maskUnits="userSpaceOnUse" x="157" y="14" width="7" height="7">
<g id="Group_43">
<path id="Vector_32" d="M160.857 16.5889C160.183 15.9144 159.46 15.3086 158.669 14.7964L158.063 14.3779L157.155 17.7985L157.434 18.0087C157.69 18.194 158.156 18.6124 158.507 18.9393C158.854 19.2662 159.158 19.6368 159.437 20.0094L159.648 20.2884L163.046 19.3807L162.65 18.7769C162.324 18.2419 161.51 17.2634 160.857 16.5889Z" fill="white"/>
</g>
</mask>
<g mask="url(#mask21_2612_18665)">
<g id="Group_44">
<path id="Vector_33" d="M-11.585 -10.876H188.632V49.6383H-11.585V-10.876Z" fill="#70D44B"/>
</g>
</g>
</g>
</g>
</g>
</g>
<g id="Mask group_23">
<mask id="mask22_2612_18665" style="mask-type:luminance" maskUnits="userSpaceOnUse" x="159" y="7" width="12" height="12">
<g id="Group_45">
<path id="Vector_34" d="M159.012 7.32227H170.207V18.5145H159.012V7.32227Z" fill="white"/>
</g>
</mask>
<g mask="url(#mask22_2612_18665)">
<g id="Group_46">
<g id="Mask group_24">
<mask id="mask23_2612_18665" style="mask-type:luminance" maskUnits="userSpaceOnUse" x="159" y="7" width="12" height="12">
<g id="Group_47">
<path id="Vector_35" d="M165.817 11.6311C164.212 10.0239 162.419 8.69779 160.486 7.69639L159.904 7.39453L159.043 10.6756L159.393 10.8629C160.393 11.3522 162.208 12.747 163.466 13.9816C164.677 15.1912 165.701 16.5174 166.515 17.9372L166.771 18.3806L170.055 17.5188L169.751 16.9379C169.193 15.6097 167.423 13.2134 165.817 11.6062" fill="white"/>
</g>
</mask>
<g mask="url(#mask23_2612_18665)">
<g id="Group_48">
<path id="Vector_36" d="M-11.584 -10.876H188.633V49.6383H-11.584V-10.876Z" fill="#70D44B"/>
</g>
</g>
</g>
</g>
</g>
</g>
<g id="Mask group_25">
<mask id="mask24_2612_18665" style="mask-type:luminance" maskUnits="userSpaceOnUse" x="160" y="0" width="17" height="17">
<g id="Group_49">
<path id="Vector_37" d="M160.696 0.762695H176.991V16.9161H160.696V0.762695Z" fill="white"/>
</g>
</mask>
<g mask="url(#mask24_2612_18665)">
<g id="Group_50">
<g id="Mask group_26">
<mask id="mask25_2612_18665" style="mask-type:luminance" maskUnits="userSpaceOnUse" x="160" y="0" width="17" height="17">
<g id="Group_51">
<path id="Vector_38" d="M176.432 15.1923C175.686 13.075 173.056 9.37336 170.566 6.88345C170.122 6.44209 169.658 6.02155 169.168 5.58019L168.866 5.32412C168.306 4.85777 167.725 4.39351 167.142 3.95007L166.956 3.81058C165.465 2.71759 163.86 1.78699 162.229 1.01877L161.671 0.762695L160.786 4.04375L161.181 4.23112C162.952 4.88275 166.094 7.13952 168.189 9.2339C170.286 11.3283 171.986 13.7037 173.196 16.2394L173.381 16.635L176.665 15.7502L176.432 15.1923Z" fill="white"/>
</g>
</mask>
<g mask="url(#mask25_2612_18665)">
<g id="Group_52">
<path id="Vector_39" d="M-11.5859 -10.875H188.631V49.6393H-11.5859V-10.875Z" fill="#70D44B"/>
</g>
</g>
</g>
</g>
</g>
</g>
</g>
</svg>
