<?xml version="1.0" encoding="utf-8"?>
<svg id="Layer_1" viewBox="0 0 769.9 330" style="enable-background:new 0 0 769.9 330;" xmlns="http://www.w3.org/2000/svg">
  <style>.st0{fill:#FFFFFF;}
.st1{fill:#EA0029;}</style>
  <g>
    <g>
      <path class="st0" d="M411.6 293h13.5l2 18.9h.3c.5-1.6 1-3.2 1.7-4.8l6.3-14.1h13.3l.2 36h-12.6l1.4-19.7h-.2c-.4 1.2-.9 2.4-1.4 3.6l-7.8 16.1h-7.6l-2.3-15.2c-.1-1.5-.2-3-.1-4.5h-.4c-.3 1.4-.7 2.9-1 4.3l-4 15.4h-12.6L411.6 293z" style="fill: rgb(0, 0, 0);"/>
      <path class="st0" d="M462.9 329h-13.8l18.2-36h14.5l7.1 36H475l-.5-4.5h-9.9L462.9 329zm10.7-13-.5-6.3c-.1-1.5-.1-3.1-.1-4.6h-.5l-4.1 11H473.6z" style="fill: rgb(0, 0, 0);"/>
      <path class="st0" d="M496.3 293h15.8c8.1.0 14.4 3.4 13 12.5-.9 5.4-3.3 7.7-8.4 9.4v.3c.6.5 1.3 1.1 1.9 2.1l6 11.7h-15.1l-3.9-11.5h-.2l-1.8 11.5h-12.8l5.5-36zm10.3 15.9h.9c2.1.0 4.3-.3 4.8-3 .4-2.8-1.5-3.1-3.7-3.1h-1L506.6 308.9z" style="fill: rgb(0, 0, 0);"/>
      <path class="st0" d="M531.6 293h12.7l-2.8 15.6h.3c.5-1.5 1.5-2.8 2.5-4.1l8.1-11.5h14.3l-14 17.5 9.5 18.5H547l-4.5-10.9c-.5-1.4-1.5-2.7-1.5-4.2h-.3l-2.1 15.1h-12.7L531.6 293z" style="fill: rgb(0, 0, 0);"/>
      <path class="st0" d="M569.5 293h24.2l-1.6 9.8h-11l-.5 3.4h10.1l-1.5 9.4h-10.1l-.6 3.5H590l-1.6 9.8h-24.6L569.5 293z" style="fill: rgb(0, 0, 0);"/>
      <path class="st0" d="M596.1 293h27.5l-1.9 11.7-7.2-.3-3.9 24.6h-13.1l3.9-24.6-7.3.3 2-11.7z" style="fill: rgb(0, 0, 0);"/>
      <path class="st0" d="M626.1 293h13.1l-5.7 36h-13.1L626.1 293z" style="fill: rgb(0, 0, 0);"/>
      <path class="st0" d="M644.1 293h12.5l8.6 19.9h.4c0-3-.1-6.1.4-9.2l1.7-10.8h12.5l-5.7 36H662l-8.5-18.9h-.4c0 2.5.0 4.8-.3 7.2l-1.9 11.7h-12.5L644.1 293z" style="fill: rgb(0, 0, 0);"/>
      <path class="st0" d="M720.6 307.8c-1 5.9-1.8 10.8-6.8 15.4-4.5 4.2-10.7 6.4-16.3 6.4-11 0-18.8-6.8-16.9-18.3 1.9-11.7 11.6-18.8 22.9-18.8 6.3.0 14.3 3.1 16.2 9.3l-12.9 4.5c-.7-1.8-2.4-2.8-4.5-2.8-4.7.0-7.9 4-8.6 8.4-.6 4 1.3 7.7 5.5 7.7 2.1.0 4.8-1 5.8-3.1h-5.9l1.3-8.5H720.6z" style="fill: rgb(0, 0, 0);"/>
    </g>
    <g>
      <path class="st1" d="M47 5.3h60.6c85.8.0 123.5 54 110.2 138.3C197.5 272.2 114.7 284 68.8 284H3L47 5.3zM89.2 216.7c34.4-.4 47-43.3 51.4-69.5 4.8-30.3 5.5-72.5-28.8-72.5l-22.6 142z"/>
      <path class="st1" d="M341.3.4c76.5.0 94.7 76.2 83.9 144.2-10.7 68-52.9 144.2-129.4 144.2s-94.3-76.2-83.6-144.2S264.8.4 341.3.4zM306.9 218.6c28.5.0 38.5-56.6 41.4-73.9 2.6-17.4 10.4-73.9-18.1-73.9s-38.5 56.6-41 73.9C286.2 162 278.5 218.6 306.9 218.6z"/>
      <path class="st1" d="M400.1 284l44-278.8h68.8c65.8.0 113.1 21.4 101.7 94.7-11.5 72.5-59.5 94.7-124.6 92.8L475.5 284H400.1zM515.8 65.2l-5.5.4-10.4 64.3c20.7 1.1 35.1-10.4 38.5-31.1C541.4 81.1 534.3 64 515.8 65.2z"/>
      <path class="st1" d="M626.8 5.3h140.1l-10.4 65.8h-64.7l-5.9 38.8h58l-10.7 65.8h-58l-6.7 42.5h64.7L722.9 284H582.8l44-278.7z"/>
    </g>
  </g>
</svg>