<?xml version="1.0" encoding="utf-8"?>
<svg viewBox="33.756 0 33.628 33.696" xmlns="http://www.w3.org/2000/svg">
  <path d="M 65.009 21.347 C 65.009 26.854 60.555 31.316 55.06 31.316 L 40.954 31.316 C 40.774 31.316 40.629 31.173 40.629 30.993 L 40.629 12.348 C 40.629 9.333 43.068 6.887 46.078 6.887 L 55.545 6.887 C 55.769 6.887 55.926 7.114 55.847 7.324 L 55.299 8.807 C 55.251 8.934 55.129 9.017 54.994 9.017 L 46.539 9.017 C 44.449 9.017 42.756 10.716 42.756 12.807 L 42.756 28.86 C 42.756 29.04 42.9 29.184 43.078 29.184 L 55.06 29.184 C 59.382 29.184 62.883 25.676 62.883 21.347 L 62.883 4.845 C 62.883 4.554 63.232 4.409 63.435 4.614 L 64.915 6.096 C 64.977 6.157 65.009 6.239 65.009 6.324 L 65.009 21.347 Z M 45.129 21.973 L 45.129 12.807 C 45.129 12.027 45.76 11.396 46.539 11.396 L 55.686 11.396 C 55.864 11.396 56.009 11.54 56.009 11.72 L 56.009 20.886 C 56.009 21.666 55.378 22.299 54.601 22.299 L 45.454 22.299 C 45.276 22.299 45.129 22.153 45.129 21.973 Z M 38.256 12.348 L 38.256 28.851 C 38.256 29.142 37.905 29.284 37.7 29.082 L 36.225 27.599 C 36.163 27.539 36.127 27.457 36.127 27.369 L 36.127 12.348 C 36.127 6.841 40.583 2.38 46.078 2.38 L 60.186 2.38 C 60.364 2.38 60.509 2.524 60.509 2.703 L 60.509 21.347 C 60.509 24.361 58.069 26.807 55.06 26.807 L 45.595 26.807 C 45.369 26.807 45.214 26.581 45.291 26.367 L 45.841 24.888 C 45.888 24.762 46.009 24.675 46.144 24.675 L 54.601 24.675 C 56.689 24.675 58.383 22.979 58.383 20.886 L 58.383 4.834 C 58.383 4.656 58.24 4.509 58.06 4.509 L 46.078 4.509 C 41.757 4.509 38.256 8.02 38.256 12.348 Z M 62.473 0.285 C 62.29 0.105 62.043 0 61.785 0 L 46.078 0 C 39.274 0 33.756 5.529 33.756 12.348 L 33.756 28.084 C 33.756 28.341 33.855 28.593 34.038 28.774 L 38.664 33.41 C 38.846 33.591 39.096 33.696 39.352 33.696 L 55.06 33.696 C 61.866 33.696 67.384 28.164 67.384 21.347 L 67.384 5.607 C 67.384 5.35 67.281 5.103 67.098 4.92 L 62.473 0.285 Z" fill="#032A3A"/>
</svg>