<?xml version="1.0" encoding="utf-8"?>
<svg viewBox="0 0 98.461 60" xmlns="http://www.w3.org/2000/svg">
  <path d="M 60.678 55.834 C 60.429 56.073 59.944 56.189 59.232 56.189 L 57.729 56.189 C 57.468 56.189 57.255 55.979 57.255 55.719 L 57.255 53.906 C 57.255 53.644 57.468 53.434 57.729 53.434 L 59.232 53.434 C 59.944 53.434 60.429 53.554 60.678 53.793 C 60.934 54.029 61.06 54.373 61.06 54.825 C 61.06 55.259 60.934 55.596 60.678 55.834 Z M 57.255 48.497 C 57.255 48.237 57.468 48.024 57.729 48.024 L 59.124 48.024 C 59.713 48.024 60.114 48.123 60.323 48.32 C 60.532 48.519 60.64 48.797 60.64 49.16 C 60.64 49.526 60.532 49.807 60.323 50.003 C 60.114 50.202 59.713 50.297 59.124 50.297 L 57.729 50.297 C 57.468 50.297 57.255 50.087 57.255 49.824 L 57.255 48.497 Z M 63.92 51.999 C 63.654 51.825 63.634 51.437 63.885 51.239 C 64.233 50.958 64.501 50.641 64.693 50.287 C 64.987 49.747 65.134 49.134 65.134 48.446 C 65.134 47.928 65.049 47.434 64.88 46.963 C 64.716 46.493 64.431 46.083 64.032 45.732 C 63.636 45.38 63.1 45.105 62.427 44.9 C 61.755 44.697 60.917 44.595 59.914 44.595 L 53.382 44.595 C 53.12 44.595 52.909 44.807 52.909 45.067 L 52.909 59.148 C 52.909 59.409 53.12 59.622 53.382 59.622 L 59.723 59.622 C 60.816 59.622 61.729 59.502 62.47 59.263 C 63.213 59.025 63.814 58.701 64.273 58.296 C 64.735 57.888 65.063 57.419 65.26 56.884 C 65.455 56.352 65.554 55.791 65.554 55.201 C 65.554 53.775 65.007 52.709 63.92 51.999 Z" fill="#032A3A"/>
  <path d="M 80.721 55.937 L 74.826 55.937 C 74.565 55.937 74.355 55.727 74.355 55.464 L 74.355 54.348 C 74.355 54.086 74.565 53.876 74.826 53.876 L 79.932 53.876 C 80.193 53.876 80.403 53.663 80.403 53.403 L 80.403 50.664 C 80.403 50.404 80.193 50.194 79.932 50.194 L 74.826 50.194 C 74.565 50.194 74.355 49.981 74.355 49.722 L 74.355 48.753 C 74.355 48.489 74.565 48.28 74.826 48.28 L 80.352 48.28 C 80.613 48.28 80.823 48.066 80.823 47.805 L 80.823 45.067 C 80.823 44.807 80.613 44.595 80.352 44.595 L 70.143 44.595 C 69.883 44.595 69.67 44.807 69.67 45.067 L 69.67 59.148 C 69.67 59.409 69.883 59.622 70.143 59.622 L 80.457 59.622 C 80.7 59.622 80.903 59.437 80.927 59.194 L 81.193 56.457 C 81.222 56.177 81.001 55.937 80.721 55.937 Z" fill="#032A3A"/>
  <path d="M 92.932 50.93 C 92.634 51.195 92.127 51.327 91.42 51.327 L 90.304 51.327 C 90.045 51.327 89.833 51.119 89.833 50.857 L 89.833 48.603 C 89.833 48.343 90.045 48.13 90.304 48.13 L 91.42 48.13 C 92.127 48.13 92.634 48.263 92.932 48.531 C 93.232 48.797 93.381 49.197 93.381 49.73 C 93.381 50.265 93.232 50.661 92.932 50.93 Z M 98.404 58.923 L 95.871 54.225 C 95.761 54.02 95.814 53.766 95.997 53.628 C 96.541 53.214 96.975 52.707 97.3 52.107 C 97.684 51.393 97.875 50.529 97.875 49.518 C 97.875 48.846 97.776 48.207 97.572 47.603 C 97.368 47.001 97.027 46.48 96.552 46.035 C 96.075 45.596 95.448 45.244 94.669 44.985 C 93.891 44.724 92.927 44.595 91.777 44.595 L 85.81 44.595 C 85.549 44.595 85.338 44.807 85.338 45.067 L 85.338 59.148 C 85.338 59.409 85.549 59.622 85.81 59.622 L 89.36 59.622 C 89.623 59.622 89.833 59.409 89.833 59.148 L 89.833 55.273 C 89.833 55.014 90.045 54.8 90.304 54.8 L 91.22 54.8 C 91.398 54.8 91.563 54.903 91.641 55.065 L 93.778 59.357 C 93.855 59.519 94.021 59.622 94.2 59.622 L 97.989 59.622 C 98.346 59.622 98.574 59.237 98.404 58.923 Z" fill="#032A3A"/>
  <path d="M 12.253 44.595 L 8.427 44.595 C 8.167 44.595 7.959 44.808 7.959 45.067 L 7.959 54.001 C 7.959 54.591 7.837 55.056 7.589 55.39 C 7.344 55.728 6.943 55.897 6.381 55.897 C 5.823 55.897 5.412 55.703 5.152 55.317 C 4.947 55.013 4.815 54.607 4.755 54.105 C 4.727 53.867 4.526 53.687 4.287 53.687 L 0.472 53.687 C 0.195 53.687 -0.017 53.925 0.001 54.198 C 0.132 55.997 0.683 57.393 1.659 58.379 C 2.72 59.459 4.297 60 6.381 60 C 8.355 60 9.907 59.475 11.035 58.431 C 12.162 57.386 12.726 55.842 12.726 53.793 L 12.726 45.067 C 12.726 44.808 12.516 44.595 12.253 44.595 Z" fill="#032A3A"/>
  <path d="M 24.383 55.897 C 22.633 55.897 21.76 54.636 21.76 52.107 C 21.76 49.583 22.633 48.32 24.383 48.32 C 26.134 48.32 27.009 49.583 27.009 52.107 C 27.009 54.636 26.134 55.897 24.383 55.897 Z M 30.021 46.302 C 29.387 45.626 28.603 45.113 27.67 44.754 C 26.74 44.397 25.665 44.217 24.446 44.217 C 23.202 44.217 22.1 44.403 21.149 44.775 C 20.199 45.146 19.398 45.678 18.756 46.374 C 18.111 47.067 17.628 47.903 17.304 48.88 C 16.983 49.854 16.821 50.95 16.821 52.173 C 16.821 53.393 16.983 54.487 17.304 55.455 C 17.628 56.421 18.107 57.243 18.743 57.915 C 19.381 58.589 20.166 59.106 21.097 59.463 C 22.027 59.821 23.103 60 24.32 60 C 25.567 60 26.664 59.814 27.617 59.443 C 28.57 59.073 29.364 58.542 30.001 57.853 C 30.64 57.167 31.123 56.328 31.45 55.337 C 31.78 54.35 31.944 53.244 31.944 52.024 C 31.944 50.805 31.785 49.714 31.461 48.753 C 31.138 47.793 30.66 46.974 30.021 46.302 Z" fill="#032A3A"/>
  <path d="M 43.917 55.834 C 43.667 56.073 43.183 56.189 42.469 56.189 L 40.967 56.189 C 40.704 56.189 40.494 55.979 40.494 55.719 L 40.494 53.906 C 40.494 53.644 40.704 53.434 40.967 53.434 L 42.469 53.434 C 43.183 53.434 43.667 53.554 43.917 53.793 C 44.17 54.029 44.295 54.373 44.295 54.825 C 44.295 55.259 44.17 55.596 43.917 55.834 Z M 40.494 48.497 C 40.494 48.237 40.704 48.024 40.967 48.024 L 42.363 48.024 C 42.951 48.024 43.353 48.123 43.561 48.32 C 43.769 48.519 43.875 48.797 43.875 49.16 C 43.875 49.526 43.769 49.807 43.561 50.003 C 43.353 50.202 42.951 50.297 42.363 50.297 L 40.967 50.297 C 40.704 50.297 40.494 50.087 40.494 49.824 L 40.494 48.497 Z M 47.158 51.999 C 46.893 51.825 46.87 51.437 47.12 51.239 C 47.469 50.958 47.74 50.641 47.931 50.287 C 48.225 49.747 48.37 49.134 48.37 48.446 C 48.37 47.928 48.287 47.434 48.118 46.963 C 47.952 46.493 47.667 46.083 47.269 45.732 C 46.872 45.38 46.335 45.105 45.666 44.9 C 44.994 44.697 44.155 44.595 43.15 44.595 L 36.617 44.595 C 36.358 44.595 36.146 44.807 36.146 45.067 L 36.146 59.148 C 36.146 59.409 36.358 59.622 36.617 59.622 L 42.961 59.622 C 44.052 59.622 44.966 59.502 45.708 59.263 C 46.449 59.025 47.05 58.701 47.511 58.296 C 47.974 57.888 48.301 57.419 48.495 56.884 C 48.694 56.352 48.79 55.791 48.79 55.201 C 48.79 53.775 48.247 52.709 47.158 51.999 Z" fill="#032A3A"/>
  <path d="M 65.009 21.347 C 65.009 26.854 60.555 31.316 55.06 31.316 L 40.954 31.316 C 40.774 31.316 40.629 31.173 40.629 30.993 L 40.629 12.348 C 40.629 9.333 43.068 6.887 46.078 6.887 L 55.545 6.887 C 55.769 6.887 55.926 7.114 55.847 7.324 L 55.299 8.807 C 55.251 8.934 55.129 9.017 54.994 9.017 L 46.539 9.017 C 44.449 9.017 42.756 10.716 42.756 12.807 L 42.756 28.86 C 42.756 29.04 42.9 29.184 43.078 29.184 L 55.06 29.184 C 59.382 29.184 62.883 25.676 62.883 21.347 L 62.883 4.845 C 62.883 4.554 63.232 4.409 63.435 4.614 L 64.915 6.096 C 64.977 6.157 65.009 6.239 65.009 6.324 L 65.009 21.347 Z M 45.129 21.973 L 45.129 12.807 C 45.129 12.027 45.76 11.396 46.539 11.396 L 55.686 11.396 C 55.864 11.396 56.009 11.54 56.009 11.72 L 56.009 20.886 C 56.009 21.666 55.378 22.299 54.601 22.299 L 45.454 22.299 C 45.276 22.299 45.129 22.153 45.129 21.973 Z M 38.256 12.348 L 38.256 28.851 C 38.256 29.142 37.905 29.284 37.7 29.082 L 36.225 27.599 C 36.163 27.539 36.127 27.457 36.127 27.369 L 36.127 12.348 C 36.127 6.841 40.583 2.38 46.078 2.38 L 60.186 2.38 C 60.364 2.38 60.509 2.524 60.509 2.703 L 60.509 21.347 C 60.509 24.361 58.069 26.807 55.06 26.807 L 45.595 26.807 C 45.369 26.807 45.214 26.581 45.291 26.367 L 45.841 24.888 C 45.888 24.762 46.009 24.675 46.144 24.675 L 54.601 24.675 C 56.689 24.675 58.383 22.979 58.383 20.886 L 58.383 4.834 C 58.383 4.656 58.24 4.509 58.06 4.509 L 46.078 4.509 C 41.757 4.509 38.256 8.02 38.256 12.348 Z M 62.473 0.285 C 62.29 0.105 62.043 0 61.785 0 L 46.078 0 C 39.274 0 33.756 5.529 33.756 12.348 L 33.756 28.084 C 33.756 28.341 33.855 28.593 34.038 28.774 L 38.664 33.41 C 38.846 33.591 39.096 33.696 39.352 33.696 L 55.06 33.696 C 61.866 33.696 67.384 28.164 67.384 21.347 L 67.384 5.607 C 67.384 5.35 67.281 5.103 67.098 4.92 L 62.473 0.285 Z" fill="#032A3A"/>
</svg>