<svg viewBox="0 0 242 40" version="1.1" xmlns="http://www.w3.org/2000/svg" xmlns:xlink="http://www.w3.org/1999/xlink">
  <g stroke="none" stroke-width="1" fill="none" fill-rule="evenodd">
    <g transform="translate(-388.000000, -36.000000)" fill="#FFFFFF">
      <g transform="translate(388.000000, 32.000000)">
        <g transform="translate(0.000000, 0.000000)">
          <g transform="translate(0.000000, 4.000000)">
            <path d="M75.2304708,5.50129778 L67.8565927,5.50129778 C67.3543148,5.50129778 66.9472202,5.91054222 66.9472202,6.41543111 L66.9472202,23.6886756 C66.9472202,24.8280533 66.7120926,25.7229867 66.2386528,26.3741867 C65.7668053,27.0246756 64.9903003,27.35072 63.911084,27.35072 C62.8315138,27.35072 62.0419167,26.9782756 61.5419388,26.2312533 C61.1461672,25.6412089 60.8903398,24.85952 60.7746337,23.8860089 C60.7201421,23.4273422 60.3349857,23.0780089 59.8751688,23.0780089 L52.5184519,23.0780089 C51.9857437,23.0780089 51.5712185,23.5375644 51.6096103,24.0712533 C51.8599531,27.5480533 52.924485,30.2413867 54.8007291,32.1516089 C56.8517708,34.24032 59.888084,35.2849422 63.911084,35.2849422 C67.7168253,35.2849422 70.7067853,34.2744533 72.8804331,32.25312 C75.0524886,30.2328533 76.1401971,27.2426311 76.1401971,23.28192 L76.1401971,6.41543111 C76.1401971,5.91054222 75.7329256,5.50129778 75.2304708,5.50129778"></path>
            <path d="M98.6118338,27.3507733 C95.2379559,27.3507733 93.5511939,24.9097067 93.5511939,20.0272178 C93.5511939,15.1447289 95.2379559,12.7034844 98.6118338,12.7034844 C101.985712,12.7034844 103.672651,15.1447289 103.672651,20.0272178 C103.672651,24.9097067 101.985712,27.3507733 98.6118338,27.3507733 M109.483434,8.79752889 C108.255251,7.49512889 106.743817,6.49850667 104.949134,5.80641778 C103.152858,5.11539556 101.082001,4.76926222 98.7342629,4.76926222 C96.3304413,4.76926222 94.2116389,5.12872889 92.377325,5.84730667 C90.5414188,6.56588444 89.0018548,7.59646222 87.7600484,8.93975111 C86.5185958,10.2821511 85.5881698,11.8967289 84.9671781,13.7815289 C84.344771,15.66704 84.0351598,17.7889956 84.0351598,20.1484622 C84.0351598,22.5091733 84.344771,24.6241956 84.9671781,26.4956622 C85.5881698,28.3680178 86.5116959,29.9543289 87.7402333,31.2567289 C88.9685937,32.5584178 90.4800273,33.5555733 92.274711,34.2469511 C94.07081,34.93904 96.1418438,35.2849956 98.490997,35.2849956 C100.893226,35.2849956 103.012206,34.9248178 104.848112,34.20624 C106.682426,33.4881956 108.215444,32.4636622 109.443981,31.1344178 C110.672165,29.80624 111.602591,28.1841956 112.236674,26.2720178 C112.870758,24.35984 113.188685,22.22384 113.188685,19.8641956 C113.188685,17.5043733 112.879073,15.39504 112.258259,13.5369067 C111.635675,11.6796622 110.711972,10.0992178 109.483434,8.79752889"></path>
            <path d="M136.267956,27.2285511 C135.782839,27.69024 134.850644,27.92064 133.475085,27.92064 L130.578716,27.92064 C130.076262,27.92064 129.66899,27.5113956 129.66899,27.0065067 L129.66899,23.5037511 C129.66899,22.99904 130.076262,22.5897956 130.578716,22.5897956 L133.475085,22.5897956 C134.850644,22.5897956 135.782839,22.8210844 136.267956,23.2818844 C136.754664,23.7433956 136.99793,24.4081067 136.99793,25.2754844 C136.99793,26.1163733 136.754664,26.7677511 136.267956,27.2285511 L136.267956,27.2285511 Z M129.66899,13.0475733 C129.66899,12.54304 130.076262,12.1337956 130.578716,12.1337956 L133.27145,12.1337956 C134.405511,12.1337956 135.175116,12.3233067 135.580796,12.7035733 C135.984706,13.0836622 136.186749,13.6258844 136.186749,14.3304178 C136.186749,15.0365511 135.984706,15.5789511 135.580796,15.9581511 C135.175116,16.33824 134.405511,16.5279289 133.27145,16.5279289 L130.578716,16.5279289 C130.076262,16.5279289 129.66899,16.1186844 129.66899,15.6139733 L129.66899,13.0475733 Z M142.515557,19.8143289 C142.00001,19.4763733 141.961441,18.7321956 142.442311,18.3458844 C143.114079,17.8063289 143.634934,17.1933511 144.005583,16.5071289 C144.570314,15.4632178 144.85321,14.2763733 144.85321,12.9473067 C144.85321,11.9441067 144.690974,10.9876622 144.366501,10.0785067 C144.043798,9.17024 143.499059,8.37664 142.730869,7.69877333 C141.962679,7.02090667 140.931408,6.48526222 139.638472,6.09166222 C138.343766,5.69841778 136.726534,5.50126222 134.787837,5.50126222 L122.196921,5.50126222 C121.694466,5.50126222 121.287195,5.91050667 121.287195,6.41539556 L121.287195,33.6383289 C121.287195,34.14304 121.694466,34.5521067 122.196921,34.5521067 L134.425326,34.5521067 C136.526083,34.5521067 138.291044,34.3217067 139.719679,33.8601956 C141.148313,33.3993956 142.307144,32.7755733 143.19617,31.9885511 C144.085197,31.2025956 144.719281,30.2943289 145.096653,29.2628622 C145.474201,28.2324622 145.662976,27.1469511 145.662976,26.0075733 C145.662976,23.2543289 144.613128,21.1901511 142.515557,19.8143289 L142.515557,19.8143289 Z"></path>
            <path d="M168.579993,27.2285511 C168.094876,27.69024 167.162681,27.92064 165.787123,27.92064 L162.890754,27.92064 C162.388299,27.92064 161.981027,27.5113956 161.981027,27.0065067 L161.981027,23.5037511 C161.981027,22.99904 162.388299,22.5897956 162.890754,22.5897956 L165.787123,22.5897956 C167.162681,22.5897956 168.094876,22.8210844 168.579993,23.2818844 C169.066702,23.7433956 169.309968,24.4081067 169.309968,25.2754844 C169.309968,26.1163733 169.066702,26.7677511 168.579993,27.2285511 L168.579993,27.2285511 Z M161.981027,13.0475733 C161.981027,12.54304 162.388299,12.1337956 162.890754,12.1337956 L165.583487,12.1337956 C166.717548,12.1337956 167.48733,12.3233067 167.892833,12.7035733 C168.296743,13.0836622 168.498786,13.6258844 168.498786,14.3304178 C168.498786,15.0365511 168.296743,15.5789511 167.892833,15.9581511 C167.48733,16.33824 166.717548,16.5279289 165.583487,16.5279289 L162.890754,16.5279289 C162.388299,16.5279289 161.981027,16.1186844 161.981027,15.6139733 L161.981027,13.0475733 Z M174.827771,19.8143289 C174.312047,19.4763733 174.273478,18.7321956 174.754349,18.3458844 C175.426116,17.8063289 175.946971,17.1933511 176.31762,16.5071289 C176.882351,15.4632178 177.165247,14.2763733 177.165247,12.9473067 C177.165247,11.9441067 177.003011,10.9876622 176.678538,10.0785067 C176.355835,9.17024 175.811096,8.37664 175.042906,7.69877333 C174.274717,7.02090667 173.243446,6.48526222 171.950509,6.09166222 C170.655803,5.69841778 169.038571,5.50126222 167.099874,5.50126222 L154.508958,5.50126222 C154.006503,5.50126222 153.599232,5.91050667 153.599232,6.41539556 L153.599232,33.6383289 C153.599232,34.14304 154.006503,34.5521067 154.508958,34.5521067 L166.737364,34.5521067 C168.83812,34.5521067 170.603081,34.3217067 172.031716,33.8601956 C173.46035,33.3993956 174.619181,32.7755733 175.508208,31.9885511 C176.397234,31.2025956 177.031318,30.2943289 177.40869,29.2628622 C177.786239,28.2324622 177.975013,27.1469511 177.975013,26.0075733 C177.975013,23.2543289 176.925166,21.1901511 174.827771,19.8143289 L174.827771,19.8143289 Z"></path>
            <path d="M207.218502,27.4323733 L195.849931,27.4323733 C195.347653,27.4323733 194.940559,27.0231289 194.940559,26.51824 L194.940559,24.3587733 C194.940559,23.8540622 195.347653,23.4448178 195.849931,23.4448178 L205.692207,23.4448178 C206.194662,23.4448178 206.601934,23.0357511 206.601934,22.5308622 L206.601934,17.2380622 C206.601934,16.7333511 206.194662,16.3242844 205.692207,16.3242844 L195.849931,16.3242844 C195.347653,16.3242844 194.940559,15.91504 194.940559,15.4101511 L194.940559,13.5360178 C194.940559,13.0311289 195.347653,12.6218844 195.849931,12.6218844 L206.501619,12.6218844 C207.004074,12.6218844 207.411346,12.2128178 207.411346,11.7079289 L207.411346,6.41530667 C207.411346,5.91041778 207.004074,5.50135111 206.501619,5.50135111 L186.82096,5.50135111 C186.318505,5.50135111 185.911234,5.91041778 185.911234,6.41530667 L185.911234,33.63824 C185.911234,34.1429511 186.318505,34.5521956 186.82096,34.5521956 L206.706671,34.5521956 C207.17498,34.5521956 207.566859,34.1948622 207.612151,33.7265956 L208.123805,28.4348622 C208.17582,27.89744 207.755633,27.4323733 207.218502,27.4323733"></path>
            <path d="M230.758811,17.7481778 C230.182757,18.2637333 229.209339,18.5216889 227.84015,18.5216889 L225.691979,18.5216889 C225.189701,18.5216889 224.782606,18.1124444 224.782606,17.6077333 L224.782606,13.2507556 C224.782606,12.7458667 225.189701,12.3368 225.691979,12.3368 L227.84015,12.3368 C229.209339,12.3368 230.182757,12.5954667 230.758811,13.1101333 C231.336634,13.6260444 231.624838,14.3986667 231.624838,15.4290667 C231.624838,16.4607111 231.336634,17.2333333 230.758811,17.7481778 M241.306293,33.2038222 L236.422043,24.1177778 C236.210445,23.7247111 236.312529,23.2336889 236.667078,22.9641778 C237.716925,22.1663111 238.553583,21.1874667 239.177052,20.0271111 C239.918703,18.6431111 240.289529,16.9753778 240.289529,15.0224889 C240.289529,13.7199111 240.094209,12.4863111 239.701976,11.3195556 C239.309565,10.1540444 238.653897,9.14284444 237.735148,8.28844444 C236.81463,7.43422222 235.606084,6.75653333 234.104558,6.25413333 C232.604801,5.75244444 230.745719,5.50124444 228.52731,5.50124444 L217.027287,5.50124444 C216.524832,5.50124444 216.117561,5.91048889 216.117561,6.41537778 L216.117561,33.6383111 C216.117561,34.1430222 216.524832,34.5520889 217.027287,34.5520889 L223.87288,34.5520889 C224.375335,34.5520889 224.782606,34.1430222 224.782606,33.6383111 L224.782606,26.1488889 C224.782606,25.644 225.189701,25.2347556 225.691979,25.2347556 L227.45747,25.2347556 C227.802466,25.2347556 228.117915,25.4310222 228.271659,25.7414222 L232.386835,34.0456 C232.540579,34.356 232.856029,34.5520889 233.201024,34.5520889 L240.50608,34.5520889 C241.194656,34.5520889 241.633773,33.8127111 241.306293,33.2038222"></path>
            <path d="M36.9706779,25.3788978 C36.9706779,31.8796978 31.7260404,37.1497422 25.2565809,37.1497422 L8.65009568,37.1497422 C8.43920619,37.1497422 8.26865463,36.9780089 8.26865463,36.7664533 L8.26865463,14.7559644 C8.26865463,11.1950756 11.1411392,8.30849778 14.684861,8.30849778 L25.8262656,8.30849778 C26.0923544,8.30849778 26.2767057,8.57516444 26.1838224,8.82547556 L25.5364695,10.5748089 C25.4809164,10.7246756 25.3383183,10.8244089 25.1789127,10.8244089 L15.2251768,10.8244089 C12.7658021,10.8244089 10.7724365,12.8276089 10.7724365,15.29872 L10.7724365,34.2503644 C10.7724365,34.4620978 10.943165,34.6338311 11.1538775,34.6338311 L25.2567579,34.6338311 C30.3434051,34.6338311 34.466896,30.4903644 34.466896,25.3788978 L34.466896,5.89569778 C34.466896,5.55400889 34.8778828,5.38298667 35.1181412,5.62458667 L36.858864,7.37374222 C36.93034,7.44556444 36.9706779,7.54316444 36.9706779,7.64467556 L36.9706779,25.3788978 Z M13.5661914,26.11952 L13.5661914,15.2988978 C13.5661914,14.3781867 14.3089045,13.6318756 15.2251768,13.6318756 L25.9936326,13.6318756 C26.2043452,13.6318756 26.3752506,13.8036089 26.3752506,14.0153422 L26.3752506,24.8359644 C26.3752506,25.7566756 25.6325374,26.5029867 24.7162651,26.5029867 L13.9478093,26.5029867 C13.7370968,26.5029867 13.5661914,26.3312533 13.5661914,26.11952 L13.5661914,26.11952 Z M5.47472282,14.7557867 L5.47472282,34.2391644 C5.47472282,34.5808533 5.0635591,34.7518756 4.82330078,34.5102756 L3.08257794,32.76112 C3.01110198,32.68912 2.97076406,32.5916978 2.97076406,32.4900089 L2.97076406,14.7559644 C2.97076406,8.25516444 8.2154015,2.98512 14.684861,2.98512 L31.2913463,2.98512 C31.5022357,2.98512 31.6731411,3.15685333 31.6731411,3.36840889 L31.6731411,25.3788978 C31.6731411,28.9396089 28.8003027,31.8263644 25.2567579,31.8263644 L14.1151763,31.8263644 C13.8494414,31.8263644 13.6649131,31.5598756 13.7576196,31.3092089 L14.4049724,29.5602311 C14.4607025,29.4100089 14.6033006,29.3104533 14.7627061,29.3104533 L24.7162651,29.3104533 C27.1756399,29.3104533 29.1691824,27.3072533 29.1691824,24.8359644 L29.1691824,5.88449778 C29.1691824,5.67258667 28.998277,5.50103111 28.7875644,5.50103111 L14.684861,5.50103111 C9.59821375,5.50103111 5.47472282,9.64449778 5.47472282,14.7557867 L5.47472282,14.7557867 Z M33.9837256,0.51472 C33.7689438,0.298897778 33.4779093,0.177653333 33.1743134,0.177653333 L14.684861,0.177653333 C6.67229909,0.177653333 0.176832247,6.70458667 0.176832247,14.7559644 L0.176832247,33.3348089 C0.176832247,33.6398756 0.297492169,33.93232 0.512273908,34.1481422 L5.95789328,39.6201422 C6.17249809,39.8357867 6.46353266,39.9572089 6.76712859,39.9572089 L25.2567579,39.9572089 C33.2691428,39.9572089 39.7646097,33.4302756 39.7646097,25.3788978 L39.7646097,6.79987556 C39.7646097,6.49480889 39.6439498,6.20236444 39.429345,5.98672 L33.9837256,0.51472 Z"></path>
          </g>
        </g>
      </g>
    </g>
  </g>
</svg>
