<svg width="98" height="16" viewBox="0 0 98 16" fill="none" xmlns="http://www.w3.org/2000/svg">
<path fill-rule="evenodd" clip-rule="evenodd" d="M13.3216 0C13.4485 0 13.5612 0.0563844 13.6458 0.140969L15.859 2.34008C15.9577 2.42467 16 2.53745 16 2.66432V10.1357C16 13.378 13.3639 16 10.1356 16H2.66427C2.5375 16 2.4247 15.9436 2.3401 15.859L0.140999 13.6599C0.0422998 13.5753 0 13.4625 0 13.3357V5.86431C0 2.62202 2.62197 0 5.85024 0H13.3216ZM2.1427 13.6881V5.86431C2.1427 3.80617 3.80612 2.14273 5.86434 2.12863H11.5595C11.6441 2.12863 11.7146 2.19911 11.7146 2.2837V9.89603C11.7146 10.8969 10.8969 11.7004 9.91016 11.7004H5.89254C5.83614 11.7004 5.77974 11.7427 5.75154 11.7991L5.48365 12.504C5.44135 12.6026 5.51185 12.7154 5.62464 12.7154H10.1356C11.5736 12.7154 12.7295 11.5595 12.7295 10.1216V1.28282C12.7295 1.19823 12.659 1.12775 12.5744 1.12775H5.86434C3.24225 1.12775 1.12775 3.24229 1.12775 5.86431V12.9833C1.12775 13.0255 1.14185 13.0678 1.17005 13.096L1.87492 13.8009C1.97362 13.8996 2.1427 13.8291 2.1427 13.6881ZM5.39917 10.4176V6.07578C5.39917 5.70926 5.69514 5.41322 6.07584 5.41322H10.4176C10.5022 5.41322 10.5727 5.48371 10.5727 5.56829V9.91013C10.5727 10.2767 10.2768 10.5868 9.91016 10.5868H5.55427C5.46967 10.5727 5.39917 10.5022 5.39917 10.4176ZM10.1356 14.8582C12.7435 14.8582 14.8581 12.7295 14.8581 10.1216V3.00264C14.8581 2.96036 14.844 2.91806 14.8158 2.88987L14.111 2.18501C14.0123 2.08634 13.8432 2.15683 13.8432 2.2978V10.1357C13.8432 12.1938 12.1796 13.8573 10.1215 13.8573H4.4264C4.3418 13.8573 4.2713 13.7868 4.2713 13.7022V6.08987C4.2713 5.08899 5.08897 4.28546 6.07572 4.28546H10.0933C10.1497 4.28546 10.2061 4.24317 10.2343 4.18677L10.5021 3.48193C10.5444 3.38326 10.4739 3.27048 10.3612 3.27048H5.86422C4.4264 3.27048 3.27045 4.44053 3.27045 5.86431V14.7031C3.27045 14.7877 3.34095 14.8582 3.42555 14.8582H10.1356ZM95.3939 9.6141C95.3093 9.45903 95.3516 9.26168 95.4926 9.14889C95.9154 8.82467 96.2537 8.42995 96.5075 7.96476C96.8035 7.41497 96.9586 6.73832 96.9586 5.9489C96.9586 5.42731 96.874 4.93392 96.7189 4.45463C96.5639 3.98942 96.296 3.58062 95.9295 3.24228C95.5629 2.90396 95.0696 2.62202 94.4634 2.42467C93.8572 2.22731 93.1102 2.12863 92.2079 2.12863H87.57C87.3727 2.12863 87.2035 2.2978 87.2035 2.49515V13.4343C87.2035 13.6317 87.3727 13.8009 87.57 13.8009H90.3331C90.5304 13.8009 90.6996 13.6317 90.6996 13.4343V10.4317C90.6996 10.2344 90.8688 10.0652 91.066 10.0652H91.785C91.926 10.0652 92.0529 10.1498 92.1092 10.2626L93.7727 13.6035C93.829 13.7304 93.9559 13.8009 94.0969 13.8009H97.0432C97.3251 13.8009 97.4943 13.5048 97.3674 13.2652L95.3939 9.6141ZM91.9119 7.37268C92.4758 7.37268 92.8564 7.27401 93.0961 7.06256C93.3356 6.85111 93.4484 6.54097 93.4484 6.13217C93.4484 5.72334 93.3356 5.41322 93.0961 5.20177C92.8564 4.99032 92.4617 4.89163 91.9119 4.89163H91.0378C90.8406 4.89163 90.6714 5.0608 90.6714 5.25815V7.00618C90.6714 7.20353 90.8406 7.37268 91.0378 7.37268H91.9119ZM83.5947 10.9533H78.9991C78.8017 10.9533 78.6326 10.7841 78.6326 10.5868V9.71277C78.6326 9.51541 78.8017 9.34626 78.9991 9.34626H82.9744C83.1718 9.34626 83.3409 9.17709 83.3409 8.97974V6.85109C83.3409 6.65374 83.1718 6.48457 82.9744 6.48457H78.9991C78.8017 6.48457 78.6326 6.31542 78.6326 6.11807V5.37092C78.6326 5.17357 78.8017 5.0044 78.9991 5.0044H83.3128C83.5101 5.0044 83.6793 4.83523 83.6793 4.63788V2.50925C83.6793 2.3119 83.5101 2.14273 83.3128 2.14273H75.362C75.1648 2.14273 74.9956 2.3119 74.9956 2.50925V13.4484C74.9956 13.6458 75.1648 13.815 75.362 13.815H83.3973C83.5806 13.815 83.7498 13.674 83.7639 13.4766L83.9752 11.348C83.9893 11.1366 83.8062 10.9533 83.5947 10.9533ZM70.4846 7.3022C70.2872 7.45727 70.3013 7.7533 70.5128 7.89427C71.3586 8.44405 71.7815 9.27578 71.7815 10.3753C71.7815 10.8405 71.711 11.2775 71.5559 11.6863C71.4149 12.1092 71.1471 12.4758 70.7948 12.7859C70.4282 13.096 69.963 13.3498 69.385 13.533C68.807 13.7163 68.0881 13.815 67.2423 13.815H62.3083C62.111 13.815 61.9418 13.6458 61.9418 13.4484V2.50925C61.9418 2.3119 62.111 2.14273 62.3083 2.14273H67.3833C68.1727 2.14273 68.8211 2.22731 69.3427 2.38238C69.8643 2.53744 70.2872 2.76299 70.5974 3.03084C70.9074 3.31278 71.133 3.6229 71.2599 3.98942C71.3868 4.35594 71.4572 4.73656 71.4572 5.14537C71.4572 5.66696 71.3445 6.14625 71.1189 6.56916C70.9638 6.83701 70.7525 7.09075 70.4846 7.3022ZM65.3251 5.17357C65.3251 4.97622 65.4943 4.80705 65.6916 4.80705H66.777C67.2282 4.80705 67.5524 4.87753 67.7075 5.0326C67.8767 5.18767 67.9471 5.39912 67.9471 5.68106C67.9471 5.963 67.8626 6.18855 67.7075 6.32952C67.5383 6.48459 67.2282 6.55507 66.777 6.55507H65.6916C65.4943 6.55507 65.3251 6.3859 65.3251 6.18855V5.17357ZM66.8616 11.1507C67.4114 11.1507 67.7921 11.052 67.9894 10.8687C68.1868 10.6855 68.2855 10.4176 68.2855 10.0934C68.2855 9.74097 68.1868 9.47313 67.9894 9.28986C67.7921 9.10661 67.4114 9.00792 66.8616 9.00792H65.6916C65.4943 9.00792 65.3251 9.17709 65.3251 9.37444V10.7841C65.3251 10.9815 65.4943 11.1507 65.6916 11.1507H66.8616ZM57.4731 7.89427C57.2616 7.7533 57.2475 7.45727 57.4449 7.3022C57.7128 7.09075 57.9242 6.83701 58.0793 6.56916C58.3049 6.14625 58.4176 5.66696 58.4176 5.14537C58.4176 4.73656 58.3472 4.35594 58.2203 3.98942C58.0934 3.6229 57.8678 3.31278 57.5577 3.03084C57.2475 2.76299 56.8247 2.53744 56.3031 2.38238C55.7815 2.22731 55.133 2.14273 54.3436 2.14273H49.2546C49.0573 2.14273 48.8881 2.3119 48.8881 2.50925V13.4484C48.8881 13.6458 49.0573 13.815 49.2546 13.815H54.1886C55.0343 13.815 55.7533 13.7163 56.3313 13.533C56.9093 13.3498 57.3744 13.096 57.741 12.7859C58.0934 12.4758 58.3612 12.1092 58.5022 11.6863C58.6573 11.2775 58.7278 10.8405 58.7278 10.3753C58.7419 9.27578 58.319 8.44405 57.4731 7.89427ZM52.6519 4.80705C52.4547 4.80705 52.2855 4.97622 52.2855 5.17357V6.18855C52.2855 6.3859 52.4547 6.55507 52.6519 6.55507H53.7374C54.1886 6.55507 54.4987 6.48459 54.6679 6.32952C54.823 6.18855 54.9074 5.963 54.9074 5.68106C54.9074 5.39912 54.8371 5.18767 54.6679 5.0326C54.5128 4.87753 54.1886 4.80705 53.7374 4.80705H52.6519ZM54.9497 10.8687C54.7525 11.052 54.3718 11.1507 53.822 11.1507H52.6519C52.4547 11.1507 52.2855 10.9815 52.2855 10.7841V9.37444C52.2855 9.17709 52.4547 9.00792 52.6519 9.00792H53.822C54.3718 9.00792 54.7525 9.10661 54.9497 9.28986C55.1471 9.47313 55.2458 9.74097 55.2458 10.0934C55.2458 10.4176 55.1471 10.6855 54.9497 10.8687ZM42.3048 2.2696C43.0379 2.53744 43.6441 2.94626 44.1374 3.46783C44.6308 3.98942 44.9974 4.62378 45.2511 5.35682C45.5049 6.10397 45.6317 6.94978 45.6317 7.89427C45.6317 8.85285 45.5049 9.69868 45.2511 10.474C44.9974 11.2493 44.6167 11.8978 44.1233 12.4335C43.6159 12.9692 43.0097 13.3921 42.2625 13.674C41.5155 13.97 40.6696 14.111 39.6969 14.111C38.7524 14.111 37.9066 13.97 37.1876 13.6881C36.4546 13.4203 35.8485 13.0114 35.355 12.4899C34.8616 11.9683 34.4952 11.3198 34.2414 10.5727C33.9877 9.82555 33.8608 8.96564 33.8608 8.02114C33.8608 7.07665 33.9877 6.23083 34.2414 5.46961C34.4952 4.70836 34.8616 4.05991 35.3691 3.52423C35.8626 2.98854 36.4828 2.56564 37.2299 2.2837C37.963 1.98766 38.8229 1.84669 39.7956 1.84669C40.7401 1.84669 41.586 1.98766 42.3048 2.2696ZM39.7391 10.9251C38.3718 10.9251 37.6951 9.93833 37.6951 7.97886C37.6951 6.01938 38.3718 5.0326 39.7391 5.0326C41.1066 5.0326 41.7832 6.01938 41.7832 7.97886C41.7832 9.93833 41.1066 10.9251 39.7391 10.9251ZM27.3339 2.14273H30.3083C30.5057 2.14273 30.6748 2.2978 30.6607 2.50925V9.27577C30.6607 10.8687 30.2237 12.067 29.3498 12.8846C28.4757 13.6881 27.2634 14.0969 25.7269 14.0969C24.1057 14.0969 22.8793 13.6881 22.0475 12.8423C21.3005 12.081 20.8635 10.9956 20.7648 9.6C20.7507 9.38854 20.9198 9.20529 21.1313 9.20529H24.1057C24.289 9.20529 24.444 9.34626 24.4722 9.52951C24.5145 9.92423 24.6273 10.2344 24.7824 10.474C24.9797 10.77 25.304 10.9251 25.7409 10.9251C26.1779 10.9251 26.4881 10.7982 26.6854 10.5304C26.8687 10.2626 26.9674 9.89603 26.9674 9.44493V2.50925C26.9674 2.3119 27.1366 2.14273 27.3339 2.14273Z" fill="#012939"/>
</svg>
